<svg width="49" height="45" viewBox="0 0 49 45" fill="none" xmlns="http://www.w3.org/2000/svg">
<path d="M45.6655 13.5735C45.2973 13.2066 44.8062 13.3289 44.5607 13.5735L43.9469 14.1849L43.4558 12.5952L47.0159 8.80447C47.7525 8.07078 48.1208 6.97024 48.1208 5.86969C48.1208 4.76915 47.6297 3.79089 46.8932 3.05719C45.2973 1.46752 42.7192 1.5898 41.1233 3.17948L37.5632 6.97024L35.8446 6.48111L36.4584 5.86969C36.8267 5.50285 36.7039 5.01371 36.4584 4.76915L34.3714 2.81263C33.8804 2.44578 33.3893 2.44578 33.1438 2.81263L30.8113 5.25828L29.4609 4.89143V6.60339L31.6707 7.2148L34.0031 7.82621L36.0901 8.43763L32.8983 11.8615L29.4609 10.1496V11.9838L31.6707 13.0844L29.4609 15.4077V17.7311L42.2282 4.4023C43.2103 3.42404 44.6834 3.42404 45.6655 4.28002C46.1566 4.76915 46.4021 5.38056 46.4021 5.99198C46.4021 6.60339 46.1566 7.2148 45.7883 7.70393L41.8599 11.8615L37.3177 16.7528L32.8983 21.3996C32.7755 21.5219 32.6528 21.6441 32.6528 21.8887L32.1617 26.5355L31.4251 27.3914L29.7065 24.2121V22.011C29.7065 21.8887 29.5837 21.6441 29.5837 21.5219V27.1469L30.5658 28.9811C30.6886 29.2257 30.9341 29.348 31.1796 29.348C31.4251 29.348 31.6707 29.348 31.9162 29.1034L33.6349 27.2691C33.7576 27.1469 33.8804 27.0246 33.8804 26.78L34.3714 22.1333L37.8088 18.5871L42.5965 27.2691C42.5965 27.3914 42.7192 27.3914 42.7192 27.5137C42.842 27.636 42.9648 27.7583 43.2103 27.7583C43.4558 27.7583 43.7013 27.7583 43.9469 27.5137L47.0159 24.3344C47.2614 24.0898 47.2614 23.8452 47.2614 23.4784L45.42 19.0762L47.7525 16.6306C48.1208 16.2637 47.998 15.7746 47.7525 15.53L45.6655 13.5735ZM34.0031 6.11426L32.6528 5.74741L33.7576 4.52458L34.7397 5.38056L34.0031 6.11426ZM43.3331 25.5572L38.9136 17.3643L42.1054 13.9403L45.2973 23.4784L43.3331 25.5572ZM44.929 17.3643L44.4379 16.0192L45.0517 15.2855L46.0338 16.1414L44.929 17.3643Z" fill="#0068FA"/>
<path d="M21.9765 9.78276C21.4855 9.78276 21.1172 9.41591 21.1172 8.92678C21.1172 8.43765 21.4855 8.0708 21.9765 8.0708H24.309C24.8 8.0708 25.1683 8.43765 25.1683 8.92678C25.1683 9.41591 24.8 9.78276 24.309 9.78276H21.9765Z" fill="#0068FA"/>
<path d="M14.2421 9.78276C13.7511 9.78276 13.3828 9.41591 13.3828 8.92678C13.3828 8.43765 13.7511 8.0708 14.2421 8.0708H16.5746C17.0657 8.0708 17.434 8.43765 17.434 8.92678C17.434 9.41591 17.0657 9.78276 16.5746 9.78276H14.2421Z" fill="#0068FA"/>
<path d="M6.50777 9.78276C6.01672 9.78276 5.64844 9.29363 5.64844 8.92678C5.64844 8.55993 6.01672 8.0708 6.50777 8.0708H8.84025C9.3313 8.0708 9.69959 8.43765 9.69959 8.92678C9.69959 9.41591 9.3313 9.78276 8.84025 9.78276H6.50777Z" fill="#0068FA"/>
<path d="M21.9765 20.7881C21.4855 20.7881 21.1172 20.4213 21.1172 19.9321C21.1172 19.443 21.4855 19.0762 21.9765 19.0762H24.309C24.8 19.0762 25.1683 19.443 25.1683 19.9321C25.1683 20.4213 24.8 20.7881 24.309 20.7881H21.9765Z" fill="#0068FA"/>
<path d="M14.2421 20.7881C13.7511 20.7881 13.3828 20.4213 13.3828 19.9321C13.3828 19.443 13.7511 19.0762 14.2421 19.0762H16.5746C17.0657 19.0762 17.434 19.443 17.434 19.9321C17.434 20.4213 17.0657 20.7881 16.5746 20.7881H14.2421Z" fill="#0068FA"/>
<path d="M6.50777 20.7881C6.01672 20.7881 5.64844 20.4213 5.64844 19.9321C5.64844 19.443 6.01672 19.0762 6.50777 19.0762H8.84025C9.3313 19.0762 9.69959 19.443 9.69959 19.9321C9.69959 20.4213 9.3313 20.7881 8.84025 20.7881H6.50777Z" fill="#0068FA"/>
<path d="M21.9765 31.7935C21.4855 31.7935 21.1172 31.4267 21.1172 30.9375C21.1172 30.4484 21.4855 30.0815 21.9765 30.0815H24.309C24.8 30.0815 25.1683 30.4484 25.1683 30.9375C25.1683 31.4267 24.8 31.7935 24.309 31.7935H21.9765Z" fill="#0068FA"/>
<path d="M14.2421 31.7935C13.7511 31.7935 13.3828 31.4267 13.3828 30.9375C13.3828 30.4484 13.7511 30.0815 14.2421 30.0815H16.5746C17.0657 30.0815 17.434 30.4484 17.434 30.9375C17.434 31.4267 17.0657 31.7935 16.5746 31.7935H14.2421Z" fill="#0068FA"/>
<path d="M6.50777 31.7935C6.01672 31.7935 5.64844 31.4267 5.64844 30.9375C5.64844 30.4484 6.01672 30.0815 6.50777 30.0815H8.84025C9.3313 30.0815 9.69959 30.4484 9.69959 30.9375C9.69959 31.4267 9.3313 31.7935 8.84025 31.7935H6.50777Z" fill="#0068FA"/>
<path d="M33.2685 17.3641C32.9003 16.9973 32.4092 17.1196 32.1637 17.3641L30.9361 18.7092V1.22283C30.9361 0.48913 30.445 0 29.7084 0H1.22762C0.491049 0 0 0.48913 0 1.22283V43.7772C0 44.5109 0.491049 45 1.22762 45H11.2941H19.5192H29.5857C30.3223 45 30.8133 44.5109 30.8133 43.7772V20.788C31.0588 20.788 31.1816 20.6658 31.4271 20.5435L33.2685 18.587C33.5141 18.0978 33.5141 17.6087 33.2685 17.3641ZM19.1509 43.1658H11.6624V38.519H19.1509V43.1658ZM28.9719 43.1658H20.7468V38.1522C20.7468 37.4185 20.2558 36.9293 19.5192 36.9293H11.2941C10.5575 36.9293 10.0665 37.4185 10.0665 38.1522V43.1658H1.84143V1.83424H28.9719V43.1658Z" fill="#0068FA"/>
</svg>
