<svg width="80" height="73" viewBox="0 0 80 73" fill="none" xmlns="http://www.w3.org/2000/svg">
<path fill-rule="evenodd" clip-rule="evenodd" d="M56.6619 9.57591C39.8461 -7.06474 25.5227 0.503211 23.0303 13.181C20.5379 25.8588 -2.61463 28.3901 0.244004 43.3645C3.10264 58.3389 34.2408 49.4478 34.2408 63.0183C34.2408 76.5889 70.2429 76.1209 70.2429 58.3389C70.2429 40.5568 73.4777 26.2166 56.6619 9.57591Z" fill="white" fill-opacity="0.2"/>
<mask id="mask0_530_2" style="mask-type:alpha" maskUnits="userSpaceOnUse" x="0" y="0" width="71" height="73">
<path fill-rule="evenodd" clip-rule="evenodd" d="M56.6619 9.57591C39.8461 -7.06474 25.5227 0.503211 23.0303 13.181C20.5379 25.8588 -2.61463 28.3901 0.244004 43.3645C3.10264 58.3389 34.2408 49.4478 34.2408 63.0183C34.2408 76.5889 70.2429 76.1209 70.2429 58.3389C70.2429 40.5568 73.4777 26.2166 56.6619 9.57591Z" fill="white"/>
</mask>
<g mask="url(#mask0_530_2)">
<g opacity="0.2">
<rect width="71" height="73" fill="#FA7602"/>
</g>
</g>
<g clip-path="url(#clip0_530_2)">
<path d="M59.1004 58.6501C59.1 58.6501 59.0996 58.6501 59.0992 58.6501H43.8992C43.3748 58.6498 42.9494 59.0746 42.9492 59.599C42.9492 59.5993 42.9492 59.5998 42.9492 59.6001V61.5001C42.9506 62.549 43.8004 63.3987 44.8493 63.4002H58.1493C59.1981 63.3988 60.0479 62.549 60.0493 61.5001V59.6001C60.0495 59.0758 59.6247 58.6504 59.1004 58.6501ZM58.1492 61.5001H44.8493V60.5502H58.1493V61.5001H58.1492Z" fill="#FF7B07"/>
<path d="M59.1004 48.2C59.1 48.2 59.0996 48.2 59.0992 48.2H43.8992C43.3748 48.1996 42.9494 48.6244 42.9492 49.1488C42.9492 49.1491 42.9492 49.1496 42.9492 49.1499V51.0499C42.9506 52.0988 43.8004 52.9485 44.8493 52.95H58.1493C59.1981 52.9486 60.0479 52.0988 60.0493 51.0499V49.1499C60.0495 48.6256 59.6247 48.2003 59.1004 48.2ZM58.1492 51.0499H44.8493V50.1H58.1493V51.0499H58.1492Z" fill="#FF7B07"/>
<path d="M77.15 14H59.8561C58.4994 14.0002 57.2077 14.5806 56.3066 15.5948L50.4071 22.2308C50.2295 22.4293 49.9768 22.544 49.7105 22.547L27.9894 16.8806C27.4816 16.7484 26.9628 17.0528 26.8306 17.5606C26.6983 18.0684 27.0028 18.5872 27.5106 18.7194L42.1946 22.55H25.85C24.2767 22.5517 23.0017 23.8267 23 25.4V69.1C23.0013 70.1488 23.8512 70.9986 24.9 71H30.6C31.6489 70.9987 32.4986 70.1488 32.5001 69.1V67.1999H70.5V69.1C70.5014 70.1488 71.3513 70.9986 72.4001 71H78.1001C79.1489 70.9987 79.9987 70.1488 80.0001 69.1V16.85C79.9983 15.2767 78.7233 14.0017 77.15 14ZM30.6 69.1H24.9V67.1999H30.6V69.1ZM78.1 69.1H72.4V67.1999H78.1V69.1ZM78.1 65.3H31.55H24.9V56.75H78.1001V65.3H78.1ZM78.1 54.85H24.9V46.3H78.1001V54.85H78.1ZM78.1 44.4H24.9V29.2H78.1001V44.4H78.1ZM78.1 27.3H24.9V25.4C24.9004 24.8754 25.3255 24.4504 25.85 24.45H49.6965C50.5105 24.4498 51.2856 24.1018 51.8265 23.4935L57.7269 16.8565C58.2674 16.2482 59.0423 15.9 59.8561 15.8999H77.15C77.6745 15.9003 78.0996 16.3254 78.1 16.8499V27.3Z" fill="#081539"/>
<path d="M75.2503 31.0999C75.25 31.0999 75.2495 31.0999 75.2492 31.0999H43.8992C43.3748 31.0995 42.9494 31.5243 42.9492 32.0487C42.9492 32.049 42.9492 32.0495 42.9492 32.0498V41.5498C42.9489 42.0741 43.3737 42.4995 43.8981 42.4997C43.8984 42.4997 43.8988 42.4997 43.8992 42.4997H75.2492C75.7735 42.5001 76.1989 42.0752 76.1991 41.5509C76.1991 41.5506 76.1991 41.5501 76.1991 41.5498V32.0498C76.1995 31.5255 75.7747 31.1002 75.2503 31.0999ZM58.1492 40.5998H44.8493V32.9998H58.1493V40.5998H58.1492ZM74.2992 40.5998H60.0492V32.9998H74.2992V40.5998Z" fill="#081539"/>
<path d="M49.3077 35.1784C48.9382 34.8155 48.3459 34.8155 47.9764 35.1784L47.0264 36.1284C46.6522 36.496 46.6468 37.0974 47.0144 37.4717C47.382 37.846 47.9834 37.8513 48.3577 37.4837C48.3617 37.4797 48.3657 37.4757 48.3697 37.4717L49.3197 36.5217C49.6873 36.1475 49.682 35.5461 49.3077 35.1784Z" fill="#FF7B07"/>
<path d="M54.0729 35.1785C54.0728 35.1784 54.0727 35.1783 54.0726 35.1782C53.7019 34.8072 53.1006 34.8071 52.7295 35.1779C52.7294 35.178 52.7293 35.1781 52.7292 35.1782L50.8293 37.0782C50.456 37.447 50.4523 38.0483 50.821 38.4215C51.1897 38.7948 51.7911 38.7985 52.1643 38.4298C52.1671 38.427 52.1699 38.4242 52.1727 38.4214L54.0727 36.5216C54.4436 36.1508 54.4437 35.5495 54.0729 35.1785Z" fill="#FF7B07"/>
</g>
<defs>
<clipPath id="clip0_530_2">
<rect width="57" height="57" fill="white" transform="translate(23 14)"/>
</clipPath>
</defs>
</svg>
