<svg width="180" height="103" viewBox="0 0 180 103" fill="none" xmlns="http://www.w3.org/2000/svg">
<path d="M58.5075 92.0396H51.1445V62.7264H58.5075V92.0396Z" fill="#C4122E"/>
<path d="M117.88 71.1253C117.577 70.9707 115.207 69.5603 111.686 69.5603C106.925 69.5603 103.623 72.8873 103.623 77.3788C103.623 81.7344 106.783 85.2044 111.686 85.2044C115.147 85.2044 117.556 83.822 117.88 83.6487V91.5163C116.956 91.7741 114.44 92.559 111.17 92.559C102.888 92.559 95.6187 86.8234 95.6187 77.3765C95.6187 68.6254 102.196 62.2056 111.17 62.2056C114.622 62.2056 117.183 63.0491 117.88 63.2577V71.1253ZM41.0254 71.1253C40.7292 70.9707 38.362 69.5603 34.8403 69.5603C30.0709 69.5603 26.7707 72.8873 26.7707 77.3788C26.7707 81.7344 29.9333 85.2044 34.8403 85.2044C38.3014 85.2044 40.7082 83.822 41.0254 83.6487V91.5163C40.1112 91.7741 37.597 92.559 34.3086 92.559C26.0337 92.559 18.7734 86.8234 18.7734 77.3765C18.7734 68.6254 25.3504 62.2056 34.3109 62.2056C37.7766 62.2056 40.3328 63.0491 41.0254 63.2577V71.1253ZM141.042 69.6704C136.673 69.6704 133.429 73.1239 133.429 77.3788C133.429 81.643 136.673 85.0943 141.042 85.0943C145.405 85.0943 148.659 81.643 148.659 77.3788C148.659 73.1239 145.405 69.6704 141.042 69.6704ZM156.46 77.3788C156.46 85.7643 150.016 92.559 141.044 92.559C132.067 92.559 125.632 85.7644 125.632 77.3765C125.632 69.0073 132.069 62.2056 141.042 62.2056C150.016 62.2056 156.46 69.0073 156.46 77.3788ZM86.432 69.3893C86.3224 69.3541 83.2228 68.4942 80.676 68.4942C77.7257 68.4942 76.1211 69.4877 76.1211 70.8958C76.1211 72.6812 78.2855 73.3043 79.4959 73.6885L81.5273 74.3376C86.3084 75.8653 88.4844 79.1524 88.4844 82.7231C88.4844 90.0871 82.038 92.5613 76.4033 92.5613C72.4875 92.5613 68.8189 91.835 68.4574 91.76V85.0122C69.1057 85.1762 72.1936 86.1041 75.4098 86.1041C79.0738 86.1041 80.7577 85.0264 80.7577 83.3675C80.7577 81.8821 79.3 81.0245 77.4738 80.4481C77.0307 80.2981 76.359 80.0872 75.9019 79.9373C71.8018 78.6346 68.3827 76.212 68.3827 71.362C68.3827 65.8794 72.4688 62.1986 79.2557 62.1986C82.8403 62.1986 86.2128 63.0725 86.432 63.1311V69.3868V69.3893Z" fill="#C4122E"/>
<path d="M10.964 31.2243C10.964 29.2046 9.32204 27.5668 7.30931 27.5668C5.29658 27.5668 3.65234 29.2045 3.65234 31.2218V38.9186C3.67643 39.8766 4.07217 40.7872 4.75514 41.4562C5.43811 42.1252 6.35426 42.4996 7.30816 42.4996C8.26205 42.4996 9.17818 42.1252 9.86115 41.4562C10.5441 40.7872 10.9399 39.8766 10.964 38.9186V31.2243ZM31.0423 21.126C31.0423 20.152 30.6571 19.2178 29.9715 18.529C29.2859 17.8403 28.3561 17.4534 27.3865 17.4534C26.4169 17.4534 25.4871 17.8403 24.8015 18.529C24.1159 19.2178 23.7307 20.152 23.7307 21.126V38.9186C23.7307 39.8927 24.1159 40.8268 24.8015 41.5156C25.4871 42.2043 26.4169 42.5913 27.3865 42.5913C28.3561 42.5913 29.2859 42.2043 29.9715 41.5156C30.6571 40.8268 31.0423 39.8927 31.0423 38.9186V21.1236V21.126ZM51.123 7.30705C51.123 5.2874 49.4811 3.64728 47.4683 3.64728C45.4533 3.64728 43.8114 5.2874 43.8114 7.30705V46.231C43.8354 47.189 44.2312 48.0996 44.9142 48.7686C45.5971 49.4376 46.5133 49.8121 47.4672 49.8121C48.4211 49.8121 49.3372 49.4376 50.0202 48.7686C50.7031 48.0996 51.0989 47.189 51.123 46.231V7.30705ZM71.2013 21.126C71.2013 20.152 70.8161 19.2178 70.1305 18.529C69.4449 17.8403 68.5151 17.4534 67.5455 17.4534C66.5759 17.4534 65.646 17.8403 64.9605 18.529C64.2749 19.2178 63.8897 20.152 63.8897 21.126V38.9186C63.8897 39.8927 64.2749 40.8268 64.9605 41.5156C65.646 42.2043 66.5759 42.5913 67.5455 42.5913C68.5151 42.5913 69.4449 42.2043 70.1305 41.5156C70.8161 40.8268 71.2013 39.8927 71.2013 38.9186V21.1236V21.126ZM91.2587 31.2243C91.2593 30.2553 90.8769 29.3257 90.1955 28.6399C89.5141 27.9541 88.5895 27.568 87.625 27.5668C86.6584 27.5662 85.7309 27.9506 85.0459 28.6357C84.3608 29.3209 83.9741 30.2508 83.9704 31.2218V38.9186C83.9704 39.8896 84.3543 40.8207 85.0377 41.5073C85.7211 42.1939 86.648 42.5795 87.6145 42.5795C88.581 42.5795 89.5079 42.1939 90.1913 41.5073C90.8747 40.8207 91.2587 39.8896 91.2587 38.9186V31.2243ZM111.346 21.126C111.322 20.1711 110.928 19.2634 110.247 18.5965C109.566 17.9297 108.653 17.5565 107.702 17.5565C106.751 17.5565 105.838 17.9297 105.157 18.5965C104.477 19.2634 104.082 20.1711 104.058 21.126V38.9186C104.058 39.8896 104.442 40.8207 105.125 41.5073C105.809 42.1939 106.736 42.5795 107.702 42.5795C108.669 42.5795 109.596 42.1939 110.279 41.5073C110.962 40.8207 111.346 39.8896 111.346 38.9186V21.1236V21.126ZM131.439 7.30705C131.439 6.33612 131.055 5.40494 130.371 4.71838C129.688 4.03183 128.761 3.64613 127.795 3.64613C126.828 3.64613 125.901 4.03183 125.218 4.71838C124.534 5.40494 124.15 6.33612 124.15 7.30705V46.231C124.129 46.7253 124.207 47.2188 124.381 47.6818C124.554 48.1448 124.819 48.5678 125.159 48.9252C125.5 49.2826 125.909 49.5671 126.362 49.7614C126.815 49.9557 127.302 50.056 127.795 50.056C128.287 50.056 128.774 49.9557 129.227 49.7614C129.68 49.5671 130.089 49.2826 130.43 48.9252C130.77 48.5678 131.035 48.1448 131.209 47.6818C131.382 47.2188 131.46 46.7253 131.439 46.231V7.30705ZM151.526 21.126C151.526 19.104 149.896 17.4615 147.837 17.4615C146.87 17.4621 145.944 17.8482 145.261 18.5349C144.577 19.2216 144.194 20.1527 144.194 21.1236V38.9186C144.194 40.95 145.826 42.5877 147.837 42.5877C149.896 42.5877 151.526 40.95 151.526 38.9186V21.1236V21.126ZM171.577 31.2243C171.577 30.2524 171.192 29.3202 170.508 28.633C169.824 27.9458 168.896 27.5598 167.929 27.5598C166.962 27.5598 166.034 27.9458 165.35 28.633C164.666 29.3202 164.281 30.2524 164.281 31.2243V38.9186C164.281 40.95 165.916 42.59 167.929 42.59C169.939 42.59 171.574 40.95 171.574 38.9186V31.2243H171.577Z" fill="#15495D"/>
<path d="M167.363 88.1777V88.6369H166.061V92.0365H165.525V88.6393H164.219V88.1777H167.363ZM167.635 88.1777H168.473L169.623 91.3431H169.641L170.754 88.18H171.575V92.0365H171.027V88.8735H171.008L169.842 92.0365H169.336L168.198 88.8735H168.172V92.0365H167.635V88.1777Z" fill="#C4122E"/>
</svg>
