<svg width="92" height="92" viewBox="0 0 92 92" fill="none" xmlns="http://www.w3.org/2000/svg">
<path d="M44.5728 3.05176e-05H47.4242C61.2937 0.784646 71.1826 6.06807 78.514 13.4726C85.8457 20.8771 91.2651 30.643 91.9893 44.6161V47.3843C91.2851 61.5808 85.7699 70.9504 78.514 78.574C70.8919 85.8154 61.5219 91.3019 47.3782 92H44.5728C30.7052 91.2138 20.8145 85.9325 13.483 78.5276C6.15161 71.1231 0.732012 61.3574 0.0078125 47.3843V44.6161C0.0439035 44.6059 0.0615524 44.5775 0.0538187 44.5238C0.747281 30.604 6.19642 20.7366 13.4832 13.4264C20.8036 6.08219 30.795 0.760972 44.5728 3.05176e-05ZM35.5586 6.59784C32.826 7.33193 30.3754 8.26416 28.1542 9.36608C21.3933 12.72 15.8178 17.5184 11.9194 23.669C8.1144 29.6726 4.81981 37.3956 5.29693 47.5226C5.59775 53.9071 7.04992 59.2777 9.34387 63.8557C13.8741 72.8949 20.771 79.5551 30.3159 83.6032C35.0359 85.6049 40.8844 87.009 47.4704 86.6943C53.7877 86.3925 59.2619 84.9679 63.7972 82.6803C72.6859 78.1966 79.691 71.2787 83.5735 61.7334C85.5371 56.9049 87.022 51.3269 86.7009 44.5697C86.0933 31.7694 80.9032 23.0901 74.0536 16.4714C70.6644 13.1965 66.5834 10.4107 61.7742 8.39725C57.1079 6.44367 51.0333 4.99519 44.5274 5.30593C41.329 5.45872 38.3118 5.85819 35.5586 6.59784Z" fill="#0083CA"/>
<path d="M41.7675 34.0502C43.2246 35.0182 44.7151 35.953 46.0907 37.003C42.9831 38.9606 39.9366 40.9796 36.8466 42.9549C37.3158 43.3147 37.8493 43.61 38.3182 43.9699C41.434 41.9896 44.5507 40.0106 47.6545 38.018C49.0466 38.8824 50.4171 39.7683 51.7019 40.7403C48.5917 42.711 45.5858 44.7859 42.5036 46.7842C42.9603 47.1569 43.5201 47.4256 44.021 47.7533C47.2067 45.7971 50.3131 43.7614 53.4491 41.7555V35.2036H60.3478V48.261C62.2946 48.3684 64.4412 48.2763 66.4649 48.3067V54.4434H53.4491V48.2144C49.625 50.5452 45.7062 53.1809 41.8595 55.6428C37.8536 53.0333 33.9929 50.2774 29.9939 47.661C28.8354 51.3447 26.084 54.1159 21.5314 54.4434C18.6921 54.6471 15.4657 54.2912 12.1953 54.4434V35.2036C16.2839 35.4754 20.7735 34.6551 24.0149 35.665C26.881 36.558 28.913 38.8522 29.8557 41.7091C33.8576 39.1876 37.7953 36.602 41.7675 34.0502ZM18.7718 41.3862V48.3069C20.4151 48.3151 21.665 48.4108 22.6349 47.6612C24.078 46.5461 24.3687 43.7819 23.0948 42.3089C22.2447 41.3262 20.8094 41.1199 18.8176 41.2478C18.7645 41.2555 18.7678 41.3208 18.7718 41.3862ZM68.2581 35.2036H75.1566V48.3069H81.2275V54.4436H68.2117V35.3421C68.2081 35.2766 68.2044 35.2114 68.2581 35.2036Z" fill="#0083CA"/>
</svg>
