<svg width="341" height="98" viewBox="0 0 341 98" fill="none" xmlns="http://www.w3.org/2000/svg">
<path fill-rule="evenodd" clip-rule="evenodd" d="M12.554 51.9732H54.3522C57.2407 51.9732 59.1097 49.5945 59.1097 46.8759C59.1097 43.8175 57.4106 41.6086 54.3522 41.6086H12.554V16.2918C12.554 13.4033 13.7434 12.044 16.8018 12.044H59.9593C63.1876 12.044 64.8867 9.66526 64.8867 6.60686C64.8867 3.54845 63.1876 1.3396 59.9593 1.3396H13.5735C4.90796 1.3396 1 5.07765 1 14.5927V83.5768C1 92.9219 4.73805 96.66 13.5735 96.66H60.9788C64.2071 96.66 65.9062 94.2812 65.9062 91.2228C65.9062 88.1644 64.2071 85.9555 60.9788 85.9555H17.1416C14.423 85.9555 12.554 84.7662 12.554 82.0476V51.9732Z" fill="#081539"/>
<path fill-rule="evenodd" clip-rule="evenodd" d="M12.554 51.9732H54.3522C57.2407 51.9732 59.1097 49.5945 59.1097 46.8759C59.1097 43.8175 57.4106 41.6086 54.3522 41.6086H12.554V16.2918C12.554 13.4033 13.7434 12.044 16.8018 12.044H59.9593C63.1876 12.044 64.8867 9.66526 64.8867 6.60686C64.8867 3.54845 63.1876 1.3396 59.9593 1.3396H13.5735C4.90796 1.3396 1 5.07765 1 14.5927V83.5768C1 92.9219 4.73805 96.66 13.5735 96.66H60.9788C64.2071 96.66 65.9062 94.2812 65.9062 91.2228C65.9062 88.1644 64.2071 85.9555 60.9788 85.9555H17.1416C14.423 85.9555 12.554 84.7661 12.554 82.0476V51.9732V51.9732Z" stroke="white" stroke-width="0.6501" stroke-miterlimit="3.8637"/>
<path fill-rule="evenodd" clip-rule="evenodd" d="M80.6875 83.7467C80.6875 92.9219 84.4256 96.66 93.091 96.66H139.477C142.705 96.66 144.404 93.9414 144.404 91.0529C144.404 87.9945 142.535 85.7856 139.477 85.7856H96.6592C93.9406 85.7856 92.2415 84.2564 92.2415 81.5378V6.77679C92.2415 3.20865 89.8627 1.67944 86.4645 1.67944C83.2362 1.67944 80.6875 3.20865 80.6875 6.9467V83.7467Z" fill="#081539"/>
<path fill-rule="evenodd" clip-rule="evenodd" d="M80.6875 83.7467C80.6875 92.9219 84.4256 96.66 93.091 96.66H139.477C142.705 96.66 144.404 93.9414 144.404 91.0529C144.404 87.9945 142.535 85.7856 139.477 85.7856H96.6592C93.9406 85.7856 92.2415 84.2564 92.2415 81.5378V6.77679C92.2415 3.20865 89.8627 1.67944 86.4645 1.67944C83.2362 1.67944 80.6875 3.20865 80.6875 6.9467V83.7467Z" stroke="white" stroke-width="0.6501" stroke-miterlimit="3.8637"/>
<path fill-rule="evenodd" clip-rule="evenodd" d="M159.191 91.7327V5.92743C159.191 2.5292 161.57 1 164.798 1C168.197 1 170.745 2.5292 170.745 5.92743V9.15575H170.236C167.177 9.15575 164.629 11.7044 164.629 14.7628C164.629 17.8212 167.177 20.3699 170.236 20.3699H170.745V91.5628C170.745 94.7911 168.197 96.4903 164.798 96.4903C161.57 96.6602 159.191 94.9611 159.191 91.7327Z" fill="#081539"/>
<path fill-rule="evenodd" clip-rule="evenodd" d="M159.191 91.7327V5.92743C159.191 2.5292 161.57 1 164.798 1C168.197 1 170.745 2.5292 170.745 5.92743V9.15575H170.236C167.177 9.15575 164.629 11.7044 164.629 14.7628C164.629 17.8212 167.177 20.3699 170.236 20.3699H170.745V91.5628C170.745 94.7911 168.197 96.4903 164.798 96.4903C161.57 96.6602 159.191 94.9611 159.191 91.7327Z" stroke="white" stroke-width="0.6501" stroke-miterlimit="3.8637"/>
<path fill-rule="evenodd" clip-rule="evenodd" d="M196.915 57.4109H224.271C243.471 57.4109 254.685 46.8764 254.685 28.8658C254.685 11.7047 243.981 2.01978 224.781 2.01978H197.935C189.269 2.01978 185.531 5.75783 185.531 15.103V91.733C185.531 95.3012 187.91 97.0003 191.138 97.0003C194.367 97.0003 196.745 95.3012 196.745 91.903V57.4109H196.915ZM196.915 47.2162V16.2923C196.915 13.5738 198.105 12.0446 200.823 12.0446H224.101C236.165 12.0446 242.791 17.9915 242.791 28.8658C242.791 40.5897 236.335 47.0463 224.101 47.0463H196.915V47.2162Z" fill="#081539"/>
<path fill-rule="evenodd" clip-rule="evenodd" d="M196.915 57.4109H224.271C243.471 57.4109 254.685 46.8764 254.685 28.8658C254.685 11.7047 243.981 2.01978 224.781 2.01978H197.935C189.269 2.01978 185.531 5.75783 185.531 15.103V91.733C185.531 95.3012 187.91 97.0003 191.138 97.0003C194.367 97.0003 196.745 95.3012 196.745 91.903V57.4109H196.915ZM196.915 47.2162V16.2923C196.915 13.5738 198.105 12.0446 200.823 12.0446H224.101C236.165 12.0446 242.791 17.9915 242.791 28.8658C242.791 40.5897 236.335 47.0463 224.101 47.0463H196.915V47.2162Z" stroke="white" stroke-width="0.6501" stroke-miterlimit="3.8637"/>
<path fill-rule="evenodd" clip-rule="evenodd" d="M340.318 69.9841C340.318 85.2762 328.594 96.6602 307.525 96.6602L307.355 86.8054C320.609 86.6354 328.764 80.1788 328.764 70.154C328.764 60.4691 323.497 56.2213 309.564 53.3328L307.525 52.8231V41.7788L311.943 42.6284C330.124 46.5363 340.318 52.8231 340.318 69.9841Z" fill="#FC7B0A"/>
<path fill-rule="evenodd" clip-rule="evenodd" d="M307.354 1C327.403 1.50973 334.369 12.554 336.918 20.8796C337.088 21.3894 337.258 22.069 337.258 22.5788C337.258 25.1274 335.219 26.8265 332.84 27.3363C332.331 27.5062 331.481 27.5062 330.801 27.5062C328.592 27.5062 326.554 26.4867 325.534 24.108C323.665 17.6513 319.077 11.3646 307.184 10.8549V1H307.354Z" fill="#FC7B0A" stroke="#FC7B0A" stroke-width="0.6911" stroke-miterlimit="3.8637"/>
<path fill-rule="evenodd" clip-rule="evenodd" d="M340.318 69.9841C340.318 85.2762 328.594 96.6602 307.525 96.6602L307.355 86.8054C320.609 86.6354 328.764 80.1788 328.764 70.154C328.764 60.4691 323.497 56.2213 309.564 53.3328L307.525 52.8231V41.7788L311.943 42.6284C330.124 46.5363 340.318 52.8231 340.318 69.9841Z" fill="#FC7B0A" stroke="#FC7B0A" stroke-width="0.6911" stroke-miterlimit="3.8637"/>
<path fill-rule="evenodd" clip-rule="evenodd" d="M301.238 96.6602C277.451 95.4708 272.353 82.3876 269.635 73.2124C269.465 72.7027 269.465 72.1929 269.465 71.6832C269.465 69.1345 271.504 67.2655 273.883 66.7558C274.562 66.5858 275.242 66.5858 275.921 66.5858C278.13 66.5858 280.339 67.6053 281.189 70.154C283.228 77.6301 286.796 85.7858 301.408 86.8053V96.6602H301.238ZM300.559 40.9292L301.238 41.0991V52.1434L297.5 51.2938C279.829 47.5558 271.674 40.9292 271.674 25.4673C271.674 13.4035 280.339 1.67965 301.238 1V10.8549C288.835 11.5345 283.228 17.9912 283.228 25.4673C283.228 33.9628 287.306 38.3805 300.559 40.9292Z" fill="#081539"/>
</svg>
