<svg width="89" height="26" viewBox="0 0 89 26" fill="none" xmlns="http://www.w3.org/2000/svg">
<path fill-rule="evenodd" clip-rule="evenodd" d="M3.96244 14.0694H14.6795C15.4201 14.0694 15.8993 13.4595 15.8993 12.7624C15.8993 11.9782 15.4637 11.4119 14.6795 11.4119H3.96244V4.92066C3.96244 4.18005 4.2674 3.83153 5.05157 3.83153H16.1172C16.9449 3.83153 17.3806 3.22161 17.3806 2.43744C17.3806 1.65326 16.9449 1.08691 16.1172 1.08691H4.22383C2.002 1.08691 1 2.04535 1 4.48501V22.1725C1 24.5686 1.95844 25.527 4.22383 25.527H16.3785C17.2063 25.527 17.6419 24.9171 17.6419 24.133C17.6419 23.3488 17.2063 22.7824 16.3785 22.7824H5.1387C4.44166 22.7824 3.96244 22.4775 3.96244 21.7804V14.0694Z" fill="white"/>
<path fill-rule="evenodd" clip-rule="evenodd" d="M3.96244 14.0694H14.6795C15.4201 14.0694 15.8993 13.4595 15.8993 12.7624C15.8993 11.9782 15.4637 11.4119 14.6795 11.4119H3.96244V4.92066C3.96244 4.18005 4.2674 3.83153 5.05157 3.83153H16.1172C16.9449 3.83153 17.3806 3.22161 17.3806 2.43744C17.3806 1.65326 16.9449 1.08691 16.1172 1.08691H4.22383C2.002 1.08691 1 2.04535 1 4.48501V22.1725C1 24.5686 1.95844 25.527 4.22383 25.527H16.3785C17.2063 25.527 17.6419 24.9171 17.6419 24.133C17.6419 23.3488 17.2063 22.7824 16.3785 22.7824H5.1387C4.44166 22.7824 3.96244 22.4775 3.96244 21.7804V14.0694V14.0694Z" stroke="white" stroke-width="0.6501" stroke-miterlimit="3.8637"/>
<path fill-rule="evenodd" clip-rule="evenodd" d="M21.4336 22.2164C21.4336 24.5689 22.392 25.5273 24.6139 25.5273H36.5072C37.3349 25.5273 37.7706 24.8303 37.7706 24.0897C37.7706 23.3055 37.2914 22.7391 36.5072 22.7391H25.5287C24.8317 22.7391 24.396 22.3471 24.396 21.65V2.48128C24.396 1.5664 23.7861 1.17432 22.9148 1.17432C22.0871 1.17432 21.4336 1.5664 21.4336 2.52484V22.2164Z" fill="white"/>
<path fill-rule="evenodd" clip-rule="evenodd" d="M21.4336 22.2164C21.4336 24.5689 22.392 25.5273 24.6139 25.5273H36.5072C37.3349 25.5273 37.7706 24.8303 37.7706 24.0897C37.7706 23.3055 37.2914 22.7391 36.5072 22.7391H25.5287C24.8317 22.7391 24.396 22.3471 24.396 21.65V2.48128C24.396 1.5664 23.7861 1.17432 22.9148 1.17432C22.0871 1.17432 21.4336 1.5664 21.4336 2.52484V22.2164Z" stroke="white" stroke-width="0.6501" stroke-miterlimit="3.8637"/>
<path fill-rule="evenodd" clip-rule="evenodd" d="M41.5586 24.2639V2.26339C41.5586 1.39209 42.1685 1 42.9962 1C43.8676 1 44.521 1.39209 44.521 2.26339V3.09113H44.3903C43.6062 3.09113 42.9527 3.74461 42.9527 4.52879C42.9527 5.31296 43.6062 5.96644 44.3903 5.96644H44.521V24.2203C44.521 25.048 43.8676 25.4837 42.9962 25.4837C42.1685 25.5273 41.5586 25.0916 41.5586 24.2639Z" fill="white"/>
<path fill-rule="evenodd" clip-rule="evenodd" d="M41.5586 24.2639V2.26339C41.5586 1.39209 42.1685 1 42.9962 1C43.8676 1 44.521 1.39209 44.521 2.26339V3.09113H44.3903C43.6062 3.09113 42.9527 3.74461 42.9527 4.52879C42.9527 5.31296 43.6062 5.96644 44.3903 5.96644H44.521V24.2203C44.521 25.048 43.8676 25.4837 42.9962 25.4837C42.1685 25.5273 41.5586 25.0916 41.5586 24.2639Z" stroke="white" stroke-width="0.6501" stroke-miterlimit="3.8637"/>
<path fill-rule="evenodd" clip-rule="evenodd" d="M51.2314 15.4635H58.2454C63.1683 15.4635 66.0436 12.7625 66.0436 8.14455C66.0436 3.74445 63.299 1.26123 58.3761 1.26123H51.4928C49.2709 1.26123 48.3125 2.21967 48.3125 4.61576V24.2637C48.3125 25.1786 48.9224 25.6142 49.7502 25.6142C50.5779 25.6142 51.1878 25.1786 51.1878 24.3073V15.4635H51.2314ZM51.2314 12.8496V4.92072C51.2314 4.22367 51.5363 3.83158 52.2334 3.83158H58.2018C61.295 3.83158 62.994 5.35637 62.994 8.14455C62.994 11.1506 61.3385 12.806 58.2018 12.806H51.2314V12.8496Z" fill="white"/>
<path fill-rule="evenodd" clip-rule="evenodd" d="M51.2314 15.4635H58.2454C63.1683 15.4635 66.0436 12.7625 66.0436 8.14455C66.0436 3.74445 63.299 1.26123 58.3761 1.26123H51.4928C49.2709 1.26123 48.3125 2.21967 48.3125 4.61576V24.2637C48.3125 25.1786 48.9224 25.6142 49.7502 25.6142C50.5779 25.6142 51.1878 25.1786 51.1878 24.3073V15.4635H51.2314ZM51.2314 12.8496V4.92072C51.2314 4.22367 51.5363 3.83158 52.2334 3.83158H58.2018C61.295 3.83158 62.994 5.35637 62.994 8.14455C62.994 11.1506 61.3385 12.806 58.2018 12.806H51.2314V12.8496Z" stroke="white" stroke-width="0.6501" stroke-miterlimit="3.8637"/>
<path fill-rule="evenodd" clip-rule="evenodd" d="M87.9985 18.6874C87.9985 22.6083 84.9925 25.5272 79.5904 25.5272L79.5469 23.0004C82.945 22.9568 85.0361 21.3013 85.0361 18.731C85.0361 16.2477 83.6856 15.1586 80.1132 14.418L79.5904 14.2873V11.4556L80.7231 11.6734C85.3846 12.6754 87.9985 14.2873 87.9985 18.6874Z" fill="#F6A458"/>
<path fill-rule="evenodd" clip-rule="evenodd" d="M79.5475 1C84.6882 1.1307 86.4744 3.96244 87.1278 6.09714C87.1714 6.22784 87.215 6.4021 87.215 6.53279C87.215 7.18627 86.6922 7.62193 86.0823 7.75262C85.9516 7.79619 85.7337 7.79619 85.5595 7.79619C84.9931 7.79619 84.4704 7.5348 84.209 6.92488C83.7297 5.2694 82.5535 3.65748 79.5039 3.52679V1H79.5475Z" fill="#FC7B0A" stroke="#FC7B0A" stroke-width="0.6911" stroke-miterlimit="3.8637"/>
<path fill-rule="evenodd" clip-rule="evenodd" d="M87.9985 18.6874C87.9985 22.6083 84.9925 25.5272 79.5904 25.5272L79.5469 23.0004C82.945 22.9568 85.0361 21.3013 85.0361 18.731C85.0361 16.2477 83.6856 15.1586 80.1132 14.418L79.5904 14.2873V11.4556L80.7231 11.6734C85.3846 12.6754 87.9985 14.2873 87.9985 18.6874Z" fill="#FC7B0A" stroke="#FC7B0A" stroke-width="0.6911" stroke-miterlimit="3.8637"/>
<path fill-rule="evenodd" clip-rule="evenodd" d="M77.9787 25.5273C71.8796 25.2223 70.5726 21.8678 69.8756 19.5153C69.832 19.3846 69.832 19.2539 69.832 19.1232C69.832 18.4697 70.3548 17.9905 70.9647 17.8598C71.139 17.8162 71.3133 17.8162 71.4875 17.8162C72.0539 17.8162 72.6202 18.0776 72.838 18.7311C73.3608 20.6479 74.2757 22.7391 78.0223 23.0005V25.5273H77.9787ZM77.8045 11.2378L77.9787 11.2814V14.1132L77.0203 13.8953C72.4895 12.9369 70.3984 11.2378 70.3984 7.2734C70.3984 4.18027 72.6202 1.17426 77.9787 1V3.52679C74.7985 3.70105 73.3608 5.35653 73.3608 7.2734C73.3608 9.45167 74.4064 10.5844 77.8045 11.2378Z" fill="white"/>
<path fill-rule="evenodd" clip-rule="evenodd" d="M77.9787 25.5273C71.8796 25.2223 70.5726 21.8678 69.8756 19.5153C69.832 19.3846 69.832 19.2539 69.832 19.1232C69.832 18.4697 70.3548 17.9905 70.9647 17.8598C71.139 17.8162 71.3133 17.8162 71.4875 17.8162C72.0539 17.8162 72.6202 18.0776 72.838 18.7311C73.3608 20.6479 74.2757 22.7391 78.0223 23.0005V25.5273H77.9787ZM77.8045 11.2378L77.9787 11.2814V14.1132L77.0203 13.8953C72.4895 12.9369 70.3984 11.2378 70.3984 7.2734C70.3984 4.18027 72.6202 1.17426 77.9787 1V3.52679C74.7985 3.70105 73.3608 5.35653 73.3608 7.2734C73.3608 9.45167 74.4064 10.5844 77.8045 11.2378Z" stroke="white" stroke-width="0.6501" stroke-miterlimit="3.8637"/>
</svg>
