<svg width="198" height="70" viewBox="0 0 198 70" fill="none" xmlns="http://www.w3.org/2000/svg">
<path d="M1.0174 13.3535L45.8998 13.4995V26.7715C46.0459 27.6381 44.9153 27.4874 44.7458 26.6302C44.3124 24.4638 40.5675 19.2689 39.842 18.8356H21.0751V34.9994H36.8037C37.9625 34.5661 39.8043 31.3965 40.9961 28.2127C41.4248 27.0635 42.3057 27.7841 42.2915 28.0761C42.0042 33.2663 42.0749 42.7799 42.1502 46.6843C42.1728 48.1396 41.4248 48.5634 40.9961 47.2636C40.5675 45.9684 38.3959 41.4941 36.9544 40.3356H21.0751V58.8071H41.4248C42.5789 57.9452 45.5607 51.4223 45.8998 49.7173C46.0459 48.9967 47.2 48.9967 47.2 49.5713V64.8685L15.3046 64.4352C8.81342 64.4352 7.22124 64.4352 1.0174 65.0145C-8.78274e-05 65.1087 0.0234652 63.6157 0.725342 63.2813C7.79593 59.9657 8.66739 61.8355 8.66739 51.7378V24.1765C8.66739 16.6739 6.50994 16.9659 0.725342 14.7947C0.122387 14.5686 0.442707 13.4995 1.0174 13.3535ZM56.8708 13.0615L77.7952 13.4995L93.8159 46.397L110.416 13.9328H124.562C125.716 13.9328 130.196 13.4995 130.912 13.3535C131.637 13.2075 131.779 14.6534 131.198 14.9407C130.619 15.228 123.689 18.1151 122.973 19.1277L127.156 59.2404C127.736 60.5403 134.788 63.5168 135.956 63.7146C136.827 63.8606 136.559 64.8968 136.103 64.8685C131.637 64.5812 111.448 64.5812 107.095 64.8685C106.662 64.8949 104.839 64.1856 106.807 63.5686C109.115 62.8528 113.736 61.2609 114.744 59.5277L111.857 24.6098L91.9402 64.8685H88.6239L70.4363 25.4764L67.2614 59.2404C68.5615 61.8355 74.6241 62.994 75.3448 63.2813C76.0608 63.5686 76.0608 64.6425 75.4861 64.5812C71.1571 64.1479 54.9856 64.4352 53.2663 64.7272C52.3948 64.8685 50.8262 63.7712 52.8282 63.1353C58.4809 61.3504 60.3368 62.994 61.6323 49.8633L65.0993 21.0021C65.5279 16.2406 59.4795 15.6613 56.7285 14.6534C56.3187 14.5027 55.8571 13.0615 56.8699 13.0615" fill="#00478C"/>
<path d="M177.567 26.3386L178 13.0619C172.074 12.346 157.471 9.94406 145.379 18.836C132.84 28.0624 129.415 51.6534 145.671 62.2738C156.492 69.3431 176.267 64.4356 177.713 63.715C178.288 63.4277 179.008 62.9944 179.008 62.4151C179.008 61.8358 179.153 50.005 179.153 49.4304C179.153 48.8558 178.287 48.9971 177.853 49.5717C177.425 50.151 175.206 58.6096 173.091 59.674C168.437 62.0242 157.372 63.5125 151.587 51.7382C147.781 43.9859 147.668 33.4786 153.17 23.8896C158.898 13.9191 169.629 16.7779 170.929 17.5408C173.378 18.982 174.886 22.1799 175.978 26.202C176.412 27.7845 177.425 27.4972 177.566 26.3386H177.567ZM181.613 6.2846C187.666 0.65648 193.013 2.67695 194.883 4.55142C196.762 6.42589 197.997 10.5375 193.592 14.9411C191.421 17.1075 186.946 20.5692 186.946 20.5692H193.875C194.596 20.4232 195.863 17.9506 196.329 17.2488C196.621 16.8203 196.904 16.9615 196.904 17.5408V24.8974C194.883 24.7514 182.909 24.7514 181.034 24.7514V22.3024C184.204 19.8486 187.238 16.387 189.546 13.4999C191.854 10.6128 191.477 2.91715 183.342 7.43848C182.042 8.15907 181.175 7.43848 181.613 6.2846Z" fill="#00478C"/>
</svg>
