<svg width="1440" height="208" viewBox="0 0 1440 208" fill="none" xmlns="http://www.w3.org/2000/svg">
<mask id="mask0_341_12612" style="mask-type:alpha" maskUnits="userSpaceOnUse" x="0" y="0" width="1440" height="208">
<rect width="1440" height="208" fill="#081539"/>
</mask>
<g mask="url(#mask0_341_12612)">
<path d="M0.0507812 247.461C58.9673 247.373 121.099 249.553 179.397 244.523C261.75 237.436 340.518 220.223 422.402 211.69C486.751 204.979 534.324 212.965 589.286 232.682C630.957 247.632 673.956 265.902 724.594 267.142C784.509 268.606 842.427 244.194 895.232 230.378C922.893 223.138 953.4 215.504 984.296 217.185C1013.26 218.76 1040.39 227.363 1064.6 236.284C1112.88 254.078 1162.1 280.494 1223 278.137C1297.47 275.246 1362.98 249.718 1437.98 247.461" stroke="#FC7B0A" stroke-opacity="0.35" stroke-miterlimit="10"/>
<path d="M0.0585938 239.904C57.5671 239.798 118.78 241.978 175.59 236.578C260.629 228.485 341.515 209.457 425.935 199.784C458.08 196.105 488.546 193.978 520.032 200.43C545.686 205.69 568.254 214.922 590.023 224.254C628.967 240.938 670.079 262.335 720.598 264.01C782.71 266.073 845.281 237.236 898.945 222.009C927.085 214.023 959.469 204.773 991.544 206.73C1020.63 208.493 1047.4 218.407 1070.58 228.198C1116.3 247.497 1164.93 278.043 1226.15 275.087C1300.36 271.497 1363.15 242.807 1438.02 239.874" stroke="#FC7B0A" stroke-opacity="0.35" stroke-miterlimit="10"/>
<path d="M0.0703125 232.47C56.3705 232.359 116.755 234.527 172.256 228.88C259.453 220.006 341.876 199.344 428.423 188.76C460.678 184.816 491.055 182.372 522.38 189.694C547.794 195.671 569.454 205.925 590.164 216.174C626.822 234.292 666.216 258.374 716.985 260.402C749.429 261.701 782.052 251.74 810.073 243.307C841.159 233.951 871.046 223.291 902.122 213.924C930.682 205.32 964.634 194.766 997.787 196.969C1027.09 198.915 1053.44 209.839 1075.79 220.358C1119.4 240.927 1167.12 274.929 1228.93 271.485C1303 267.372 1363.17 235.826 1438.03 232.447" stroke="#FC7B0A" stroke-opacity="0.35" stroke-miterlimit="10"/>
<path d="M0.078125 225.171C55.3698 225.06 115.115 227.234 169.548 221.481C258.282 212.108 341.664 190.035 429.659 178.793C461.764 174.679 492.371 172.052 523.377 179.898C548.761 186.321 569.771 197.457 589.733 208.411C624.863 227.681 662.769 253.761 714.156 256.012C747.489 257.458 781.062 246.668 809.521 237.748C841.646 227.669 872.432 216.198 904.557 206.108C933.516 197.005 968.466 185.622 1002.51 187.943C1032.12 189.964 1058.02 201.571 1079.76 212.695C1122.03 234.316 1168.28 270.757 1231.08 267.084C1305.16 262.753 1363.03 228.674 1438.04 225.195" stroke="#FC7B0A" stroke-opacity="0.35" stroke-miterlimit="10"/>
<path d="M0.101562 218.002C54.6143 217.908 113.99 220.123 167.624 214.417C257.107 204.897 340.719 181.667 429.393 170.119C461.058 166.005 492.234 163.326 522.801 171.224C548.395 177.835 569.115 189.571 588.708 200.989C623.279 221.169 660.066 248.296 712.532 250.482C746.604 251.904 780.266 241.003 809.125 231.677C841.929 221.099 873.284 209.04 906.078 198.45C935.406 188.977 970.507 177.412 1005.25 179.716C1035.2 181.702 1060.67 193.52 1082.14 205.12C1124.08 227.775 1168.13 265.139 1232.4 261.501C1306.66 257.299 1362.78 221.122 1438.1 218.014" stroke="#FC7B0A" stroke-opacity="0.35" stroke-miterlimit="10"/>
<path d="M0.109375 210.95C54.4224 210.75 113.609 213.242 167.013 207.424C255.887 197.721 338.43 173.798 426.405 161.98C457.981 157.743 489.136 155.204 519.683 163.008C545.646 169.655 566.777 181.531 586.658 193.091C621.868 213.565 659.046 241.038 712.2 243.6C746.512 245.252 779.974 234.486 808.963 225.013C841.817 214.27 873.112 201.976 905.956 191.228C935.424 181.578 970.345 170.172 1005.35 172.64C1035.5 174.767 1060.82 186.609 1082.33 198.338C1124.44 221.31 1167.65 258.18 1232.42 254.754C1306.9 250.829 1362.44 213.665 1438.07 210.95" stroke="#FC7B0A" stroke-opacity="0.35" stroke-miterlimit="10"/>
<path d="M0.121094 204.056C54.6638 203.692 113.67 206.836 167.264 200.613C254.561 190.475 335.246 166.158 421.614 153.923C453.569 149.392 483.906 147.035 514.892 154.892C541.324 161.586 563.203 173.339 583.814 184.799C620.192 205.049 658.938 232.799 712.092 236.296C746.194 238.541 779.776 227.745 808.516 218.278C840.97 207.588 871.796 195.282 904.24 184.581C933.648 174.879 968.569 163.56 1003.52 166.493C1033.59 169.014 1059.27 181.026 1081.08 192.626C1123.41 215.134 1167.87 251.31 1231.87 247.984C1306.52 244.1 1362.24 206.724 1438.05 204.056" stroke="#FC7B0A" stroke-opacity="0.35" stroke-miterlimit="10"/>
<path d="M0.140625 197.281C54.9929 196.846 113.84 200.866 167.763 194.278C253.282 183.83 331.861 159.195 416.411 146.677C448.635 141.894 478.263 139.76 509.599 147.518C536.441 154.164 559.198 165.612 580.578 176.983C618.175 196.964 658.707 224.614 711.812 228.956C745.604 231.724 778.927 221.152 807.407 211.726C839.312 201.148 869.489 188.919 901.374 178.347C930.692 168.627 965.283 157.631 1000.07 160.981C1030.17 163.884 1056.31 175.949 1078.61 187.426C1121.5 209.464 1167.42 244.735 1230.93 241.456C1305.91 237.589 1361.94 199.973 1438.08 197.316" stroke="#FC7B0A" stroke-opacity="0.35" stroke-miterlimit="10"/>
<path d="M0.160156 190.634C55.3919 190.217 114.209 195.3 168.512 188.378C252.073 177.735 328.365 152.847 410.928 140.113C443.282 135.123 472.351 133.249 503.946 140.783C531.268 147.294 554.874 158.413 577.083 169.578C616.247 189.2 658.198 216.45 711.452 221.593C744.845 224.813 777.579 214.699 805.779 205.338C836.984 194.971 866.393 182.848 897.579 172.47C926.787 162.744 960.709 152.295 995.29 156.015C1025.53 159.276 1052.21 171.294 1075.18 182.613C1118.92 204.162 1166.48 238.353 1229.65 235.091C1305.09 231.195 1361.55 193.326 1438.15 190.652" stroke="#FC7B0A" stroke-opacity="0.35" stroke-miterlimit="10"/>
<path d="M0.167969 184.117C55.8491 183.788 114.646 190.094 169.438 182.871C250.903 172.135 324.768 147.024 405.204 134.218C437.538 129.059 466.208 127.454 497.963 134.659C525.773 140.971 550.209 151.702 573.326 162.526C614.268 181.702 657.497 208.3 710.951 214.182C775.46 221.287 840.647 184.311 892.923 166.881C922.022 157.173 955.025 147.447 989.307 151.519C1019.78 155.145 1047.02 167.045 1070.78 178.194C1115.64 199.238 1164.97 232.206 1227.98 228.927C1303.98 224.978 1360.98 186.832 1438.13 184.117" stroke="#FC7B0A" stroke-opacity="0.35" stroke-miterlimit="10"/>
<path d="M0.191406 177.735C56.3618 177.553 115.168 185.21 170.53 177.735C249.808 166.993 321.127 141.764 399.326 128.918C431.55 123.629 459.94 122.312 491.785 129.1C520.105 135.147 545.389 145.402 569.415 155.886C612.134 174.515 656.651 200.225 710.375 206.836C773.905 214.641 836.287 178.734 887.594 161.586C915.964 152.119 949.037 142.575 982.38 147.453C1013.34 151.978 1040.61 162.95 1065.71 174.115C1111.86 194.625 1163.08 226.259 1226.09 222.944C1302.75 218.919 1360.35 180.485 1438.15 177.694" stroke="#FC7B0A" stroke-opacity="0.35" stroke-miterlimit="10"/>
<path d="M0.210938 171.477C56.9106 171.477 115.777 180.603 171.758 172.852C248.779 162.186 317.481 136.851 393.374 124.075C525.187 101.868 593.95 183.853 709.736 199.543C772.147 208.012 831.373 173.398 881.752 156.597C909.992 147.194 941.787 138.632 974.71 143.786C1006.06 148.693 1033.97 159.424 1060.08 170.378C1107.66 190.358 1160.88 220.552 1224.02 217.185C1301.38 213.071 1359.66 174.338 1438.18 171.477" stroke="#FC7B0A" stroke-opacity="0.35" stroke-miterlimit="10"/>
<path d="M0.230469 165.353C57.4794 165.6 116.446 176.225 173.096 168.244C247.82 157.719 313.896 132.326 387.422 119.662C516.509 97.4363 595.128 175.49 709.046 192.303C770.379 201.365 826.05 168.285 875.51 151.807C903.631 142.44 934.037 135.006 966.491 140.395C998.256 145.684 1026.88 156.144 1054.04 166.869C1103.15 186.262 1158.39 215.005 1221.8 211.561C1299.92 207.324 1358.94 168.309 1438.21 165.353" stroke="#FC7B0A" stroke-opacity="0.35" stroke-miterlimit="10"/>
<path d="M0.25 159.359C58.0681 159.858 117.154 172.035 174.513 163.855C246.95 153.523 310.321 128.101 381.57 115.607C507.921 93.4464 596.265 167.234 708.337 185.169C768.571 194.807 820.458 163.355 869.049 147.2C897.069 137.886 925.968 131.645 957.923 137.21C990.127 142.846 1019.49 153.077 1047.73 163.537C1098.41 182.343 1155.69 209.587 1219.42 206.067C1298.31 201.7 1358.11 162.391 1438.17 159.335" stroke="#FC7B0A" stroke-opacity="0.35" stroke-miterlimit="10"/>
<path d="M0.269531 153.494C58.6468 154.252 117.903 167.986 176.021 159.635C246.221 149.539 306.975 124.105 375.927 111.823C499.592 89.7909 597.383 159.147 707.617 178.158C766.764 188.36 814.756 158.583 862.518 142.74C890.418 133.484 917.909 128.471 949.335 134.236C981.989 140.23 1012.12 150.203 1041.41 160.405C1093.69 178.623 1152.99 204.362 1217.12 200.754C1296.83 196.264 1357.37 156.679 1438.23 153.494" stroke="#FC7B0A" stroke-opacity="0.35" stroke-miterlimit="10"/>
<path d="M0.289062 147.764C59.2056 148.775 118.661 164.031 177.448 155.539C245.492 145.708 303.679 120.279 370.435 108.238C491.653 86.3768 598.511 151.22 706.958 171.295C765.025 182.049 809.113 153.947 856.096 138.385C883.877 129.188 910.02 125.404 940.846 131.333C973.949 137.692 1004.84 147.435 1035.18 157.355C1089 174.95 1150.27 199.238 1214.84 195.553C1295.35 190.94 1356.64 151.032 1438.29 147.776" stroke="#FC7B0A" stroke-opacity="0.35" stroke-miterlimit="10"/>
<path d="M0.308594 142.158C59.8143 143.409 119.41 160.129 178.916 151.519C244.912 141.97 300.643 116.559 365.321 104.776C484.213 83.115 599.619 143.456 706.248 164.595C763.347 175.913 803.491 149.368 849.825 134.118C877.516 125.01 902.291 122.365 932.598 128.465C966.13 135.188 997.765 144.738 1029.1 154.369C1084.39 171.359 1147.55 194.219 1212.57 190.44C1293.85 185.71 1355.85 145.513 1438.25 142.158" stroke="#FC7B0A" stroke-opacity="0.35" stroke-miterlimit="10"/>
<path d="M0.328125 136.686C60.393 138.144 120.158 156.238 180.333 147.541C244.442 138.279 297.867 112.868 360.608 101.362C421.471 90.1961 486.22 102.802 543.069 116.271C597.891 129.264 650.008 146.306 705.649 158.089C762.029 170.031 797.988 144.737 843.973 129.881C905.036 110.165 967.578 135.17 1023.47 151.384C1080.1 167.792 1145.04 189.288 1210.48 185.427C1292.48 180.597 1355.16 140.118 1438.29 136.681" stroke="#FC7B0A" stroke-opacity="0.35" stroke-miterlimit="10"/>
<path d="M0.347656 131.338C60.9718 132.966 120.747 152.312 181.691 143.55C244.092 134.571 295.39 109.178 356.443 97.9238C416.748 86.7934 483.204 98.8817 540.323 111.217C596.253 123.299 649.488 139.254 705.119 151.807C760.75 164.359 793.244 140.306 838.64 125.662C898.315 106.416 963.463 133.301 1018.39 148.375C1076.2 164.242 1142.79 184.434 1208.6 180.52C1291.23 175.601 1354.53 134.853 1438.27 131.338" stroke="#FC7B0A" stroke-opacity="0.35" stroke-miterlimit="10"/>
<path d="M0.367188 126.127C61.5605 127.89 121.286 148.317 182.938 139.502C243.852 130.799 293.262 105.417 352.698 94.3809C412.543 83.3033 480.517 94.898 537.896 106.211C594.815 117.441 649.118 132.438 704.659 145.761C730.862 152.043 750.065 152.301 775.399 144.197C795.99 137.61 813.405 128.042 833.966 121.408C861.397 112.546 883.246 112.792 911.975 119.38C946.497 127.308 980.129 136.423 1014 145.279C1072.79 160.605 1140.82 179.622 1206.93 175.673C1290.13 170.701 1353.96 129.682 1438.3 126.127" stroke="#FC7B0A" stroke-opacity="0.35" stroke-miterlimit="10"/>
<path d="M0.390625 121.037C62.1531 122.8 121.699 144.202 184.07 135.358C243.776 126.89 291.498 101.414 349.736 90.6602C409.271 79.6649 478.493 90.7777 536.102 101.238C593.71 111.699 649.022 125.92 704.383 140.024C729.967 146.541 748.67 147.464 773.785 139.401C793.697 133.007 810.313 123.569 830.175 117.129C857.456 108.278 878.966 109.219 907.196 116.024C941.887 124.386 976.038 133.483 1010.55 142.093C1070.07 156.937 1139.44 174.896 1205.64 170.935C1289.3 165.934 1353.56 124.668 1438.31 121.09" stroke="#FC7B0A" stroke-opacity="0.35" stroke-miterlimit="10"/>
<path d="M0.410156 116.089C62.7518 117.805 121.958 139.948 185.029 131.08C243.845 122.8 290.08 97.1307 347.508 86.6938C406.964 75.8748 476.935 86.4822 534.903 96.1963C593.34 105.981 649.131 119.609 704.263 134.489C729.327 141.247 747.821 142.669 772.746 134.606C792.118 128.347 808.066 118.968 827.378 112.651C854.53 103.771 876.02 105.211 903.82 112.275C938.561 121.09 973.112 130.21 1008.15 138.637C1068.07 153.053 1138.59 170.083 1204.74 166.152C1288.73 161.157 1353.3 119.656 1438.41 116.089" stroke="#FC7B0A" stroke-opacity="0.35" stroke-miterlimit="10"/>
<path d="M0.429688 111.265C63.3406 112.822 122.037 135.5 185.807 126.609C244.015 118.493 289.25 92.712 345.99 82.3984C405.256 71.6324 476.146 82.0105 534.263 91.1194C593.3 100.375 649.34 113.633 704.213 129.318C728.868 136.37 747.461 138.074 772.256 129.958C791.229 123.747 806.677 114.362 825.621 108.091C852.672 99.1352 874.461 100.828 901.932 108.215C936.603 117.535 971.414 126.72 1006.84 135.006C1066.94 149.057 1138.28 165.324 1204.16 161.451C1288.35 156.509 1353.08 114.785 1438.39 111.265" stroke="#FC7B0A" stroke-opacity="0.35" stroke-miterlimit="10"/>
<path d="M0.460938 106.563C63.6913 107.962 121.979 130.887 186.138 121.913C244.146 113.803 289.112 88.0458 345.672 77.7911C404.878 67.0603 476.087 77.65 534.225 86.5649C593.471 95.6502 649.332 108.808 704.274 124.563C728.839 131.615 747.692 133.085 772.317 125.022C791.161 118.851 806.509 109.549 825.352 103.36C852.314 94.5102 874.503 96.1556 901.714 103.754C936.235 113.392 971.086 122.648 1006.67 130.851C1066.47 144.644 1138.74 160.728 1204.12 156.709C1288.19 151.549 1353.33 110.53 1438.42 106.581" stroke="#FC7B0A" stroke-opacity="0.35" stroke-miterlimit="10"/>
<path d="M0.480469 101.938C63.8507 103.266 121.968 126.344 186.277 117.264C244.195 109.084 289.391 83.5441 345.991 73.354C405.197 62.6938 476.246 73.7477 534.294 82.7214C593.351 91.8537 648.972 104.988 704.293 119.997C756.659 134.201 782.612 112.357 825.741 98.7352C852.703 90.22 875.031 91.7714 901.993 99.3993C936.365 109.125 971.155 118.357 1006.72 126.467C1066.18 140.019 1139.39 156.179 1204.29 151.819C1288.01 146.189 1353.95 106.839 1438.47 102.026" stroke="#FC7B0A" stroke-opacity="0.35" stroke-miterlimit="10"/>
<path d="M0.5 97.3836C64.0599 98.6648 122.038 121.913 186.546 112.757C244.464 104.53 289.84 79.2601 346.47 69.164C405.676 58.586 476.516 70.0631 534.473 79.0661C593.3 88.2043 648.712 101.28 704.353 115.531C756.279 128.835 783.161 107.38 826.32 94.3748C853.282 86.2298 875.81 87.7342 902.532 95.3738C936.743 105.153 971.434 114.314 1006.99 122.283C1066.21 135.558 1140.15 151.549 1204.51 146.894C1287.81 140.877 1354.56 103.237 1438.46 97.6598" stroke="#FC7B0A" stroke-opacity="0.35" stroke-miterlimit="10"/>
<path d="M0.519531 92.9113C64.2992 94.1572 122.187 117.593 186.935 108.396C244.783 100.181 290.429 75.1991 347.099 65.2088C406.305 54.8071 476.915 66.5721 534.763 75.5811C593.31 84.6899 648.601 97.6655 704.442 111.129C755.999 123.546 783.8 102.567 827.068 90.1669C854.1 82.4274 876.798 83.9318 903.32 91.5656C937.342 101.362 971.963 110.418 1007.46 118.199C1066.53 131.157 1140.91 146.753 1204.84 141.858C1287.73 135.517 1355.25 99.646 1438.51 93.3814" stroke="#FC7B0A" stroke-opacity="0.35" stroke-miterlimit="10"/>
<path d="M0.539062 88.5158C64.5883 89.7499 122.366 113.368 187.444 104.165C245.242 95.9967 291.167 71.2972 347.887 61.5067C407.073 51.2872 477.324 63.3167 535.152 72.2962C593.379 81.3463 648.501 94.1867 704.572 106.839C755.739 118.387 784.518 97.9595 827.987 86.2298C855.108 78.9075 877.986 80.4648 904.339 88.075C938.094 97.9211 972.733 106.682 1008.1 114.32C1067.12 126.92 1141.71 141.94 1205.27 136.822C1287.62 130.222 1355.97 96.1613 1438.5 89.3032" stroke="#FC7B0A" stroke-opacity="0.35" stroke-miterlimit="10"/>
<path d="M0.570312 84.2018C64.9091 85.4359 122.667 109.26 188.065 100.069C245.813 91.9649 292.047 67.5943 348.837 58.0036C408.003 48.0133 477.954 60.2309 535.672 69.1693C593.59 78.1253 648.562 90.7895 704.763 102.619C755.551 113.315 785.368 93.4928 829.096 82.4741C856.348 75.6042 879.395 77.2497 905.598 84.8247C939.151 94.6057 973.663 103.203 1008.95 110.57C1068 122.776 1142.58 136.98 1205.8 131.726C1287.62 124.927 1356.75 92.7288 1438.56 85.336" stroke="#FC7B0A" stroke-opacity="0.35" stroke-miterlimit="10"/>
<path d="M0.589844 79.9826C65.2582 81.2226 123.006 105.252 188.773 96.1317C246.481 88.1277 293.045 64.1097 349.855 54.7482C408.991 45.0047 478.573 57.3692 536.241 66.2312C593.729 75.0462 648.682 87.5106 704.942 98.5C755.37 108.355 786.287 89.209 830.314 78.9366C857.715 72.5428 880.942 74.3116 907.035 81.8749C940.359 91.5623 974.716 99.966 1009.89 107.033C1069.04 118.786 1143.39 132.044 1206.34 126.667C1287.59 119.732 1357.47 89.4323 1438.54 81.5869" stroke="#FC7B0A" stroke-opacity="0.35" stroke-miterlimit="10"/>
<path d="M0.609375 75.8455C65.6372 77.1148 123.435 101.374 189.582 92.3001C247.25 84.4371 294.153 60.8013 351.023 51.6925C410.119 42.2311 479.321 54.6837 536.86 63.4458C593.949 72.1432 648.841 84.3255 705.121 94.4686C755.2 103.489 787.275 85.0659 831.632 75.581C859.203 69.7044 882.61 71.6084 908.623 79.107C941.725 88.6796 975.939 96.8588 1011.01 103.583C1070.34 114.884 1144.28 127.019 1207 121.548C1287.66 114.496 1358.26 86.1649 1438.57 77.9141" stroke="#FC7B0A" stroke-opacity="0.35" stroke-miterlimit="10"/>
<path d="M0.628906 71.8028C66.0462 73.1074 123.834 97.6013 190.47 88.6512C248.098 80.9057 295.371 57.6694 352.301 48.8427C411.347 39.6927 480.12 52.1865 537.578 60.837C594.268 69.3757 649.11 81.2525 705.34 90.5376C755.08 98.7649 788.383 81.0938 833.089 72.4257C860.85 67.0486 884.437 69.1583 910.39 76.5394C943.261 85.9668 977.313 93.8961 1012.25 100.258C1071.81 111.041 1145.15 121.925 1207.69 116.389C1287.75 109.337 1359.01 82.9508 1438.57 74.3591" stroke="#FC7B0A" stroke-opacity="0.35" stroke-miterlimit="10"/>
<path d="M0.648438 67.8593C66.4752 69.211 124.323 93.94 191.378 85.1132C249.037 77.55 296.679 54.7132 353.678 46.1921C412.665 37.3771 480.958 49.865 538.416 58.3862C594.687 66.7428 649.489 78.2787 705.659 86.6999C755.06 94.1104 789.66 77.262 834.737 69.4519C862.697 64.6095 886.453 66.925 912.387 74.2708C945.019 83.5327 978.9 91.1849 1013.68 97.1486C1073.48 107.38 1146.08 116.924 1208.48 111.323C1287.9 104.23 1359.81 79.9006 1438.61 71.0151" stroke="#FC7B0A" stroke-opacity="0.35" stroke-miterlimit="10"/>
<path d="M0.667969 64.0333C66.9041 65.426 124.822 90.3901 192.466 81.7103C250.035 74.3174 298.077 51.9273 355.136 43.7294C414.052 35.2611 481.876 47.7196 539.205 56.0704C595.066 64.2272 649.828 75.3811 705.879 82.9444C754.969 89.5733 790.938 73.5417 836.364 66.6307C864.524 62.3349 888.47 64.8677 914.413 72.1607C946.799 81.2374 980.499 88.591 1015.11 94.1336C1075.3 103.771 1146.99 111.822 1209.3 106.234C1288.1 99.1816 1360.58 76.8973 1438.63 67.7591" stroke="#FC7B0A" stroke-opacity="0.35" stroke-miterlimit="10"/>
<path d="M0.691406 60.2723C67.4069 61.7473 125.435 86.9523 193.558 78.4371C251.117 71.2499 299.578 49.3065 356.677 41.4494C415.544 33.3572 482.858 45.7452 540.107 53.9549C595.549 61.906 650.271 72.6368 706.172 79.3421C754.973 85.2187 792.36 70.0511 838.125 64.0628C866.495 60.3311 890.62 63.1342 916.604 70.3273C948.743 79.2004 982.256 86.2358 1016.68 91.3363C1077.24 100.339 1147.94 106.845 1210.16 101.25C1288.35 94.2277 1361.34 74.0707 1438.65 64.7209" stroke="#FC7B0A" stroke-opacity="0.35" stroke-miterlimit="10"/>
<path d="M0.710938 56.6351C67.9057 58.1866 126.033 83.6325 194.726 75.3053C252.235 68.3297 301.085 46.8505 358.284 39.3518C417.071 31.6416 483.866 43.9415 541.025 51.969C596.067 59.6969 650.72 69.9752 706.441 75.8225C754.992 80.9175 793.827 66.6666 839.942 61.5715C868.511 58.4157 892.807 61.4951 918.88 68.6235C950.769 77.276 984.088 83.9716 1018.31 88.6042C1079.22 96.9256 1148.84 101.815 1211.04 96.2439C1288.62 89.3035 1362.07 71.2739 1438.67 61.7361" stroke="#FC7B0A" stroke-opacity="0.35" stroke-miterlimit="10"/>
<path d="M0.730469 53.1088C68.3946 54.7425 126.672 80.4294 195.894 72.302C253.412 65.5497 302.673 44.5465 359.942 37.4181C418.648 30.1134 484.914 42.2899 542.034 50.1294C596.686 57.6339 651.259 67.4185 706.8 72.4137C755.142 76.7565 795.454 63.4341 841.899 59.2793C870.678 56.6995 895.143 60.0727 921.316 67.0953C952.957 75.524 986.08 81.8739 1020.09 86.0299C1081.41 93.6284 1149.84 96.8488 1212.01 91.3189C1288.91 84.4667 1362.8 68.6115 1438.69 58.915" stroke="#FC7B0A" stroke-opacity="0.35" stroke-miterlimit="10"/>
<path d="M0.75 49.6947C68.9034 51.4166 127.331 77.3149 197.122 69.4343C254.64 62.9171 304.31 42.39 361.649 35.6495C420.276 28.7739 486.002 40.7975 543.052 48.4371C597.335 55.7065 651.808 64.9681 707.109 69.117C755.281 72.7311 797.062 60.3549 843.806 57.1404C872.764 55.1482 897.42 58.827 923.692 65.7614C955.087 73.9503 988.011 79.9367 1021.78 83.597C1083.5 90.4316 1150.72 91.9536 1212.89 86.4648C1289.22 79.7302 1363.41 66.067 1438.64 56.2295" stroke="#FC7B0A" stroke-opacity="0.35" stroke-miterlimit="10"/>
<path d="M0.769531 46.4034C69.4223 48.2134 128.019 74.3763 198.37 66.7014C255.878 60.4193 305.987 40.3857 363.396 34.0624C421.923 27.5981 487.1 39.4866 544.14 46.9147C598.063 53.9667 652.416 62.6583 707.488 65.9668C755.57 68.8581 798.779 57.4457 845.882 55.1773C875.051 53.7728 899.806 57.7748 926.328 64.6152C957.481 72.5602 990.203 78.175 1023.73 81.3284C1164.53 95.0151 1302.5 71.9258 1438.78 53.7081" stroke="#FC7B0A" stroke-opacity="0.35" stroke-miterlimit="10"/>
<path d="M0.789062 43.2185C69.9511 45.1285 128.718 71.5206 199.647 64.0866C257.156 58.0571 307.694 38.5231 365.173 32.57C423.6 26.517 488.228 38.2586 545.148 45.4693C598.762 52.2804 652.955 60.4078 707.777 62.8584C755.849 65.0269 800.416 54.631 847.869 53.2794C877.207 52.4567 902.172 56.8054 928.844 63.546C959.641 71.3796 992.344 76.3747 1025.55 79.1368C1162.76 90.5551 1305.88 69.358 1438.75 51.2637" stroke="#FC7B0A" stroke-opacity="0.35" stroke-miterlimit="10"/>
<path d="M0.808594 40.1625C70.4799 42.1724 129.426 68.7936 200.935 61.6065C258.454 55.8062 309.411 36.7952 366.96 31.2418C425.287 25.6178 489.356 37.2007 546.216 44.1704C599.54 50.7229 653.544 58.2744 708.116 59.9257C756.278 61.3832 802.103 51.9687 849.916 51.575C879.424 51.3341 904.548 56.0236 931.43 62.6819C962.027 70.2569 994.511 74.8231 1027.43 77.0915C1090.16 81.4108 1153.76 77.732 1215.96 72.4489C1290.59 66.108 1365.34 59.15 1438.77 48.9423" stroke="#FC7B0A" stroke-opacity="0.35" stroke-miterlimit="10"/>
<path d="M0.828125 37.2295C70.4095 39.304 129.276 65.9722 200.715 59.4021C258.004 54.1131 309.061 35.8426 366.161 30.301C423.879 24.7005 486.66 35.8133 543.02 42.5244C597.503 48.9887 652.695 56.2111 708.466 57.1161C757.975 57.9212 806.217 49.0239 855.617 50.0641C885.435 50.6929 910.29 56.4285 937.621 62.7988C966.011 69.4159 995.988 73.2063 1026.31 74.9987C1090.83 78.8126 1154.83 73.1887 1218.59 67.8821C1292.19 61.7586 1366.44 57.0456 1438.82 46.8085" stroke="#FC7B0A" stroke-opacity="0.35" stroke-miterlimit="10"/>
<path d="M0.839844 34.4267C70.9006 36.601 130.007 63.4926 201.975 57.1752C259.274 52.1448 310.741 34.3562 367.93 29.22C425.528 24.072 487.81 35.0261 544.09 41.5198C598.313 47.7843 653.295 54.4484 708.777 54.4484C758.576 54.4484 807.886 46.7324 857.696 48.7011C887.553 49.8764 912.618 55.9411 940.159 62.1762C968.359 68.5582 998.137 71.9491 1028.19 73.2889C1092.93 76.1744 1155.82 68.7522 1219.57 63.5925C1292.69 57.6747 1366.93 55.1536 1438.8 44.7872" stroke="#FC7B0A" stroke-opacity="0.35" stroke-miterlimit="10"/>
<path d="M0.859375 31.7586C71.4494 34.0329 130.675 61.142 203.253 55.0714C260.571 50.276 312.438 32.9869 369.707 28.2503C427.185 23.4843 488.978 34.362 545.228 40.6442C599.152 46.6795 653.924 52.7442 709.116 51.8862C759.275 51.1046 809.554 44.5463 859.782 47.4317C889.68 49.1536 914.944 55.5415 942.665 61.6415C970.625 67.7944 1000.26 70.7856 1030.04 71.673C1094.95 73.6182 1156.8 64.4329 1220.53 59.4143C1293.19 53.6904 1367.32 53.373 1438.77 42.8773" stroke="#FC7B0A" stroke-opacity="0.35" stroke-miterlimit="10"/>
<path d="M0.878906 29.2263C71.9582 31.5769 131.434 58.9151 204.52 53.0972C261.849 48.531 314.115 31.7121 371.474 27.3986C428.833 23.0852 490.126 33.8159 546.226 39.8806C600.02 45.6985 654.533 51.1931 709.425 49.4713C760.023 47.8846 811.161 42.5016 861.809 46.292C891.767 48.531 917.211 55.2657 945.191 61.2246C973.171 67.1835 1002.43 69.7457 1031.93 70.1923C1096.84 71.1855 1157.87 60.2784 1221.53 55.4008C1293.77 49.865 1367.84 51.7456 1438.81 41.0971" stroke="#FC7B0A" stroke-opacity="0.35" stroke-miterlimit="10"/>
<path d="M0.890625 26.8282C72.4592 29.2964 132.145 56.7992 205.75 51.2516C263.109 46.9088 315.754 30.601 373.193 26.6519C430.392 22.7204 491.306 33.3807 547.306 39.2397C600.94 44.8461 655.154 49.7648 709.776 47.1967C760.874 44.7932 812.77 40.5796 863.868 45.2574C893.736 47.996 919.479 55.0832 947.659 60.907C975.32 66.6191 1004.58 68.817 1033.76 68.8346C1098.67 68.8816 1158.92 56.3056 1222.49 51.5572C1294.39 46.1859 1368.28 50.2585 1438.81 39.4395" stroke="#FC7B0A" stroke-opacity="0.35" stroke-miterlimit="10"/>
<path d="M0.898438 24.5776C72.9463 27.1281 132.812 54.86 206.946 49.524C264.335 45.4103 317.36 29.5434 374.869 26.0174C432.008 22.4914 492.312 33.0694 548.323 38.7227C601.847 44.1057 655.79 48.4721 710.093 45.0695C761.74 41.8373 814.306 38.7932 865.873 44.3408C895.73 47.5436 921.694 54.9893 950.083 60.6779C977.614 66.1902 1006.62 67.9943 1035.53 67.5947C1100.34 66.7073 1159.97 52.5211 1223.45 47.8844C1294.93 42.6659 1368.64 48.9305 1438.84 37.8941" stroke="#FC7B0A" stroke-opacity="0.35" stroke-miterlimit="10"/>
<path d="M0.917969 22.4683C73.4152 25.1069 133.49 53.0269 208.114 47.9259C265.533 43.9945 318.957 28.6388 376.496 25.4477C433.515 22.2861 493.33 32.8464 549.311 38.2882C602.735 43.4656 656.409 47.2854 710.403 43.0659C762.629 38.9875 815.843 37.0953 867.77 43.4949C897.597 47.1678 923.78 54.9662 952.42 60.5372C979.781 65.8262 1008.64 67.2836 1037.3 66.4785C1101.94 64.6744 1161.05 48.9485 1224.42 44.4117C1295.57 39.3166 1369.06 47.7555 1438.92 36.5017" stroke="#FC7B0A" stroke-opacity="0.35" stroke-miterlimit="10"/>
<path d="M0.929688 20.5049C73.8264 23.2258 134.121 51.3455 209.225 46.4503C266.673 42.701 320.397 27.8096 378.065 24.9711C434.985 22.1739 494.361 32.7166 550.251 37.9703C603.606 42.9948 657.01 46.2387 710.684 41.2201C763.519 36.2837 817.213 35.5197 869.589 42.748C899.357 46.8617 925.789 55.0126 954.618 60.4543C981.84 65.5905 1010.54 66.6542 1038.9 65.4671C1103.31 62.7697 1162.01 45.5923 1225.26 41.1143C1296.16 36.1133 1369.35 46.7147 1438.9 35.1906" stroke="#FC7B0A" stroke-opacity="0.35" stroke-miterlimit="10"/>
<path d="M0.9375 18.7012C74.2936 21.4867 134.748 49.7945 210.271 45.0932C267.769 41.5202 321.823 27.0695 379.551 24.5778C436.381 22.1273 495.297 32.67 551.138 37.7591C604.442 42.6191 657.587 45.3224 710.962 39.5221C764.336 33.7219 818.559 34.0627 871.344 42.0902C901.042 46.6094 927.735 55.0188 956.723 60.4371C983.685 65.4851 1012.42 66.1198 1040.43 64.5507C1104.58 61.0248 1162.96 42.4604 1226.08 38.0412C1296.67 33.099 1369.65 45.8454 1438.9 34.0098" stroke="#FC7B0A" stroke-opacity="0.35" stroke-miterlimit="10"/>
<path d="M1 17.0205C74.7555 19.8648 135.34 48.3607 211.312 43.8415C268.791 40.439 323.163 26.4232 380.962 24.2547C437.661 22.1273 496.198 32.7053 551.979 37.6476C605.254 42.3489 658.149 44.5409 711.214 37.9766C765.277 31.2949 819.82 32.6877 872.984 41.5026C902.622 46.4038 929.544 55.1306 958.703 60.4725C985.555 65.3912 1014.14 65.6733 1041.86 63.7869C1072.11 61.7242 1101.6 56.9994 1130.64 51.7574C1161.97 46.1099 1194.22 37.4948 1226.86 35.2146C1297.21 30.2959 1369.94 45.1579 1438.91 32.9697" stroke="#FC7B0A" stroke-opacity="0.35" stroke-miterlimit="10"/>
<path d="M1 15.5508C75.115 18.4421 135.809 47.1201 212.221 42.7538C269.749 39.4628 324.412 25.8349 382.28 23.9896C438.89 22.162 497.007 32.8046 552.738 37.6234C606.013 42.219 658.698 43.8938 711.453 36.5892C766.106 29.02 821.008 31.4236 874.562 41.0025C904.07 46.2915 931.222 55.2827 960.53 60.5482C987.273 65.3494 1015.73 65.3142 1043.18 63.1046C1073.37 60.6834 1102.69 55.5472 1131.56 49.9703C1162.66 43.9643 1194.96 34.9026 1227.59 32.6048C1297.72 27.6743 1370.22 44.6225 1438.92 32.0171" stroke="#FC7B0A" stroke-opacity="0.35" stroke-miterlimit="10"/>
<path d="M1 14.2168C75.4545 17.1551 136.308 46.0036 213.05 41.7665C270.618 38.5814 325.54 25.3648 383.458 23.784C439.988 22.2384 497.716 33.0044 553.407 37.6999C606.692 42.1837 659.187 43.3884 711.633 35.3492C766.915 26.9045 822.067 30.2542 876 40.5677C905.398 46.1857 932.75 55.4532 962.208 60.6599C988.84 65.3612 1017.13 65.0321 1044.38 62.5345C1074.5 59.7725 1103.67 54.2485 1132.39 48.366C1163.28 42.0368 1195.62 32.5754 1228.25 30.2424C1298.15 25.2473 1370.48 44.2582 1438.95 31.2003" stroke="#FC7B0A" stroke-opacity="0.35" stroke-miterlimit="10"/>
<path d="M1 13.0474C75.7641 15.9857 136.718 45.0341 213.788 40.8969C271.427 37.7999 326.629 24.9476 384.606 23.6254C441.076 22.3325 498.445 33.2572 554.076 37.8586C607.381 42.2603 659.727 43.0184 711.853 34.2915C767.704 24.9417 822.995 29.1729 877.308 40.1682C906.607 46.1095 934.138 55.6179 963.716 60.7776C990.258 65.4026 1018.45 64.8149 1045.44 62.0529C1075.52 58.9735 1104.53 53.0968 1133.12 46.9322C1163.84 40.2975 1196.2 30.5128 1228.87 28.1269C1298.63 23.0259 1370.78 44.0526 1438.95 30.4776" stroke="#FC7B0A" stroke-opacity="0.35" stroke-miterlimit="10"/>
<path d="M1 12.0488C76.0537 14.9871 137.067 44.2176 214.438 40.145C272.086 37.1127 327.537 24.6013 385.565 23.4848C441.975 22.4211 498.964 33.5397 554.596 38.0765C607.93 42.4252 660.176 42.7778 712.003 33.3752C768.433 23.1322 823.754 28.1626 878.467 39.8395C907.635 46.0687 935.326 55.7945 965.014 60.919C991.477 65.491 1019.53 64.68 1046.33 61.6829C1076.37 58.3156 1105.25 52.1216 1133.72 45.6985C1164.3 38.7934 1196.63 28.7561 1229.39 26.3056C1299 21.046 1371.06 44.053 1438.96 29.8786" stroke="#FC7B0A" stroke-opacity="0.35" stroke-miterlimit="10"/>
<path d="M1 11.2139C75.6842 14.1522 136.498 43.3827 213.419 39.5922C274.203 36.601 332.96 23.0906 394.293 23.3668C446.728 23.6018 499.344 33.7391 551.14 38.0995C606.172 42.7303 658.848 42.6011 712.142 32.6871C771.239 21.7213 826.61 27.4863 883.569 40.5266C909.103 46.368 933.429 54.3367 959.152 59.8079C986.374 65.5964 1016.26 65.0322 1044.27 61.8177C1076.06 58.1742 1106.48 51.2397 1136.46 44.1878C1166.68 37.0535 1198.8 27.0103 1231.39 24.6596C1300.29 19.7174 1371.95 44.1172 1438.95 29.4021" stroke="#FC7B0A" stroke-opacity="0.35" stroke-miterlimit="10"/>
<path d="M1 10.5562C75.8939 13.4533 136.708 42.8777 213.838 39.0814C274.642 36.0843 333.669 22.8912 394.982 23.332C447.378 23.714 499.723 34.1332 551.49 38.4996C606.562 43.1421 659.227 42.6838 712.262 32.1234C771.958 20.2291 827.04 26.6699 884.468 40.3507C909.882 46.4037 934.278 54.4429 960.071 59.92C987.233 65.7143 1016.99 65.0326 1044.84 61.6359C1076.61 57.7632 1106.91 50.5291 1136.8 43.2891C1166.98 35.9785 1199.09 25.8237 1231.76 23.3555C1300.53 18.1958 1372.27 44.4233 1438.96 28.9971" stroke="#FC7B0A" stroke-opacity="0.35" stroke-miterlimit="10"/>
<path d="M1 10.0854C76.0437 12.9356 136.808 42.5364 214.158 38.6813C274.972 35.6489 334.128 22.7379 395.521 23.3197C447.897 23.8133 499.993 34.5676 551.74 38.9692C606.842 43.6705 659.587 42.9242 712.282 31.7292C772.557 18.9298 827.199 25.9113 885.117 40.1681C910.471 46.4032 934.927 54.5247 960.74 60.0664C987.882 65.8902 1017.38 65.1556 1045.21 61.6002C1109.51 53.3729 1167.12 27.6155 1232.04 22.4206C1300.69 16.9259 1372.62 44.9223 1438.96 28.7203" stroke="#FC7B0A" stroke-opacity="0.35" stroke-miterlimit="10"/>
<path d="M1 9.78662C76.1635 12.578 136.907 42.3551 214.348 38.406C275.172 35.2972 334.527 22.6389 395.89 23.3147C448.276 23.9024 500.143 35.0328 551.869 39.5108C606.991 44.2827 659.916 43.3189 712.312 31.5185C773.116 17.82 827.149 25.207 885.617 40.0397C910.761 46.4041 935.276 54.8372 961.15 60.1614C988.631 65.8089 1017.24 65.3505 1045.37 61.6365C1109.78 53.127 1167.07 27.3461 1232.22 21.775C1300.78 15.8984 1373.02 45.6049 1438.92 28.5449" stroke="#FC7B0A" stroke-opacity="0.35" stroke-miterlimit="10"/>
<path d="M1 9.67432C76.2434 12.3835 136.877 42.3368 214.398 38.2408C275.221 35.0262 334.657 22.5795 396.14 23.3082C448.536 23.9311 500.203 35.5316 551.919 40.1154C607.041 44.9989 660.246 43.8765 712.332 31.4826C773.605 16.8909 826.88 24.5423 885.906 39.9391C939.83 53.9961 984.257 69.9983 1045.32 61.7592C1109.9 53.0441 1166.92 27.4806 1232.3 21.4629C1300.78 15.1572 1373.4 46.4681 1439 28.5149" stroke="#FC7B0A" stroke-opacity="0.35" stroke-miterlimit="10"/>
</g>
</svg>
