<svg width="232" height="28" viewBox="0 0 232 28" fill="none" xmlns="http://www.w3.org/2000/svg">
<g clip-path="url(#clip0_341_17456)">
<path d="M150.43 26.9782H144.044V1.02661L164.582 1.04301C164.582 1.04301 168.342 0.904381 170.734 3.25657C170.734 3.25657 173.176 5.28679 173.176 10.2491V26.9738H166.806V9.81677C166.806 9.81677 166.884 8.06679 166.287 7.45266C166.287 7.45266 165.757 6.78635 164.749 6.78635H150.415L150.428 26.9693L150.43 26.9782ZM177.614 26.9738V1.04599H203.241V6.81318L183.961 6.81169V11.2209H197.355V16.7899H183.961V21.214H203.361V26.9827H177.599L177.614 26.9738ZM132.916 26.9738V1.04599H139.275V26.9827H132.916V26.9738ZM214.034 5.18096V4.30746V5.18096ZM212.395 26.9738V6.80573H206.392V1.03854H230.268V6.80573H218.758V26.9738H212.399H212.395ZM113.553 5.18096V4.30746V5.18096ZM111.914 26.9738V6.80573H105.911V1.03854H129.787V6.80573H118.278V26.9738H111.919H111.914ZM92.7386 11.203C94.2924 11.1911 95.222 11.2045 95.5962 10.978C95.5962 10.978 96.2489 10.6187 96.2564 9.84659L96.2579 8.15026C96.2579 7.37514 95.5977 7.01889 95.5977 7.01889C95.1022 6.75058 94.2625 6.80126 92.2671 6.79977H79.8786V11.203H93.023H92.7386ZM96.1651 26.9738V18.1225C96.1651 17.3265 95.4974 16.9941 95.4974 16.9941C95.1966 16.8078 94.2939 16.7735 92.9661 16.7735H93.2745H79.8786V26.9723H73.5197V1.0445H93.3688C96.7968 1.05493 99.1634 1.55727 100.794 3.13285C102.395 4.75762 102.608 6.88324 102.617 9.09531V10.9422C102.638 12.8219 101.645 14.5361 100.463 15.5348L100.701 15.6525C101.183 15.8851 101.448 16.2145 101.448 16.2145C102.346 17.3593 102.335 18.3431 102.334 19.5535V26.9782H96.1665L96.1651 26.9738ZM0.00299384 1.03705V26.9663H6.36191V16.7765H25.6273V11.2045H6.36191V6.79828H28.7558V1.03108H0L0.00299384 1.03705ZM228.12 22.3871V23.5781H229.234C229.535 23.5781 229.826 23.4962 229.871 23.0505C229.936 22.4602 229.506 22.3871 229.234 22.3871H228.12ZM227.672 21.9951H229.223C229.762 21.9951 230.283 22.0965 230.328 22.8776C230.346 23.3247 230.21 23.4872 229.871 23.7421C230.229 23.9687 230.238 24.0238 230.292 24.6216C230.328 25.0777 230.264 25.1507 230.457 25.4504H229.927L229.855 25.0136C229.78 24.6037 229.982 23.9702 229.261 23.9702H228.12V25.4504H227.672V21.9951ZM228.84 21.0411C228.474 21.0415 228.112 21.1139 227.775 21.254C227.437 21.3942 227.131 21.5994 226.873 21.8579C226.615 22.1164 226.412 22.423 226.273 22.7602C226.135 23.0974 226.065 23.4584 226.068 23.8226C226.068 25.349 227.31 26.5951 228.852 26.5862C229.218 26.5855 229.579 26.5131 229.917 26.3732C230.255 26.2332 230.561 26.0284 230.819 25.7705C231.077 25.5125 231.282 25.2065 231.421 24.8698C231.56 24.5332 231.632 24.1725 231.631 23.8084C231.63 23.4443 231.558 23.0839 231.417 22.7478C231.276 22.4117 231.071 22.1065 230.812 21.8495C230.553 21.5925 230.245 21.3889 229.907 21.2502C229.569 21.1115 229.207 21.0404 228.841 21.0411H228.84ZM228.85 26.9469C228.437 26.9477 228.027 26.8672 227.645 26.7101C227.263 26.5529 226.915 26.3222 226.623 26.0311C226.33 25.7401 226.098 25.3944 225.94 25.0139C225.782 24.6333 225.701 24.2255 225.701 23.8137C225.7 23.4016 225.781 22.9935 225.939 22.6128C226.098 22.232 226.329 21.886 226.622 21.5947C226.915 21.3033 227.262 21.0723 227.644 20.9149C228.027 20.7575 228.437 20.6768 228.85 20.6774C230.587 20.6774 232 22.0875 232 23.8151C231.998 24.6459 231.665 25.442 231.075 26.0291C230.485 26.6161 229.685 26.9461 228.85 26.9469Z" fill="#231F20"/>
<path d="M64.7785 27.2316C66.8443 26.5325 68.452 24.1639 68.8382 21.1857V20.3241H58.2475V27.2316H64.777H64.7785ZM68.8397 7.65985V6.88026C68.434 3.77232 66.7066 1.32473 64.5046 0.747864H58.249V7.65985H68.8397ZM31.5664 20.3256V21.1782C31.9496 24.1595 33.5573 26.5325 35.629 27.2316H42.1257V20.3241H31.5664V20.3256ZM35.9 0.753826C33.701 1.3292 31.9691 3.77978 31.5664 6.89218V7.66581H42.1257V0.755317H35.9V0.753826ZM68.8472 10.5412H58.2565V17.4517H68.8472V10.5412ZM45.0162 27.2361H55.3764V20.3286H45.0162V27.2361ZM55.3764 0.747864H45.0162V7.65836H55.3764V0.747864ZM31.5754 17.4428H42.1347V10.5323H31.5754V17.4428Z" fill="#EE2E24"/>
</g>
<defs>
<clipPath id="clip0_341_17456">
<rect width="232" height="28" fill="white"/>
</clipPath>
</defs>
</svg>
