<svg width="40" height="40" viewBox="0 0 40 40" fill="none" xmlns="http://www.w3.org/2000/svg">
<path d="M13.332 0C7.8092 0 3.33203 4.47717 3.33203 10V17.3333C3.33495 19.9094 5.42261 21.9971 7.9987 22H8.66536V20.6667H7.9987C6.1587 20.6645 4.66753 19.1733 4.66536 17.3333V10C4.66536 5.2135 8.54553 1.33333 13.332 1.33333C18.1185 1.33333 21.9987 5.2135 21.9987 10V17.3333C21.9965 19.1733 20.5054 20.6645 18.6654 20.6667H17.9987V22H18.6654C21.2414 21.9971 23.3291 19.9094 23.332 17.3333V10C23.332 4.47717 18.8549 0 13.332 0Z" fill="#0068FA"/>
<path d="M5.49248 31.4193L5.97981 30.652L4.85381 29.9373L4.36648 30.7053C2.89256 33.028 3.00198 36.0187 4.64181 38.2273V40H5.97514V38C5.97523 37.8486 5.92373 37.7016 5.82914 37.5833C4.41181 35.8115 4.27656 33.335 5.49248 31.4193Z" fill="#0068FA"/>
<path d="M36.668 0H28.0013C26.1613 0.00216667 24.6701 1.49333 24.668 3.33333V10C24.6701 11.84 26.1613 13.3312 28.0013 13.3333H29.3346V16C29.3346 16.2696 29.4969 16.5127 29.746 16.616C29.8269 16.6497 29.9136 16.6669 30.0013 16.6667C30.1781 16.6667 30.3476 16.5963 30.4726 16.4713L33.6106 13.3333H36.668C38.508 13.3312 39.9991 11.84 40.0013 10V3.33333C39.9991 1.49333 38.508 0.00216667 36.668 0ZM38.668 10C38.668 11.1046 37.7726 12 36.668 12H33.3346C33.1578 12 32.9883 12.0703 32.8633 12.1953L30.668 14.3907V12.6667C30.668 12.2985 30.3695 12 30.0013 12H28.0013C26.8967 12 26.0013 11.1046 26.0013 10V3.33333C26.0013 2.22875 26.8967 1.33333 28.0013 1.33333H36.668C37.7726 1.33333 38.668 2.22875 38.668 3.33333V10Z" fill="#0068FA"/>
<path d="M32.6667 3.33334H28V4.66668H32.6667V3.33334Z" fill="#0068FA"/>
<path d="M36.6667 3.33334H34V4.66668H36.6667V3.33334Z" fill="#0068FA"/>
<path d="M36.6667 6H28V7.33333H36.6667V6Z" fill="#0068FA"/>
<path d="M32.6667 8.66666H28V9.99999H32.6667V8.66666Z" fill="#0068FA"/>
<path d="M22.3008 30.7053L21.8135 29.9373L20.6875 30.652L21.1748 31.42C22.3908 33.3354 22.2556 35.8117 20.8382 37.5833C20.7436 37.7016 20.6921 37.8486 20.6922 38V40H22.0255V38.2273C23.6653 36.0187 23.7748 33.028 22.3008 30.7053Z" fill="#0068FA"/>
<path d="M39.3333 22.6667H33.3333C30.832 22.6696 28.7778 24.6441 28.676 27.1433L26.6667 30.7607V28C26.6638 25.4239 24.5761 23.3363 22 23.3333H19.5633L19.5453 23.3193L19.5333 23.3333H18C17.2636 23.3333 16.6667 22.7364 16.6667 22V20.4313C18.7266 19.242 19.9968 17.0453 20 14.6667V9.33334C19.999 8.22875 19.7242 7.14167 19.2 6.16934C19.0321 5.86 18.6526 5.73442 18.3333 5.88267L7.04933 11.192C6.81567 11.302 6.66658 11.5371 6.66667 11.7953V14.6667C6.66983 17.0453 7.94008 19.242 10 20.4313V22C10 22.7364 9.40308 23.3333 8.66667 23.3333H4.66667C2.09058 23.3363 0.00291667 25.4239 0 28V40H1.33333V28C1.3355 26.16 2.82667 24.6688 4.66667 24.6667H6.788L12.7913 33.0547C12.9147 33.2271 13.1127 33.3305 13.3247 33.3333H13.3333C13.5432 33.3333 13.7408 33.2345 13.8667 33.0667L20.2 24.6667H22C23.84 24.6688 25.3312 26.16 25.3333 28V33.3333C25.3337 33.7015 25.6324 33.9998 26.0006 33.9994C26.2424 33.9992 26.4652 33.8681 26.5827 33.6567L29.7253 28H33.5473L27.0473 40H28.564L35.0667 28H35.3333C37.9094 27.9971 39.9971 25.9094 40 23.3333C40 22.9652 39.7015 22.6667 39.3333 22.6667ZM8 14.6667V12.2187L18.294 7.37467C18.5403 7.99834 18.6667 8.66284 18.6667 9.33334V14.6667C18.6667 17.6122 16.2788 20 13.3333 20C10.3878 20 8 17.6122 8 14.6667ZM13.3473 31.5413L11.29 28.6667H15.514L13.3473 31.5413ZM16.5227 27.3333H10.3333L8.42467 24.6667H8.66667C10.1394 24.6667 11.3333 23.4728 11.3333 22V21.026C12.6352 21.4358 14.0315 21.4358 15.3333 21.026V22C15.3333 23.4728 16.5273 24.6667 18 24.6667H18.5333L16.5227 27.3333ZM35.3333 26.6667H30.0667C30.3854 25.1156 31.7498 24.0018 33.3333 24H38.6C38.2813 25.5511 36.9168 26.6649 35.3333 26.6667Z" fill="#0068FA"/>
</svg>
