<svg width="25" height="48" viewBox="0 0 25 48" fill="none" xmlns="http://www.w3.org/2000/svg">
<path d="M1.5709 24.2518C1.91558 21.6027 2.26026 18.9536 2.60494 16.3151C3.14807 12.0996 3.70165 7.88421 4.24479 3.66879C4.37013 2.71217 4.49547 1.74504 4.6208 0.788421C4.35968 1.05123 4.09856 1.31403 3.83744 1.57684C7.93183 1.57684 12.0158 1.57684 16.1102 1.57684C16.6951 1.57684 17.2696 1.57684 17.8545 1.57684C17.6038 1.24045 17.3531 0.914568 17.1024 0.578175C16.2877 5.10897 15.4835 9.62925 14.6688 14.16C14.5539 14.8013 14.439 15.4425 14.3241 16.0838C14.2301 16.5884 14.533 17.0719 15.0761 17.0825C17.8963 17.1245 20.7164 17.1771 23.5365 17.2191C23.3067 16.8196 23.0874 16.4307 22.8576 16.0312C21.0611 19.4372 19.275 22.8432 17.4785 26.2492C14.6479 31.6314 11.8069 37.0032 8.97632 42.3855C8.32874 43.6154 7.68116 44.8349 7.04402 46.0648C7.53493 46.2015 8.01539 46.3276 8.5063 46.4643C8.69431 43.9729 8.88232 41.4814 9.07033 38.9795C9.37323 35.0059 9.67613 31.0217 9.97903 27.0481C10.0521 26.1335 10.1148 25.219 10.1879 24.3044C10.2193 23.8734 9.80147 23.516 9.40456 23.516C6.53222 23.5055 3.65987 23.4844 0.777085 23.4739C-0.23607 23.4634 -0.23607 25.0402 0.777085 25.0508C3.64943 25.0613 6.52177 25.0823 9.40456 25.0928C9.14344 24.83 8.88232 24.5672 8.6212 24.3044C8.43319 26.7958 8.24518 29.2872 8.05717 31.7891C7.75427 35.7628 7.45137 39.7469 7.14847 43.7206C7.07535 44.6351 7.01268 45.5497 6.93957 46.4643C6.8769 47.2527 8.04673 47.5365 8.40185 46.8637C10.1984 43.4578 11.9845 40.0518 13.781 36.6458C16.6115 31.2635 19.4525 25.8917 22.2831 20.5095C22.9307 19.2795 23.5783 18.0601 24.2154 16.8302C24.4974 16.3045 24.1527 15.6528 23.5365 15.6423C20.7164 15.6002 17.8963 15.5477 15.0761 15.5056C15.3268 15.842 15.5775 16.1679 15.8282 16.5043C16.6429 11.9735 17.4471 7.4532 18.2618 2.92241C18.3767 2.28116 18.4916 1.63992 18.6065 0.998666C18.7005 0.504589 18.3976 0 17.8545 0C13.7601 0 9.67613 0 5.58173 0C4.99682 0 4.42235 0 3.83744 0C3.37786 0 3.1063 0.36793 3.05407 0.788421C2.70939 3.43751 2.36471 6.08661 2.02003 8.72519C1.47689 12.9406 0.923313 17.156 0.380179 21.3715C0.25484 22.3281 0.129502 23.2952 0.00416345 24.2518C-0.048061 24.6723 0.401069 25.0402 0.78753 25.0402C1.24711 25.0402 1.50823 24.6723 1.5709 24.2518Z" fill="#0068FA"/>
</svg>
