<svg width="48" height="47" viewBox="0 0 48 47" fill="none" xmlns="http://www.w3.org/2000/svg">
<path d="M21.2266 40.177C21.2266 40.6268 21.3599 41.0665 21.6099 41.4405C21.8598 41.8146 22.215 42.1061 22.6305 42.2782C23.0461 42.4503 23.5034 42.4954 23.9446 42.4076C24.3858 42.3199 24.791 42.1033 25.1091 41.7852C25.4272 41.4671 25.6438 41.0619 25.7315 40.6207C25.8193 40.1795 25.7743 39.7222 25.6021 39.3066C25.43 38.8911 25.1385 38.5359 24.7645 38.2859C24.3904 38.036 23.9507 37.9026 23.5009 37.9026C22.8977 37.9026 22.3192 38.1423 21.8927 38.5688C21.4662 38.9953 21.2266 39.5738 21.2266 40.177ZM24.259 40.177C24.259 40.3269 24.2146 40.4735 24.1313 40.5982C24.0479 40.7228 23.9295 40.82 23.791 40.8774C23.6525 40.9348 23.5001 40.9498 23.353 40.9205C23.2059 40.8913 23.0709 40.8191 22.9648 40.7131C22.8588 40.607 22.7866 40.4719 22.7574 40.3249C22.7281 40.1778 22.7431 40.0254 22.8005 39.8869C22.8579 39.7483 22.955 39.6299 23.0797 39.5466C23.2044 39.4633 23.351 39.4189 23.5009 39.4189C23.702 39.4189 23.8948 39.4987 24.037 39.6409C24.1791 39.7831 24.259 39.9759 24.259 40.177Z" fill="#0068FA"/>
<path d="M4.55078 40.177C4.55078 40.6268 4.68417 41.0665 4.93408 41.4405C5.18398 41.8146 5.53919 42.1061 5.95477 42.2782C6.37035 42.4503 6.82764 42.4954 7.26882 42.4076C7.71 42.3199 8.11525 42.1033 8.43332 41.7852C8.75139 41.4671 8.968 41.0619 9.05576 40.6207C9.14352 40.1795 9.09848 39.7222 8.92634 39.3066C8.7542 38.8911 8.46269 38.5359 8.08868 38.2859C7.71466 38.036 7.27494 37.9026 6.82512 37.9026C6.22193 37.9026 5.64344 38.1423 5.21692 38.5688C4.7904 38.9953 4.55078 39.5738 4.55078 40.177ZM7.58323 40.177C7.58323 40.3269 7.53877 40.4735 7.45547 40.5982C7.37217 40.7228 7.25377 40.82 7.11524 40.8774C6.97671 40.9348 6.82428 40.9498 6.67722 40.9205C6.53016 40.8913 6.39508 40.8191 6.28905 40.7131C6.18303 40.607 6.11083 40.4719 6.08157 40.3249C6.05232 40.1778 6.06734 40.0254 6.12472 39.8869C6.1821 39.7483 6.27926 39.6299 6.40394 39.5466C6.52861 39.4633 6.67518 39.4189 6.82512 39.4189C7.02619 39.4189 7.21901 39.4987 7.36119 39.6409C7.50336 39.7831 7.58323 39.9759 7.58323 40.177Z" fill="#0068FA"/>
<path d="M46.2449 33.354H40.9381V29.5634H41.6962C41.8973 29.5634 42.0901 29.4835 42.2323 29.3414C42.3745 29.1992 42.4543 29.0063 42.4543 28.8053V25.7728C42.4543 25.5718 42.3745 25.3789 42.2323 25.2368C42.0901 25.0946 41.8973 25.0147 41.6962 25.0147H38.6638C38.4627 25.0147 38.2699 25.0946 38.1277 25.2368C37.9855 25.3789 37.9057 25.5718 37.9057 25.7728V26.5309H25.7758V25.7728C25.7758 25.5718 25.696 25.3789 25.5538 25.2368C25.4116 25.0946 25.2188 25.0147 25.0177 25.0147H24.2596V20.2674L33.5799 17.4002C33.7349 17.3526 33.8705 17.2564 33.9668 17.126C34.0632 16.9955 34.1151 16.8376 34.1151 16.6755V4.54567C34.1146 4.42759 34.0865 4.31126 34.033 4.20597C33.9796 4.10067 33.9023 4.00931 33.8073 3.93918C33.7505 3.90184 33.6909 3.86889 33.6291 3.84062L23.7737 0.0500552C23.5984 -0.0166851 23.4046 -0.0166851 23.2293 0.0500552L13.3739 3.84062C13.3121 3.86889 13.2525 3.90184 13.1957 3.93918C13.1007 4.00931 13.0234 4.10067 12.97 4.20597C12.9166 4.31126 12.8885 4.42759 12.8879 4.54567V16.6755C12.8879 16.8376 12.9399 16.9955 13.0362 17.126C13.1325 17.2564 13.2682 17.3526 13.4232 17.4002L22.7434 20.2674V25.0147H21.9853C21.7842 25.0147 21.5914 25.0946 21.4492 25.2368C21.307 25.3789 21.2272 25.5718 21.2272 25.7728V26.5309H9.09736V25.7728C9.09736 25.5718 9.01748 25.3789 8.87531 25.2368C8.73314 25.0946 8.54031 25.0147 8.33924 25.0147H5.30679C5.10573 25.0147 4.9129 25.0946 4.77072 25.2368C4.62855 25.3789 4.54868 25.5718 4.54868 25.7728V28.8053C4.54868 29.0063 4.62855 29.1992 4.77072 29.3414C4.9129 29.4835 5.10573 29.5634 5.30679 29.5634H6.0649V33.354H0.758113C0.557049 33.354 0.36422 33.4338 0.222046 33.576C0.0798724 33.7182 0 33.911 0 34.1121V46.2419C0 46.443 0.0798724 46.6358 0.222046 46.778C0.36422 46.9201 0.557049 47 0.758113 47H12.8879C13.089 47 13.2818 46.9201 13.424 46.778C13.5662 46.6358 13.646 46.443 13.646 46.2419V34.1121C13.646 33.911 13.5662 33.7182 13.424 33.576C13.2818 33.4338 13.089 33.354 12.8879 33.354H7.58113V29.5634H8.33924C8.54031 29.5634 8.73314 29.4835 8.87531 29.3414C9.01748 29.1992 9.09736 29.0063 9.09736 28.8053V28.0472H21.2272V28.8053C21.2272 29.0063 21.307 29.1992 21.4492 29.3414C21.5914 29.4835 21.7842 29.5634 21.9853 29.5634H22.7434V33.354H17.4366C17.2355 33.354 17.0427 33.4338 16.9005 33.576C16.7584 33.7182 16.6785 33.911 16.6785 34.1121V46.2419C16.6785 46.443 16.7584 46.6358 16.9005 46.778C17.0427 46.9201 17.2355 47 17.4366 47H29.5664C29.7675 47 29.9603 46.9201 30.1025 46.778C30.2447 46.6358 30.3245 46.443 30.3245 46.2419V34.1121C30.3245 33.911 30.2447 33.7182 30.1025 33.576C29.9603 33.4338 29.7675 33.354 29.5664 33.354H24.2596V29.5634H25.0177C25.2188 29.5634 25.4116 29.4835 25.5538 29.3414C25.696 29.1992 25.7758 29.0063 25.7758 28.8053V28.0472H37.9057V28.8053C37.9057 29.0063 37.9855 29.1992 38.1277 29.3414C38.2699 29.4835 38.4627 29.5634 38.6638 29.5634H39.4219V33.354H34.1151C33.914 33.354 33.7212 33.4338 33.579 33.576C33.4368 33.7182 33.357 33.911 33.357 34.1121V46.2419C33.357 46.443 33.4368 46.6358 33.579 46.778C33.7212 46.9201 33.914 47 34.1151 47H46.2449C46.446 47 46.6388 46.9201 46.781 46.778C46.9231 46.6358 47.003 46.443 47.003 46.2419V34.1121C47.003 33.911 46.9231 33.7182 46.781 33.576C46.6388 33.4338 46.446 33.354 46.2449 33.354ZM32.5989 16.1152L24.2596 18.6814V8.13836L32.5989 5.57215V16.1152ZM23.5015 1.56704L31.0379 4.46985L23.5015 6.78513L15.9651 4.46985L23.5015 1.56704ZM14.4041 5.57215L22.7434 8.13836V18.6814L14.4041 16.1152V5.57215ZM12.1298 45.4838H1.51623V34.8702H12.1298V45.4838ZM7.58113 28.0472H6.0649V26.5309H7.58113V28.0472ZM28.8083 45.4838H18.1947V34.8702H28.8083V45.4838ZM24.2596 28.0472H22.7434V26.5309H24.2596V28.0472ZM39.4219 26.5309H40.9381V28.0472H39.4219V26.5309ZM45.4868 45.4838H34.8732V34.8702H45.4868V45.4838Z" fill="#0068FA"/>
<path d="M37.9062 40.177C37.9062 40.6268 38.0396 41.0665 38.2895 41.4405C38.5395 41.8146 38.8947 42.1061 39.3102 42.2782C39.7258 42.4503 40.1831 42.4954 40.6243 42.4076C41.0655 42.3199 41.4707 42.1033 41.7888 41.7852C42.1069 41.4671 42.3235 41.0619 42.4112 40.6207C42.499 40.1795 42.4539 39.7222 42.2818 39.3066C42.1097 38.8911 41.8182 38.5359 41.4441 38.2859C41.0701 38.036 40.6304 37.9026 40.1806 37.9026C39.5774 37.9026 38.9989 38.1423 38.5724 38.5688C38.1459 38.9953 37.9062 39.5738 37.9062 40.177ZM40.9387 40.177C40.9387 40.3269 40.8942 40.4735 40.8109 40.5982C40.7276 40.7228 40.6092 40.82 40.4707 40.8774C40.3322 40.9348 40.1797 40.9498 40.0327 40.9205C39.8856 40.8913 39.7505 40.8191 39.6445 40.7131C39.5385 40.607 39.4663 40.4719 39.437 40.3249C39.4078 40.1778 39.4228 40.0254 39.4802 39.8869C39.5376 39.7483 39.6347 39.6299 39.7594 39.5466C39.8841 39.4633 40.0306 39.4189 40.1806 39.4189C40.3817 39.4189 40.5745 39.4987 40.7167 39.6409C40.8588 39.7831 40.9387 39.9759 40.9387 40.177Z" fill="#0068FA"/>
<path d="M40.9396 43.2094H36.3909C36.1899 43.2094 35.997 43.2893 35.8549 43.4315C35.7127 43.5737 35.6328 43.7665 35.6328 43.9676C35.6328 44.1686 35.7127 44.3614 35.8549 44.5036C35.997 44.6458 36.1899 44.7257 36.3909 44.7257H40.9396C41.1407 44.7257 41.3335 44.6458 41.4757 44.5036C41.6178 44.3614 41.6977 44.1686 41.6977 43.9676C41.6977 43.7665 41.6178 43.5737 41.4757 43.4315C41.3335 43.2893 41.1407 43.2094 40.9396 43.2094Z" fill="#0068FA"/>
<path d="M43.2112 44.7257H43.9694C44.1704 44.7257 44.3632 44.6458 44.5054 44.5036C44.6476 44.3614 44.7275 44.1686 44.7275 43.9676C44.7275 43.7665 44.6476 43.5737 44.5054 43.4315C44.3632 43.2893 44.1704 43.2094 43.9694 43.2094H43.2112C43.0102 43.2094 42.8173 43.2893 42.6752 43.4315C42.533 43.5737 42.4531 43.7665 42.4531 43.9676C42.4531 44.1686 42.533 44.3614 42.6752 44.5036C42.8173 44.6458 43.0102 44.7257 43.2112 44.7257Z" fill="#0068FA"/>
</svg>
