<svg width="223" height="62" viewBox="0 0 223 62" fill="none" xmlns="http://www.w3.org/2000/svg">
<path fill-rule="evenodd" clip-rule="evenodd" d="M154.54 8.42703L153.379 12.2508H150.547L149.54 16.0079H152.372L147.85 32.8933C147.101 35.679 149.389 37.9158 152.931 37.9158H154.565L155.572 34.1588H153.938C153.066 34.1588 152.506 33.61 152.698 32.8945L157.223 16.0091H160.436L161.443 12.252H158.23L159.609 7.10205L154.54 8.42703ZM140.059 17.2745C140.24 16.5995 141.106 16.0091 141.977 16.0091C142.904 16.0091 143.453 16.6007 143.272 17.2745L137.741 37.9158H142.591L148.121 17.2745C148.867 14.4888 146.582 12.252 142.985 12.252L140.551 13.8138C140.202 12.8853 139.172 12.252 137.756 12.252H136.558L129.681 37.9158H134.528L140.059 17.2745ZM128.167 12.2508L121.292 37.9158H126.139L133.017 12.2508H128.167ZM105.287 33.1469C104.541 35.9325 106.826 38.1766 110.368 38.1766C113.963 38.1766 117.454 35.9325 118.2 33.1469L122.52 17.0221C123.255 14.2781 120.967 12.0401 117.373 12.0401C113.831 12.0401 110.344 14.2781 109.61 17.0221L105.287 33.1469ZM114.456 17.0209C114.637 16.346 115.493 15.7972 116.366 15.7972C117.291 15.7972 117.854 16.346 117.673 17.0209L113.35 33.1457C113.172 33.8195 112.304 34.4099 111.378 34.4099C110.506 34.4099 109.956 33.8195 110.137 33.1457L114.456 17.0209ZM86.0613 45.3514H90.9101L93.2422 36.648L94.4826 37.9146C98.0778 37.9146 101.565 35.6778 102.311 32.8921L106.496 17.2733C107.242 14.4876 104.955 12.2508 101.359 12.2508L98.9242 13.8127C98.5742 12.8841 97.5457 12.2508 96.129 12.2508H94.9303L86.0613 45.3514ZM98.4326 17.2745C98.6135 16.5995 99.4802 16.0091 100.352 16.0091C101.278 16.0091 101.828 16.6007 101.647 17.2745L97.4612 32.8933C97.2695 33.61 96.4136 34.1576 95.4886 34.1576C94.6172 34.1576 94.0553 33.6088 94.2481 32.8933L98.4326 17.2745ZM74.958 37.9158L78.0222 26.4767H79.6019C80.5281 26.4767 81.0888 27.072 80.8971 27.7422L75.9615 44.9883H80.8091L85.6102 28.2493C86.0316 26.7791 85.4304 25.4637 84.1745 24.6613L84.1971 24.5768C85.8828 23.7756 87.159 22.4673 87.5554 20.9887L89.897 12.2508H85.0483L82.5709 21.4947C82.39 22.1709 81.5233 22.7613 80.5972 22.7613H79.0174L84.7197 2.7914H79.8722L70.1092 37.9158H74.958ZM64.8355 29.7684L63.9308 33.1457C63.7498 33.8195 62.8832 34.4099 61.957 34.4099C61.0856 34.4099 60.5356 33.8195 60.7165 33.1457L65.0367 17.0209C65.2176 16.346 66.0724 15.7972 66.945 15.7972C67.8712 15.7972 68.4319 16.346 68.2509 17.0209L67.3462 20.3971H72.1949L73.0997 17.0209C73.8342 14.2769 71.5473 12.0389 67.9521 12.0389C64.4105 12.0389 60.9237 14.2769 60.1892 17.0209L55.869 33.1457C55.1226 35.9314 57.4082 38.1754 60.9499 38.1754C64.545 38.1754 68.0343 35.9314 68.7807 33.1457L69.6854 29.7684H64.8355ZM47.0441 22.7613L48.5822 17.0209C48.7632 16.346 49.6191 15.7972 50.4905 15.7972C51.4167 15.7972 51.9786 16.346 51.7964 17.0209L50.2584 22.7613H47.0441ZM54.1107 26.4767L56.644 17.0221C57.3785 14.2781 55.0904 12.0401 51.4952 12.0401C47.9536 12.0401 44.468 14.2781 43.7323 17.0221L39.4121 33.1469C38.6657 35.9325 40.9514 38.1766 44.493 38.1766C48.0882 38.1766 51.5762 35.9325 52.3226 33.1469L53.2274 29.7695H48.3786L47.4739 33.1469C47.2929 33.8207 46.4263 34.4111 45.5001 34.4111C44.6287 34.4111 44.0787 33.8207 44.2597 33.1469L46.0465 26.4767H54.1107ZM31.0111 17.2745C31.192 16.5995 32.0587 16.0091 32.9301 16.0091C33.8563 16.0091 34.4062 16.6007 34.2253 17.2745L28.6944 37.9158H33.5432L39.074 17.2745C39.8204 14.4888 37.5336 12.252 33.9372 12.252L32.0182 13.5174L34.8015 3.01163H29.9539L20.6327 37.9146H25.4814L31.0111 17.2745ZM14.9411 28.4231L13.7816 30.9814C12.8875 32.9528 10.6519 34.3719 8.75189 34.3671C6.64359 34.3623 5.30076 32.0398 5.8948 30.0969L12.0649 9.89962C12.8304 7.39371 14.4351 5.94969 16.7149 6.04611C19.0613 6.14492 21.0755 6.45444 20.6136 7.91037L19.4541 11.5746H24.685L25.623 7.69013C26.5433 3.8771 22.2898 2.22356 17.9101 2.1926C12.6494 2.1557 9.0376 4.61638 7.71739 9.01512L1.32701 30.3183C-0.284864 35.6956 3.78293 38.1039 8.7138 38.1551C12.5483 38.1968 16.078 36.5694 17.6875 32.7493L19.5089 28.4231H14.9411ZM130.899 1.21167L128.583 9.84962H133.433L135.746 1.21167H130.899Z" fill="black"/>
<path d="M195.473 24.5459H216.773C217.62 24.5484 218.431 24.8858 219.03 25.4845C219.629 26.0832 219.966 26.8944 219.969 27.7411V58.8048C219.967 59.6517 219.629 60.4633 219.031 61.0621C218.432 61.6609 217.62 61.9981 216.773 62H195.473C194.626 61.9981 193.814 61.6609 193.215 61.0621C192.616 60.4633 192.279 59.6517 192.277 58.8048V27.7399C192.28 26.8935 192.618 26.0825 193.216 25.4841C193.815 24.8857 194.626 24.5484 195.473 24.5459ZM195.473 25.6102C194.301 25.6102 193.343 26.5685 193.343 27.7399V58.8037C193.343 59.9751 194.301 60.9334 195.473 60.9334H216.773C217.945 60.9334 218.903 59.9751 218.903 58.8037V27.7399C218.903 26.5685 217.945 25.6102 216.773 25.6102H195.473Z" fill="#DADADA"/>
<path fill-rule="evenodd" clip-rule="evenodd" d="M217.662 36.2507V57.9158C217.662 58.892 216.862 59.692 215.886 59.692H196.362C195.386 59.692 194.586 58.892 194.586 57.9158V45.2018C196.057 44.2744 197.304 43.5577 197.628 43.4482C198.411 43.1875 198.542 43.1875 198.542 44.2315C198.542 45.2756 198.281 48.0148 199.716 46.4494C201.044 45.0006 208.754 37.7293 217.662 36.2507Z" fill="#CC262D"/>
<path fill-rule="evenodd" clip-rule="evenodd" d="M196.359 26.853H215.883C216.859 26.853 217.659 27.6518 217.659 28.6279V32.2219C210.189 34.2636 203.13 41.2158 201.8 42.6682C200.365 44.2324 200.626 41.4944 200.626 40.4504C200.626 39.4063 200.496 39.4063 199.712 39.667C199.24 39.8254 196.817 41.2694 194.582 42.7801V28.6279C194.584 28.1575 194.772 27.7069 195.105 27.3744C195.438 27.042 195.889 26.8545 196.359 26.853Z" fill="#ADACAC"/>
<path fill-rule="evenodd" clip-rule="evenodd" d="M222.717 43.8721H219.965V42.2888H222.717V43.8721ZM192.275 43.8721H92.7656V42.2888H192.274V43.8721H192.275Z" fill="#CC262D"/>
<path fill-rule="evenodd" clip-rule="evenodd" d="M153.571 7.21524L152.413 11.039H149.578L148.574 14.7961H151.406L146.881 31.6791C146.134 34.4672 148.423 36.704 151.964 36.704H153.599L154.606 32.947H152.971C152.1 32.947 151.539 32.3982 151.73 31.6803L156.255 14.7973H159.468L160.475 11.0402H157.262L158.64 5.89026L153.571 7.21524ZM139.091 16.0627C139.271 15.3877 140.139 14.7973 141.011 14.7973C141.936 14.7973 142.485 15.3889 142.306 16.0627L136.775 36.704H141.623L147.154 16.0627C147.9 13.277 145.612 11.0402 142.018 11.0402L139.583 12.6021C139.232 11.6735 138.205 11.0402 136.786 11.0402H135.588L128.711 36.7052H133.561L139.091 16.0627ZM127.2 11.039L120.322 36.704H125.171L132.048 11.039H127.2ZM104.318 31.9327C103.572 34.7208 105.858 36.9648 109.399 36.9648C112.996 36.9648 116.484 34.7208 117.23 31.9327L121.55 15.8091C122.287 13.0651 119.999 10.8283 116.403 10.8283C112.861 10.8283 109.376 13.0651 108.641 15.8091L104.318 31.9327ZM113.489 15.8091C113.67 15.1342 114.525 14.5854 115.396 14.5854C116.323 14.5854 116.884 15.1342 116.703 15.8091L112.383 31.9327C112.202 32.6089 111.335 33.1993 110.409 33.1993C109.537 33.1993 108.987 32.6089 109.168 31.9327L113.489 15.8091ZM85.0938 44.1396H89.9413L92.2735 35.4362L93.5139 36.7029C97.1091 36.7029 100.596 34.466 101.342 31.6779L105.527 16.0603C106.273 13.2747 103.986 11.0378 100.391 11.0378L97.9567 12.5997C97.6067 11.6711 96.5781 11.0378 95.1615 11.0378H93.9627L85.0938 44.1396ZM97.465 16.0627C97.646 15.3877 98.5126 14.7973 99.384 14.7973C100.31 14.7973 100.86 15.3889 100.679 16.0627L96.4948 31.6803C96.302 32.3994 95.4472 32.947 94.521 32.947C93.6496 32.947 93.0877 32.3982 93.2806 31.6803L97.465 16.0627ZM73.9904 36.704L77.0546 25.2649H78.6344C79.5606 25.2649 80.1225 25.8602 79.9296 26.5316L74.994 43.7754H79.8427L84.6426 27.0375C85.064 25.5673 84.4629 24.2519 83.2069 23.4495L83.2295 23.365C84.9152 22.5638 86.1926 21.2543 86.5878 19.7769L88.9295 11.039H84.0807L81.6034 20.2829C81.4224 20.9579 80.5558 21.5495 79.6296 21.5495H78.0499L83.7522 1.57843H78.9046L69.1417 36.7029H73.9904V36.704ZM63.8668 28.5578L62.962 31.9327C62.7811 32.6089 61.9144 33.1993 60.9882 33.1993C60.1168 33.1993 59.5668 32.6089 59.7478 31.9327L64.0691 15.8091C64.2501 15.1342 65.1048 14.5854 65.9774 14.5854C66.9036 14.5854 67.4643 15.1342 67.2834 15.8091L66.3786 19.1853H71.2274L72.1321 15.8091C72.8666 13.0651 70.5798 10.8283 66.9834 10.8283C63.443 10.8283 59.9561 13.0651 59.2204 15.8091L54.9002 31.9327C54.1538 34.7208 56.4395 36.9648 59.9811 36.9648C63.5763 36.9648 67.0643 34.7208 67.8119 31.9327L68.7167 28.5578H63.8668ZM46.0754 21.5495L47.6135 15.8091C47.7944 15.1342 48.6503 14.5854 49.5218 14.5854C50.4479 14.5854 51.0098 15.1342 50.8277 15.8091L49.2896 21.5495H46.0754ZM53.1419 25.2649L55.6752 15.8103C56.4109 13.0663 54.1229 10.8295 50.5277 10.8295C46.9861 10.8295 43.5004 13.0663 42.7647 15.8103L38.4446 31.9339C37.6981 34.7219 39.9826 36.966 43.5242 36.966C47.1194 36.966 50.6086 34.7219 51.3551 31.9339L52.2598 28.5589H47.4111L46.5063 31.9339C46.3254 32.6101 45.4587 33.2005 44.5326 33.2005C43.6611 33.2005 43.1111 32.6101 43.2921 31.9339L45.079 25.2649H53.1419ZM30.0435 16.0627C30.2244 15.3877 31.0911 14.7973 31.9625 14.7973C32.8887 14.7973 33.4387 15.3889 33.2577 16.0627L27.7269 36.704H32.5756L38.1065 16.0627C38.8529 13.277 36.566 11.0402 32.9696 11.0402L31.0506 12.3068L33.8339 1.80104H28.9852L19.6639 36.7052H24.5126L30.0435 16.0627ZM13.9735 27.2113L12.814 29.7696C11.92 31.7422 9.6843 33.1613 7.78434 33.1565C5.67604 33.1517 4.3332 30.8279 4.92605 28.8863L11.0974 8.68902C11.8628 6.1843 13.4676 4.73909 15.7473 4.83552C18.0937 4.93432 20.1068 5.24384 19.646 6.69977L18.4865 10.3628H23.7174L24.6555 6.47834C25.5757 2.66531 21.3222 1.01177 16.9425 0.980817C11.6819 0.943913 8.07004 3.40458 6.74983 7.80332L0.358264 29.1066C-1.25361 34.4838 2.81418 36.891 7.74505 36.9433C11.5795 36.985 15.1092 35.3576 16.7187 31.5375L18.5401 27.2113H13.9735Z" fill="#ADACAC"/>
<path fill-rule="evenodd" clip-rule="evenodd" d="M129.931 0L127.617 8.63677H132.465L134.779 0H129.931Z" fill="#CC262D"/>
</svg>
