<svg width="60" height="60" viewBox="0 0 60 60" fill="none" xmlns="http://www.w3.org/2000/svg">
<path d="M0 0H60V60H0V0Z" fill="#0068FA"/>
<path d="M42.6935 23.9865L30.9146 12.3315C30.4204 11.8895 29.6729 11.8895 29.1787 12.3315L17.3997 23.9245C17.0187 24.3195 16.8981 24.8981 17.0898 25.4124C17.2859 25.9122 17.736 26.2676 18.2677 26.3424H23.8472V40.6632C23.8463 41.3137 24.3729 41.8418 25.0235 41.8427C25.0447 41.8427 25.066 41.8422 25.0871 41.841H35.0063C35.6559 41.8753 36.2103 41.3763 36.2445 40.7268C36.2456 40.7055 36.2462 40.6844 36.2462 40.6632V26.3422H41.8256C42.3572 26.2675 42.8074 25.9121 43.0036 25.4123C43.1844 24.9171 43.0638 24.3619 42.6935 23.9865ZM35.0062 23.8625C34.3242 23.8625 33.7663 24.1105 33.7663 24.7924V39.3612H26.3269V24.7924C26.3269 24.1105 25.7689 23.8625 25.087 23.8625H21.3054L30.0466 15.3072L38.7878 23.8625H35.0062Z" fill="white"/>
<path d="M35.0067 45.0809H25.0876C24.4028 45.0809 23.8477 45.636 23.8477 46.3208C23.8477 47.0056 24.4028 47.5607 25.0876 47.5607H35.0067C35.6915 47.5607 36.2466 47.0056 36.2466 46.3208C36.2466 45.636 35.6915 45.0809 35.0067 45.0809Z" fill="white"/>
</svg>
