<svg width="37" height="47" viewBox="0 0 37 47" fill="none" xmlns="http://www.w3.org/2000/svg">
<path d="M0.803639 47C0.517054 47 0.230469 46.7134 0.230469 46.4268V33.3585C0.230469 33.072 0.517054 32.7854 0.803639 32.7854H4.12803V20.2902C4.12803 20.0037 4.41462 19.7171 4.7012 19.7171H8.82803V17.6537C8.82803 12.6098 12.611 8.48293 17.5975 8.02439H17.8841V6.07561H12.8975C12.611 6.07561 12.3244 5.78902 12.3244 5.50244V1.71951C12.3244 1.43293 12.611 1.14634 12.8975 1.14634H17.8841V0.573171C17.8841 0.286585 18.228 0 18.5146 0C18.8012 0 19.0878 0.286585 19.0878 0.573171V8.02439H19.3744C24.3036 8.48293 28.1439 12.7244 28.1439 17.6537V19.7171H32.2707C32.5573 19.7171 32.8439 20.0037 32.8439 20.2902V32.7854H36.1683C36.4549 32.7854 36.7414 33.0719 36.7988 33.4159V46.4268C36.7988 46.7134 36.5122 47 36.2256 47H0.803639ZM1.31949 45.8537H35.5951V33.9317H1.31949V45.8537ZM5.21705 32.7854H31.6402V20.8634H5.21705V32.7854ZM18.4573 9.17073C13.7573 9.17073 9.97437 12.9537 9.97437 17.6537V19.7171H26.9402V17.6537C26.9402 12.9537 23.1573 9.17073 18.4573 9.17073ZM13.4707 4.92927H17.8841V2.29268H13.4707V4.92927Z" fill="#0068FA"/>
<path d="M7.9677 42.5293C7.68112 42.5293 7.39453 42.2427 7.39453 41.9561V37.8866C7.39453 37.6 7.68112 37.3134 7.9677 37.3134C8.25429 37.3134 8.54087 37.5427 8.54087 37.8866V41.9561C8.54087 42.2427 8.25429 42.5293 7.9677 42.5293Z" fill="#0068FA"/>
<path d="M13.1825 42.5293C12.896 42.5293 12.6094 42.2427 12.6094 41.9561V37.8866C12.6094 37.6 12.896 37.3134 13.1825 37.3134C13.5264 37.3134 13.7557 37.5427 13.7557 37.8866V41.9561C13.7557 42.2427 13.4691 42.5293 13.1825 42.5293Z" fill="#0068FA"/>
<path d="M28.9482 42.5293C28.6616 42.5293 28.375 42.2427 28.375 41.9561V37.8866C28.375 37.6 28.6616 37.3134 28.9482 37.3134C29.2921 37.3134 29.5213 37.5427 29.5213 37.8866V41.9561C29.5213 42.2427 29.2348 42.5293 28.9482 42.5293Z" fill="#0068FA"/>
<path d="M23.7294 42.5293C23.4428 42.5293 23.1562 42.2427 23.1562 41.9561V37.8866C23.1562 37.6 23.4428 37.3134 23.7294 37.3134C24.016 37.3134 24.3026 37.5427 24.3026 37.8866V41.9561C24.3026 42.2427 24.016 42.5293 23.7294 42.5293Z" fill="#0068FA"/>
<path d="M18.456 42.5293C18.1694 42.5293 17.8828 42.2427 17.8828 41.9561V37.8866C17.8828 37.6 18.1694 37.3134 18.456 37.3134C18.7426 37.3134 19.0292 37.5427 19.0292 37.8866V41.9561C19.0292 42.2427 18.7426 42.5293 18.456 42.5293Z" fill="#0068FA"/>
<path d="M10.5458 29.461C10.2592 29.461 9.97266 29.1744 9.97266 28.8878V24.8183C9.97266 24.5317 10.2592 24.2451 10.5458 24.2451C10.8897 24.2451 11.119 24.4744 11.119 24.8183V28.8878C11.119 29.1744 10.8324 29.461 10.5458 29.461Z" fill="#0068FA"/>
<path d="M15.8193 29.461C15.5327 29.461 15.2461 29.1744 15.2461 28.8878V24.8183C15.2461 24.5317 15.5327 24.2451 15.8193 24.2451C16.1058 24.2451 16.3924 24.4744 16.3924 24.8183V28.8878C16.3924 29.1744 16.1058 29.461 15.8193 29.461Z" fill="#0068FA"/>
<path d="M26.3661 29.461C26.0796 29.461 25.793 29.1744 25.793 28.8878V24.8183C25.793 24.5317 26.0796 24.2451 26.3661 24.2451C26.6527 24.2451 26.9393 24.4744 26.9393 24.8183V28.8878C26.9393 29.1744 26.6527 29.461 26.3661 29.461Z" fill="#0068FA"/>
<path d="M21.0927 29.461C20.8061 29.461 20.5195 29.1744 20.5195 28.8878V24.8183C20.5195 24.5317 20.8061 24.2451 21.0927 24.2451C21.3793 24.2451 21.6659 24.4171 21.6659 24.8183V28.8878C21.6659 29.1744 21.3793 29.461 21.0927 29.461Z" fill="#0068FA"/>
</svg>
