<svg width="44" height="44" viewBox="0 0 44 44" fill="none" xmlns="http://www.w3.org/2000/svg">
<path d="M28.5135 33.5849C28.6132 33.6465 28.727 33.6816 28.8441 33.6868C28.9612 33.6921 29.0777 33.6673 29.1825 33.6149L37.4325 29.4899C37.5467 29.4328 37.6427 29.345 37.7098 29.2364C37.7769 29.1278 37.8125 29.0026 37.8125 28.875C37.8125 28.7473 37.7769 28.6222 37.7098 28.5136C37.6427 28.405 37.5467 28.3172 37.4325 28.2601L29.1825 24.1351C29.0777 24.0827 28.9612 24.0579 28.8441 24.0632C28.7271 24.0685 28.6133 24.1036 28.5136 24.1652C28.4139 24.2268 28.3316 24.3128 28.2745 24.4152C28.2175 24.5175 28.1875 24.6328 28.1875 24.75V33C28.1875 33.1172 28.2174 33.2324 28.2745 33.3348C28.3316 33.4372 28.4139 33.5232 28.5135 33.5849ZM29.5625 25.8624L35.5877 28.875L29.5625 31.8876V25.8624Z" fill="#0068FA"/>
<path d="M42.625 18.5625H23.375C23.1927 18.5625 23.0178 18.6349 22.8889 18.7639C22.7599 18.8928 22.6875 19.0677 22.6875 19.25V38.5C22.6875 38.6823 22.7599 38.8572 22.8889 38.9861C23.0178 39.1151 23.1927 39.1875 23.375 39.1875H35.4655L39.3886 43.1114C39.4847 43.2077 39.6073 43.2732 39.7407 43.2998C39.8742 43.3264 40.0125 43.3128 40.1382 43.2607C40.2639 43.2086 40.3713 43.1204 40.4468 43.0072C40.5223 42.8941 40.5626 42.7611 40.5625 42.625V39.1875H42.625C42.8073 39.1875 42.9822 39.1151 43.1111 38.9861C43.2401 38.8572 43.3125 38.6823 43.3125 38.5V19.25C43.3125 19.0677 43.2401 18.8928 43.1111 18.7639C42.9822 18.6349 42.8073 18.5625 42.625 18.5625ZM41.9375 37.8125H39.875C39.6927 37.8125 39.5178 37.8849 39.3889 38.0139C39.2599 38.1428 39.1875 38.3177 39.1875 38.5V40.9655L36.2364 38.0136C36.1073 37.8848 35.9324 37.8124 35.75 37.8125H24.0625V19.9375H41.9375V37.8125Z" fill="#0068FA"/>
<path d="M20.625 0.6875H1.375C1.19266 0.6875 1.0178 0.759933 0.888864 0.888864C0.759933 1.0178 0.6875 1.19266 0.6875 1.375V20.625C0.6875 20.8073 0.759933 20.9822 0.888864 21.1111C1.0178 21.2401 1.19266 21.3125 1.375 21.3125H3.4375V24.75C3.43739 24.8861 3.47766 25.0191 3.55319 25.1322C3.62873 25.2454 3.73614 25.3336 3.86183 25.3857C3.98752 25.4378 4.12584 25.4514 4.25927 25.4248C4.39271 25.3982 4.51526 25.3327 4.61141 25.2364L8.53445 21.3125H20.625C20.8073 21.3125 20.9822 21.2401 21.1111 21.1111C21.2401 20.9822 21.3125 20.8073 21.3125 20.625V1.375C21.3125 1.19266 21.2401 1.0178 21.1111 0.888864C20.9822 0.759933 20.8073 0.6875 20.625 0.6875ZM19.9375 19.9375H8.25C8.06762 19.9374 7.89268 20.0098 7.76359 20.1386L4.8125 23.0905V20.625C4.8125 20.4427 4.74007 20.2678 4.61114 20.1389C4.4822 20.0099 4.30734 19.9375 4.125 19.9375H2.0625V2.0625H19.9375V19.9375Z" fill="#0068FA"/>
<path d="M16.1949 5.53008C16.1009 5.46747 15.993 5.42885 15.8807 5.41761C15.7683 5.40638 15.6549 5.42286 15.5504 5.46563L8.80086 8.25H6.53125C6.07555 8.25046 5.63864 8.43169 5.31641 8.75392C4.99418 9.07614 4.81296 9.51305 4.8125 9.96875V10.6563C4.81312 11.073 4.96509 11.4754 5.24013 11.7886C5.51518 12.1017 5.89459 12.3043 6.30781 12.3587L6.88875 15.2599C6.91977 15.4158 7.00388 15.556 7.12674 15.6568C7.2496 15.7575 7.4036 15.8126 7.5625 15.8125H9.625C9.72673 15.8126 9.82721 15.79 9.91917 15.7465C10.0111 15.703 10.0923 15.6396 10.1568 15.5609C10.2212 15.4822 10.2674 15.3902 10.292 15.2915C10.3165 15.1928 10.3188 15.0898 10.2987 14.9901L9.86391 12.8133L15.5504 15.1594C15.6549 15.2025 15.7683 15.2191 15.8808 15.2079C15.9932 15.1967 16.1012 15.1579 16.195 15.095C16.2889 15.0322 16.3659 14.9471 16.4191 14.8474C16.4723 14.7477 16.5001 14.6364 16.5 14.5234V6.10157C16.5 5.98858 16.4721 5.87734 16.4189 5.77767C16.3657 5.678 16.2888 5.59297 16.1949 5.53008ZM6.53125 11C6.44008 11 6.35265 10.9638 6.28818 10.8993C6.22372 10.8349 6.1875 10.7474 6.1875 10.6563V9.96875C6.1875 9.87758 6.22372 9.79015 6.28818 9.72568C6.35265 9.66122 6.44008 9.625 6.53125 9.625H8.25V11H6.53125ZM8.12625 14.4375L7.71375 12.375H8.37375L8.78625 14.4375H8.12625ZM15.125 13.4965L9.625 11.2277V9.39727L15.125 7.12852V13.4965Z" fill="#0068FA"/>
<path d="M23.375 17.1875H38.5C38.6823 17.1875 38.8572 17.1151 38.9861 16.9861C39.1151 16.8572 39.1875 16.6823 39.1875 16.5V6.875C39.1875 6.69266 39.1151 6.5178 38.9861 6.38886C38.8572 6.25993 38.6823 6.1875 38.5 6.1875H23.375C23.1927 6.1875 23.0178 6.25993 22.8889 6.38886C22.7599 6.5178 22.6875 6.69266 22.6875 6.875V16.5C22.6875 16.6823 22.7599 16.8572 22.8889 16.9861C23.0178 17.1151 23.1927 17.1875 23.375 17.1875ZM24.0625 7.5625H37.8125V15.8125H24.0625V7.5625Z" fill="#0068FA"/>
<path d="M35.75 11H26.125C25.9427 11 25.7678 11.0724 25.6389 11.2014C25.5099 11.3303 25.4375 11.5052 25.4375 11.6875C25.4375 11.8698 25.5099 12.0447 25.6389 12.1736C25.7678 12.3026 25.9427 12.375 26.125 12.375H35.75C35.9323 12.375 36.1072 12.3026 36.2361 12.1736C36.3651 12.0447 36.4375 11.8698 36.4375 11.6875C36.4375 11.5052 36.3651 11.3303 36.2361 11.2014C36.1072 11.0724 35.9323 11 35.75 11Z" fill="#0068FA"/>
<path d="M35.75 8.9375H26.125C25.9427 8.9375 25.7678 9.00993 25.6389 9.13886C25.5099 9.2678 25.4375 9.44266 25.4375 9.625C25.4375 9.80734 25.5099 9.9822 25.6389 10.1111C25.7678 10.2401 25.9427 10.3125 26.125 10.3125H35.75C35.9323 10.3125 36.1072 10.2401 36.2361 10.1111C36.3651 9.9822 36.4375 9.80734 36.4375 9.625C36.4375 9.44266 36.3651 9.2678 36.2361 9.13886C36.1072 9.00993 35.9323 8.9375 35.75 8.9375Z" fill="#0068FA"/>
<path d="M31.5391 13.0625H26.125C25.9427 13.0625 25.7678 13.1349 25.6389 13.2639C25.5099 13.3928 25.4375 13.5677 25.4375 13.75C25.4375 13.9323 25.5099 14.1072 25.6389 14.2361C25.7678 14.3651 25.9427 14.4375 26.125 14.4375H31.5391C31.7214 14.4375 31.8963 14.3651 32.0252 14.2361C32.1541 14.1072 32.2266 13.9323 32.2266 13.75C32.2266 13.5677 32.1541 13.3928 32.0252 13.2639C31.8963 13.1349 31.7214 13.0625 31.5391 13.0625Z" fill="#0068FA"/>
<path d="M34.375 13.0625H33.6875C33.5052 13.0625 33.3303 13.1349 33.2014 13.2639C33.0724 13.3928 33 13.5677 33 13.75C33 13.9323 33.0724 14.1072 33.2014 14.2361C33.3303 14.3651 33.5052 14.4375 33.6875 14.4375H34.375C34.5573 14.4375 34.7322 14.3651 34.8611 14.2361C34.9901 14.1072 35.0625 13.9323 35.0625 13.75C35.0625 13.5677 34.9901 13.3928 34.8611 13.2639C34.7322 13.1349 34.5573 13.0625 34.375 13.0625Z" fill="#0068FA"/>
<path d="M21.3125 23.375H7.5625C7.38016 23.375 7.2053 23.4474 7.07636 23.5764C6.94743 23.7053 6.875 23.8802 6.875 24.0625V32.3125C6.875 32.4948 6.94743 32.6697 7.07636 32.7986C7.2053 32.9276 7.38016 33 7.5625 33H21.3125C21.4948 33 21.6697 32.9276 21.7986 32.7986C21.9276 32.6697 22 32.4948 22 32.3125V24.0625C22 23.8802 21.9276 23.7053 21.7986 23.5764C21.6697 23.4474 21.4948 23.375 21.3125 23.375ZM20.625 31.625H8.25V24.75H20.625V31.625Z" fill="#0068FA"/>
<path d="M9.625 28.875H19.25C19.4323 28.875 19.6072 28.8026 19.7361 28.6736C19.8651 28.5447 19.9375 28.3698 19.9375 28.1875C19.9375 28.0052 19.8651 27.8303 19.7361 27.7014C19.6072 27.5724 19.4323 27.5 19.25 27.5H9.625C9.44266 27.5 9.2678 27.5724 9.13886 27.7014C9.00993 27.8303 8.9375 28.0052 8.9375 28.1875C8.9375 28.3698 9.00993 28.5447 9.13886 28.6736C9.2678 28.8026 9.44266 28.875 9.625 28.875Z" fill="#0068FA"/>
<path d="M9.625 26.8125H19.25C19.4323 26.8125 19.6072 26.7401 19.7361 26.6111C19.8651 26.4822 19.9375 26.3073 19.9375 26.125C19.9375 25.9427 19.8651 25.7678 19.7361 25.6389C19.6072 25.5099 19.4323 25.4375 19.25 25.4375H9.625C9.44266 25.4375 9.2678 25.5099 9.13886 25.6389C9.00993 25.7678 8.9375 25.9427 8.9375 26.125C8.9375 26.3073 9.00993 26.4822 9.13886 26.6111C9.2678 26.7401 9.44266 26.8125 9.625 26.8125Z" fill="#0068FA"/>
<path d="M9.625 30.9375H15.0391C15.2214 30.9375 15.3963 30.8651 15.5252 30.7361C15.6541 30.6072 15.7266 30.4323 15.7266 30.25C15.7266 30.0677 15.6541 29.8928 15.5252 29.7639C15.3963 29.6349 15.2214 29.5625 15.0391 29.5625H9.625C9.44266 29.5625 9.2678 29.6349 9.13886 29.7639C9.00993 29.8928 8.9375 30.0677 8.9375 30.25C8.9375 30.4323 9.00993 30.6072 9.13886 30.7361C9.2678 30.8651 9.44266 30.9375 9.625 30.9375Z" fill="#0068FA"/>
<path d="M17.875 29.5625H17.1875C17.0052 29.5625 16.8303 29.6349 16.7014 29.7639C16.5724 29.8928 16.5 30.0677 16.5 30.25C16.5 30.4323 16.5724 30.6072 16.7014 30.7361C16.8303 30.8651 17.0052 30.9375 17.1875 30.9375H17.875C18.0573 30.9375 18.2322 30.8651 18.3611 30.7361C18.4901 30.6072 18.5625 30.4323 18.5625 30.25C18.5625 30.0677 18.4901 29.8928 18.3611 29.7639C18.2322 29.6349 18.0573 29.5625 17.875 29.5625Z" fill="#0068FA"/>
</svg>
