<svg width="46" height="46" viewBox="0 0 46 46" fill="none" xmlns="http://www.w3.org/2000/svg">
<path d="M6.1349 31.4332H5.36823C4.94484 31.4332 4.60156 31.7765 4.60156 32.1998V32.9665C4.60156 33.3899 4.94484 33.7332 5.36823 33.7332H6.1349C6.55829 33.7332 6.90156 33.3899 6.90156 32.9665V32.1998C6.90156 31.7765 6.55829 31.4332 6.1349 31.4332Z" fill="#0068FA"/>
<path d="M42.1661 40.6332H41.3995C40.9761 40.6332 40.6328 40.9765 40.6328 41.3998V42.1665C40.6328 42.5899 40.9761 42.9332 41.3995 42.9332H42.1661C42.5895 42.9332 42.9328 42.5899 42.9328 42.1665V41.3998C42.9328 40.9765 42.5895 40.6332 42.1661 40.6332Z" fill="#0068FA"/>
<path d="M37.5646 40.6332H36.7979C36.3745 40.6332 36.0312 40.9765 36.0312 41.3999V42.1665C36.0312 42.5899 36.3745 42.9332 36.7979 42.9332H37.5646C37.988 42.9332 38.3313 42.5899 38.3313 42.1665V41.3999C38.3313 40.9765 37.988 40.6332 37.5646 40.6332Z" fill="#0068FA"/>
<path d="M32.9591 40.6332H32.1924C31.7691 40.6332 31.4258 40.9765 31.4258 41.3999V42.1665C31.4258 42.5899 31.7691 42.9332 32.1924 42.9332H32.9591C33.3825 42.9332 33.7258 42.5899 33.7258 42.1665V41.3999C33.7258 40.9765 33.3825 40.6332 32.9591 40.6332Z" fill="#0068FA"/>
<path d="M28.3654 40.6332H27.5987C27.1753 40.6332 26.832 40.9765 26.832 41.3998V42.1665C26.832 42.5899 27.1753 42.9332 27.5987 42.9332H28.3654C28.7888 42.9332 29.132 42.5899 29.132 42.1665V41.3998C29.132 40.9765 28.7888 40.6332 28.3654 40.6332Z" fill="#0068FA"/>
<path d="M45.2324 4.5999C45.2321 4.5999 45.2318 4.5999 45.2315 4.5999H39.0982V0.766571C39.0986 0.343563 38.7559 0.0002875 38.3327 0C38.2833 0 38.234 0.00469583 38.1855 0.0141833L14.4188 4.61418L14.4217 4.62885C14.0633 4.69248 13.8011 5.0026 13.7982 5.36667V8.43333C13.7979 8.85653 14.1408 9.19971 14.564 9.2C14.5643 9.2 14.5646 9.2 14.5648 9.2V14.5667H13.0315C12.6083 14.5664 12.2651 14.9093 12.2648 15.3325C12.2648 15.3328 12.2648 15.333 12.2648 15.3333V17.6333H10.7315C10.3083 17.633 9.96513 17.9759 9.96484 18.3991C9.96484 18.3994 9.96484 18.3997 9.96484 18.4V24.5333C9.96456 24.9565 10.3074 25.2997 10.7306 25.3C10.7309 25.3 10.7312 25.3 10.7315 25.3H19.9315C20.3547 25.3003 20.6979 24.9574 20.6982 24.5342C20.6982 24.5339 20.6982 24.5336 20.6982 24.5333V18.4C20.6985 17.9768 20.3556 17.6336 19.9324 17.6333C19.9321 17.6333 19.9318 17.6333 19.9315 17.6333H18.3982V15.3333C18.3985 14.9101 18.0556 14.567 17.6324 14.5667C17.6321 14.5667 17.6318 14.5667 17.6315 14.5667H16.0982V9.2H30.5379L26.1738 37.5667H24.5315C24.1083 37.5664 23.7651 37.9093 23.7648 38.3325C23.7648 38.3328 23.7648 38.333 23.7648 38.3333V45.2333C23.7646 45.6565 24.1074 45.9997 24.5306 46C24.5309 46 24.5312 46 24.5315 46H45.2315C45.6547 46.0003 45.9979 45.6574 45.9982 45.2342C45.9982 45.2339 45.9982 45.2336 45.9982 45.2333V38.3333C45.9985 37.9101 45.6556 37.567 45.2324 37.5667C45.2321 37.5667 45.2318 37.5667 45.2315 37.5667H43.5892L39.2251 9.2H45.2315C45.6547 9.20029 45.9979 8.8574 45.9982 8.4342C45.9982 8.43391 45.9982 8.43362 45.9982 8.43333V5.36667C45.9985 4.94337 45.6556 4.60019 45.2324 4.5999ZM37.5648 1.69567V4.5999H22.5596L37.5648 1.69567ZM19.1648 19.1666V23.7666H11.4982V19.1666H19.1648ZM16.8648 16.0999V17.6332H13.7982V16.0999H16.8648ZM30.4961 19.5561L38.8249 23.7202L29.2082 27.9276L30.4961 19.5561ZM37.2571 13.8629L30.8814 17.051L31.7266 11.5574L37.2571 13.8629ZM31.9667 9.99637L32.0893 9.1999H37.6738L38.1958 12.5933L31.9667 9.99637ZM44.4648 39.0999V44.4666H25.2982V39.0999H44.4648ZM42.0376 37.5666H27.7254L28.8502 30.255L41.9754 37.1623L42.0376 37.5666ZM41.6854 35.2772L30.1317 29.1969L40.0804 24.8442L41.6854 35.2772ZM39.7121 22.4496L31.6127 18.4L38.5551 14.9288L39.7121 22.4496ZM44.4648 7.66657H15.3315V6.13324H44.4648V7.66657Z" fill="#0068FA"/>
<path d="M21.5875 35.6266C21.4474 35.4026 21.2019 35.2665 20.9377 35.2664H9.96695V29.1331C9.96724 28.7099 9.62435 28.3667 9.20115 28.3664C9.20086 28.3664 9.20057 28.3664 9.20029 28.3664H2.30029C1.87709 28.3661 1.53391 28.709 1.53362 29.1322C1.53362 29.1325 1.53362 29.1328 1.53362 29.1331V35.2664H0.766954C0.343659 35.2661 0.000287784 35.609 2.84105e-07 36.0323C-9.55492e-05 36.1435 0.0240544 36.2534 0.0706294 36.3543L3.80295 44.4428C3.72792 44.4558 3.65211 44.4636 3.57612 44.4664C3.08334 44.4649 2.61462 44.2533 2.28764 43.8847C1.68437 43.2726 0.859817 42.9296 0.000383617 42.9331V44.4664C0.493159 44.468 0.961879 44.6796 1.28886 45.0481C2.54428 46.3113 4.58601 46.3177 5.84919 45.0623C5.85388 45.0576 5.85867 45.0528 5.86337 45.0481C6.49041 44.3367 7.57534 44.2682 8.2868 44.8953C8.34095 44.943 8.39193 44.994 8.43966 45.0481C9.69555 46.3116 11.7379 46.3177 13.0012 45.0618C13.0055 45.0575 13.0099 45.0532 13.0142 45.0489C13.6441 44.3356 14.7329 44.268 15.4462 44.898C15.4996 44.9451 15.55 44.9955 15.5972 45.0489C16.8564 46.3131 18.9022 46.3172 20.1664 45.0579C20.1694 45.0549 20.1724 45.0519 20.1754 45.0489C20.5033 44.6797 20.9731 44.4679 21.467 44.4664V42.9331C20.6072 42.9294 19.7822 43.2721 19.1782 43.8839C18.85 44.2533 18.38 44.4652 17.8859 44.4664C17.8247 44.4634 17.7637 44.457 17.7031 44.4474L21.6272 36.3677C21.7425 36.1304 21.7275 35.8503 21.5875 35.6266ZM3.06695 29.8998H8.43362V35.2664H3.06695V29.8998ZM16.3656 43.6925C15.7981 43.1902 15.0627 42.9192 14.3049 42.9332C13.4454 42.9294 12.6206 43.2721 12.0169 43.884C11.3894 44.5963 10.3033 44.6649 9.59109 44.0374C9.53705 43.9897 9.48606 43.9389 9.43843 43.8848C8.83516 43.2727 8.01061 42.9297 7.15118 42.9332C6.41115 42.9189 5.69192 43.1787 5.13187 43.6626L1.96497 36.7999H19.7128L16.3656 43.6925Z" fill="#0068FA"/>
</svg>
