<svg width="16" height="16" viewBox="0 0 16 16" fill="none" xmlns="http://www.w3.org/2000/svg">
<path fill-rule="evenodd" clip-rule="evenodd" d="M11.9576 11.0171L15.8041 14.8637C16.0653 15.1216 16.0653 15.5461 15.8041 15.8041C15.5429 16.0653 15.1216 16.0653 14.8604 15.8041L11.0139 11.9608C9.85143 12.9143 8.36571 13.4857 6.74286 13.4857C3.01714 13.4857 0 10.4653 0 6.74286C0 3.02041 3.01714 0 6.74286 0C10.4653 0 13.4857 3.02041 13.4857 6.74286C13.4857 8.36571 12.911 9.85469 11.9576 11.0171ZM1.33828 6.74366C1.33828 9.72162 3.76114 12.1445 6.74236 12.1445C9.72032 12.1445 12.1464 9.72162 12.1464 6.74366C12.1464 3.76571 9.72032 1.33958 6.74236 1.33958C3.76114 1.33958 1.33828 3.76571 1.33828 6.74366Z" fill="white"/>
</svg>
