<svg width="53" height="46" viewBox="0 0 53 46" fill="none" xmlns="http://www.w3.org/2000/svg">
<path d="M40.495 45.4531C40.0378 45.4531 39.6686 45.0839 39.6686 44.6267V19.0077H13.2232V44.6267C13.2232 45.0839 12.8539 45.4531 12.3967 45.4531C11.9395 45.4531 11.5703 45.0839 11.5703 44.6267V18.1812C11.5703 17.7241 11.9395 17.3548 12.3967 17.3548H40.495C40.9522 17.3548 41.3214 17.7241 41.3214 18.1812V44.6267C41.3214 45.0839 40.9522 45.4531 40.495 45.4531Z" fill="#0068FA"/>
<path d="M52.0645 45.4531H0.82642C0.369226 45.4531 0 45.0839 0 44.6267C0 44.1695 0.369226 43.8003 0.82642 43.8003H52.0645C52.5217 43.8003 52.8909 44.1695 52.8909 44.6267C52.8909 45.0839 52.5217 45.4531 52.0645 45.4531Z" fill="#0068FA"/>
<path d="M16.5256 45.4531C16.0684 45.4531 15.6992 45.0839 15.6992 44.6267V22.3134C15.6992 21.8562 16.0684 21.4869 16.5256 21.4869C16.9828 21.4869 17.3521 21.8562 17.3521 22.3134V44.6267C17.3521 45.0839 16.9828 45.4531 16.5256 45.4531Z" fill="#0068FA"/>
<path d="M36.3597 23.1398H16.5256C16.0684 23.1398 15.6992 22.7706 15.6992 22.3134C15.6992 21.8562 16.0684 21.4869 16.5256 21.4869H36.3597C36.8169 21.4869 37.1861 21.8562 37.1861 22.3134C37.1861 22.7706 36.8169 23.1398 36.3597 23.1398Z" fill="#0068FA"/>
<path d="M36.3616 45.4531C35.9044 45.4531 35.5352 45.0839 35.5352 44.6267V22.3134C35.5352 21.8562 35.9044 21.4869 36.3616 21.4869C36.8188 21.4869 37.188 21.8562 37.188 22.3134V44.6267C37.188 45.0839 36.8188 45.4531 36.3616 45.4531Z" fill="#0068FA"/>
<path d="M20.6585 45.4531C20.2013 45.4531 19.832 45.0839 19.832 44.6267V33.0568C19.832 32.5996 20.2013 32.2304 20.6585 32.2304C21.1156 32.2304 21.4849 32.5996 21.4849 33.0568V44.6267C21.4849 45.0839 21.1156 45.4531 20.6585 45.4531Z" fill="#0068FA"/>
<path d="M32.2283 33.8832H20.6585C20.2013 33.8832 19.832 33.514 19.832 33.0568C19.832 32.5996 20.2013 32.2304 20.6585 32.2304H32.2283C32.6855 32.2304 33.0548 32.5996 33.0548 33.0568C33.0548 33.514 32.6855 33.8832 32.2283 33.8832Z" fill="#0068FA"/>
<path d="M32.2327 45.4531C31.7755 45.4531 31.4062 45.0839 31.4062 44.6267V33.0568C31.4062 32.5996 31.7755 32.2304 32.2327 32.2304C32.6899 32.2304 33.0591 32.5996 33.0591 33.0568V44.6267C33.0591 45.0839 32.6899 45.4531 32.2327 45.4531Z" fill="#0068FA"/>
<path d="M26.4475 45.4531C25.9903 45.4531 25.6211 45.0839 25.6211 44.6267V33.0568C25.6211 32.5996 25.9903 32.2304 26.4475 32.2304C26.9047 32.2304 27.2739 32.5996 27.2739 33.0568V44.6267C27.2739 45.0839 26.9047 45.4531 26.4475 45.4531Z" fill="#0068FA"/>
<path d="M32.2283 30.5776H20.6585C20.2013 30.5776 19.832 30.2083 19.832 29.7511V27.2719C19.832 26.8147 20.2013 26.4455 20.6585 26.4455H32.2283C32.6855 26.4455 33.0548 26.8147 33.0548 27.2719V29.7511C33.0548 30.2083 32.6855 30.5776 32.2283 30.5776ZM21.4849 28.9247H31.4019V28.0983H21.4849V28.9247Z" fill="#0068FA"/>
<path d="M24.7913 19.0076C24.3341 19.0076 23.9648 18.6384 23.9648 18.1812V15.5167C23.9648 15.0599 24.3341 14.6903 24.7913 14.6903C25.2485 14.6903 25.6177 15.0599 25.6177 15.5167V18.1812C25.6177 18.6384 25.2485 19.0076 24.7913 19.0076Z" fill="#0068FA"/>
<path d="M28.0999 19.0076C27.6427 19.0076 27.2734 18.6384 27.2734 18.1812V15.5167C27.2734 15.0599 27.6427 14.6903 28.0999 14.6903C28.5571 14.6903 28.9263 15.0599 28.9263 15.5167V18.1812C28.9263 18.6384 28.5571 19.0076 28.0999 19.0076Z" fill="#0068FA"/>
<path d="M26.4439 16.5284C21.8869 16.5284 18.1797 12.8212 18.1797 8.2642C18.1797 3.70719 21.8869 0 26.4439 0C31.0009 0 34.7081 3.70719 34.7081 8.2642C34.7081 12.8212 31.0009 16.5284 26.4439 16.5284ZM26.4439 1.65284C22.7984 1.65284 19.8325 4.61875 19.8325 8.2642C19.8325 11.9097 22.7984 14.8756 26.4439 14.8756C30.0893 14.8756 33.0553 11.9097 33.0553 8.2642C33.0553 4.61875 30.0893 1.65284 26.4439 1.65284Z" fill="#0068FA"/>
<path d="M29.7503 12.3963H23.1389C22.6817 12.3963 22.3125 12.0271 22.3125 11.5699C22.3125 11.1127 22.6817 10.7435 23.1389 10.7435H29.7503C30.2075 10.7435 30.5767 11.1127 30.5767 11.5699C30.5767 12.0271 30.2075 12.3963 29.7503 12.3963Z" fill="#0068FA"/>
<path d="M23.1389 12.3963C22.6817 12.3963 22.3125 12.0271 22.3125 11.5699V7.43778C22.3125 6.98058 22.6817 6.61136 23.1389 6.61136C23.5961 6.61136 23.9653 6.98058 23.9653 7.43778V11.5699C23.9653 12.0271 23.5961 12.3963 23.1389 12.3963Z" fill="#0068FA"/>
<path d="M29.7522 12.3963C29.295 12.3963 28.9258 12.0271 28.9258 11.5699V7.43778C28.9258 6.98058 29.295 6.61136 29.7522 6.61136C30.2094 6.61136 30.5786 6.98058 30.5786 7.43778V11.5699C30.5786 12.0271 30.2094 12.3963 29.7522 12.3963Z" fill="#0068FA"/>
<path d="M28.0969 7.43779C27.6398 7.43779 27.2705 7.06857 27.2705 6.61137C27.2705 6.15539 26.9001 5.78495 26.4441 5.78495C25.9881 5.78495 25.6177 6.15539 25.6177 6.61137C25.6177 7.06857 25.2485 7.43779 24.7913 7.43779C24.3341 7.43779 23.9648 7.06857 23.9648 6.61137C23.9648 5.24463 25.0774 4.13211 26.4441 4.13211C27.8108 4.13211 28.9234 5.24463 28.9234 6.61137C28.9234 7.06857 28.5541 7.43779 28.0969 7.43779Z" fill="#0068FA"/>
<path d="M29.7503 8.2642H23.1389C22.6817 8.2642 22.3125 7.89497 22.3125 7.43778C22.3125 6.98058 22.6817 6.61136 23.1389 6.61136H29.7503C30.2075 6.61136 30.5767 6.98058 30.5767 7.43778C30.5767 7.89497 30.2075 8.2642 29.7503 8.2642Z" fill="#0068FA"/>
<path d="M24.7913 8.2642C24.3341 8.2642 23.9648 7.89498 23.9648 7.43778V6.61136C23.9648 6.15417 24.3341 5.78494 24.7913 5.78494C25.2485 5.78494 25.6177 6.15417 25.6177 6.61136V7.43778C25.6177 7.89498 25.2485 8.2642 24.7913 8.2642Z" fill="#0068FA"/>
<path d="M28.0999 8.2642C27.6427 8.2642 27.2734 7.89498 27.2734 7.43778V6.61136C27.2734 6.15417 27.6427 5.78494 28.0999 5.78494C28.5571 5.78494 28.9263 6.15417 28.9263 6.61136V7.43778C28.9263 7.89498 28.5571 8.2642 28.0999 8.2642Z" fill="#0068FA"/>
<path d="M52.0643 28.9247H40.4944C40.0372 28.9247 39.668 28.5555 39.668 28.0983C39.668 27.6411 40.0372 27.2719 40.4944 27.2719H52.0643C52.5215 27.2719 52.8907 27.6411 52.8907 28.0983C52.8907 28.5555 52.5215 28.9247 52.0643 28.9247Z" fill="#0068FA"/>
<path d="M51.2366 45.4531C50.7794 45.4531 50.4102 45.0839 50.4102 44.6267V28.0983C50.4102 27.6411 50.7794 27.2719 51.2366 27.2719C51.6938 27.2719 52.063 27.6411 52.063 28.0983V44.6267C52.063 45.0839 51.6938 45.4531 51.2366 45.4531Z" fill="#0068FA"/>
<path d="M44.6272 45.4531C44.17 45.4531 43.8008 45.0839 43.8008 44.6267V28.0983C43.8008 27.6411 44.17 27.2719 44.6272 27.2719C45.0844 27.2719 45.4536 27.6411 45.4536 28.0983V44.6267C45.4536 45.0839 45.0844 45.4531 44.6272 45.4531Z" fill="#0068FA"/>
<path d="M51.2376 33.0568H47.9319C47.4747 33.0568 47.1055 32.6876 47.1055 32.2304C47.1055 31.7732 47.4747 31.404 47.9319 31.404H51.2376C51.6948 31.404 52.064 31.7732 52.064 32.2304C52.064 32.6876 51.6948 33.0568 51.2376 33.0568Z" fill="#0068FA"/>
<path d="M44.6265 41.321H40.4944C40.0372 41.321 39.668 40.9518 39.668 40.4946C39.668 40.0374 40.0372 39.6682 40.4944 39.6682H44.6265C45.0837 39.6682 45.4529 40.0374 45.4529 40.4946C45.4529 40.9518 45.0837 41.321 44.6265 41.321Z" fill="#0068FA"/>
<path d="M44.6265 37.1889H40.4944C40.0372 37.1889 39.668 36.8197 39.668 36.3625C39.668 35.9053 40.0372 35.5361 40.4944 35.5361H44.6265C45.0837 35.5361 45.4529 35.9053 45.4529 36.3625C45.4529 36.8197 45.0837 37.1889 44.6265 37.1889Z" fill="#0068FA"/>
<path d="M44.6265 33.0568H40.4944C40.0372 33.0568 39.668 32.6876 39.668 32.2304C39.668 31.7732 40.0372 31.404 40.4944 31.404H44.6265C45.0837 31.404 45.4529 31.7732 45.4529 32.2304C45.4529 32.6876 45.0837 33.0568 44.6265 33.0568Z" fill="#0068FA"/>
<path d="M51.2376 37.1889H47.9319C47.4747 37.1889 47.1055 36.8197 47.1055 36.3625C47.1055 35.9053 47.4747 35.5361 47.9319 35.5361H51.2376C51.6948 35.5361 52.064 35.9053 52.064 36.3625C52.064 36.8197 51.6948 37.1889 51.2376 37.1889Z" fill="#0068FA"/>
<path d="M51.2376 41.321H47.9319C47.4747 41.321 47.1055 40.9518 47.1055 40.4946C47.1055 40.0374 47.4747 39.6682 47.9319 39.6682H51.2376C51.6948 39.6682 52.064 40.0374 52.064 40.4946C52.064 40.9518 51.6948 41.321 51.2376 41.321Z" fill="#0068FA"/>
<path d="M12.3963 28.9247H0.82642C0.369226 28.9247 0 28.5555 0 28.0983C0 27.6411 0.369226 27.2719 0.82642 27.2719H12.3963C12.8535 27.2719 13.2227 27.6411 13.2227 28.0983C13.2227 28.5555 12.8535 28.9247 12.3963 28.9247Z" fill="#0068FA"/>
<path d="M1.65455 45.4531C1.19735 45.4531 0.828125 45.0839 0.828125 44.6267V28.0983C0.828125 27.6411 1.19735 27.2719 1.65455 27.2719C2.11174 27.2719 2.48097 27.6411 2.48097 28.0983V44.6267C2.48097 45.0839 2.11174 45.4531 1.65455 45.4531Z" fill="#0068FA"/>
<path d="M8.26392 45.4531C7.80673 45.4531 7.4375 45.0839 7.4375 44.6267V28.0983C7.4375 27.6411 7.80673 27.2719 8.26392 27.2719C8.72111 27.2719 9.09034 27.6411 9.09034 28.0983V44.6267C9.09034 45.0839 8.72111 45.4531 8.26392 45.4531Z" fill="#0068FA"/>
<path d="M4.96023 33.0568H1.65455C1.19735 33.0568 0.828125 32.6876 0.828125 32.2304C0.828125 31.7732 1.19735 31.404 1.65455 31.404H4.96023C5.41742 31.404 5.78665 31.7732 5.78665 32.2304C5.78665 32.6876 5.41742 33.0568 4.96023 33.0568Z" fill="#0068FA"/>
<path d="M12.396 41.321H8.26392C7.80673 41.321 7.4375 40.9518 7.4375 40.4946C7.4375 40.0374 7.80673 39.6682 8.26392 39.6682H12.396C12.8532 39.6682 13.2224 40.0374 13.2224 40.4946C13.2224 40.9518 12.8532 41.321 12.396 41.321Z" fill="#0068FA"/>
<path d="M12.396 37.1889H8.26392C7.80673 37.1889 7.4375 36.8197 7.4375 36.3625C7.4375 35.9053 7.80673 35.5361 8.26392 35.5361H12.396C12.8532 35.5361 13.2224 35.9053 13.2224 36.3625C13.2224 36.8197 12.8532 37.1889 12.396 37.1889Z" fill="#0068FA"/>
<path d="M12.396 33.0568H8.26392C7.80673 33.0568 7.4375 32.6876 7.4375 32.2304C7.4375 31.7732 7.80673 31.404 8.26392 31.404H12.396C12.8532 31.404 13.2224 31.7732 13.2224 32.2304C13.2224 32.6876 12.8532 33.0568 12.396 33.0568Z" fill="#0068FA"/>
<path d="M4.96023 37.1889H1.65455C1.19735 37.1889 0.828125 36.8197 0.828125 36.3625C0.828125 35.9053 1.19735 35.5361 1.65455 35.5361H4.96023C5.41742 35.5361 5.78665 35.9053 5.78665 36.3625C5.78665 36.8197 5.41742 37.1889 4.96023 37.1889Z" fill="#0068FA"/>
<path d="M4.96023 41.321H1.65455C1.19735 41.321 0.828125 40.9518 0.828125 40.4946C0.828125 40.0374 1.19735 39.6682 1.65455 39.6682H4.96023C5.41742 39.6682 5.78665 40.0374 5.78665 40.4946C5.78665 40.9518 5.41742 41.321 4.96023 41.321Z" fill="#0068FA"/>
</svg>
