<svg width="40" height="40" viewBox="0 0 40 40" fill="none" xmlns="http://www.w3.org/2000/svg">
<path d="M0.92924 40C0.704631 40 0.486125 39.9112 0.324077 39.7473C0.110454 39.5312 0.0280562 39.2175 0.108317 38.9243L2.70872 29.4284C1.08976 26.5009 0.236186 23.1891 0.237407 19.8273C0.241984 8.89435 9.13908 0 20.0711 0C25.3735 0.00213623 30.3558 2.06757 34.1006 5.81512C37.8448 9.56299 39.906 14.545 39.9045 19.8431C39.8996 30.7764 31.0025 39.6713 20.0711 39.6713C20.0711 39.6713 20.0628 39.6713 20.0625 39.6713C16.8695 39.6701 13.7039 38.8919 10.8853 37.4179L1.145 39.9722C1.07359 39.9908 1.00096 40 0.92924 40Z" fill="#E5E5E5"/>
<path d="M1.58984 38.4862L4.18964 28.9925C2.58563 26.2142 1.74243 23.062 1.74335 19.8336C1.74731 9.73224 9.96783 1.51416 20.0682 1.51416C24.9706 1.5163 29.5717 3.42426 33.0309 6.88708C36.491 10.3499 38.3953 14.9529 38.3934 19.8479C38.3892 29.9495 30.1683 38.1685 20.0692 38.1685C20.0682 38.1685 20.0695 38.1685 20.0692 38.1685H20.0609C16.9942 38.1673 13.9806 37.3976 11.3042 35.9389L1.58984 38.4862Z" fill="#64B161"/>
<path d="M0.929688 39.1488L3.62256 29.3151C1.96149 26.437 1.08777 23.1722 1.08899 19.8275C1.09326 9.36395 9.60828 0.851074 20.0715 0.851074C25.149 0.85321 29.915 2.82953 33.499 6.41656C37.0826 10.0036 39.0556 14.7717 39.0538 19.8428C39.0492 30.306 30.533 38.8201 20.0715 38.8201C20.0709 38.8201 20.0718 38.8201 20.0715 38.8201H20.0633C16.8864 38.8189 13.7651 38.0221 10.9926 36.5099L0.929688 39.1488ZM11.4586 33.0746L12.035 33.4161C14.4569 34.8535 17.2337 35.6136 20.0654 35.6152H20.0715C28.7672 35.6152 35.8448 28.5388 35.8485 19.8416C35.85 15.6268 34.2106 11.6635 31.2318 8.68219C28.2527 5.70093 24.2918 4.05817 20.0773 4.05634C11.3746 4.05634 4.2973 11.1318 4.29395 19.8287C4.29272 22.8091 5.12646 25.7113 6.70605 28.2229L7.08142 28.8198L5.48718 34.6401L11.4586 33.0746Z" fill="white"/>
<path fill-rule="evenodd" clip-rule="evenodd" d="M15.3272 11.8942C14.972 11.1044 14.5978 11.0885 14.2597 11.0748C13.9832 11.0629 13.6667 11.0635 13.3509 11.0635C13.0347 11.0635 12.5208 11.1825 12.0862 11.657C11.6514 12.1316 10.4258 13.2791 10.4258 15.6127C10.4258 17.9467 12.1256 20.2017 12.3627 20.5184C12.5999 20.8349 15.644 25.7769 20.4648 27.6782C24.4715 29.2584 25.2866 28.944 26.1564 28.865C27.0261 28.786 28.9625 27.7175 29.3577 26.6101C29.7532 25.5026 29.7532 24.5535 29.6345 24.3548C29.5158 24.1574 29.1996 24.0386 28.7253 23.8015C28.2511 23.5644 25.9193 22.4166 25.4844 22.2586C25.0495 22.1002 24.7333 22.0214 24.4172 22.4963C24.1007 22.9705 23.1925 24.0386 22.9157 24.3548C22.6389 24.6719 22.3621 24.7116 21.8879 24.4741C21.4136 24.2364 19.8859 23.7359 18.0738 22.12C16.6639 20.863 15.7117 19.3102 15.4349 18.8354C15.1584 18.3612 15.4304 18.1268 15.6434 17.8677C16.027 17.4011 16.6706 16.5621 16.8287 16.246C16.9868 15.9292 16.9077 15.6524 16.7893 15.415C16.6706 15.1779 15.7487 12.8323 15.3272 11.8942Z" fill="white"/>
</svg>
