<svg width="54" height="44" viewBox="0 0 54 44" fill="none" xmlns="http://www.w3.org/2000/svg">
<path d="M3.7695 17.383L11.6205 15.74C12.0745 15.646 12.5195 15.937 12.6145 16.391C12.6255 16.448 12.6315 16.506 12.6325 16.562L12.6345 41.806H41.2735V16.562C41.2735 16.097 41.6505 15.72 42.1155 15.72C42.1985 15.72 42.2785 15.731 42.3535 15.754L50.1385 17.383L52.0925 8.365L36.1395 2.049C35.8655 4.1 34.9045 5.944 33.4945 7.343C31.8145 9.01 29.4985 10.046 26.9535 10.046C24.4095 10.046 22.0925 9.01 20.4125 7.343C19.0035 5.944 18.0425 4.1 17.7685 2.049L1.8155 8.365L3.7695 17.383ZM34.4665 1.846C31.9705 2.232 29.4655 2.421 26.9535 2.418C24.4425 2.416 21.9375 2.222 19.4405 1.842C19.6665 3.512 20.4495 5.013 21.5975 6.152C22.9695 7.515 24.8665 8.361 26.9535 8.361C29.0405 8.361 30.9375 7.515 32.3105 6.152C33.4565 5.014 34.2405 3.514 34.4665 1.846ZM18.7215 0.022C21.4745 0.495 24.2205 0.738 26.9535 0.741C29.6965 0.743 32.4505 0.505 35.2135 0.017L35.2155 0.016L35.2325 0.013C35.3795 -0.012 35.5365 0.000999998 35.6865 0.06L53.3755 7.062C53.7515 7.211 53.9765 7.614 53.8885 8.023L51.6065 18.554C51.5075 19.005 51.0645 19.293 50.6135 19.199L42.9585 17.596V42.649C42.9585 43.114 42.5805 43.491 42.1155 43.491H11.7915C11.3265 43.491 10.9495 43.114 10.9495 42.649V17.596L3.3015 19.199C2.8475 19.297 2.3995 19.008 2.3015 18.554L0.0255035 8.05C-0.0764965 7.646 0.134503 7.219 0.532503 7.062L18.1855 0.074C18.2905 0.026 18.4075 0 18.5305 0C18.5965 0 18.6605 0.008 18.7215 0.022ZM37.0615 15.836C37.5265 15.836 37.9045 16.213 37.9045 16.679C37.9045 17.144 37.5265 17.521 37.0615 17.521H30.3235C29.8585 17.521 29.4805 17.144 29.4805 16.679C29.4805 16.213 29.8585 15.836 30.3235 15.836H37.0615Z" fill="#0068FA"/>
</svg>
