<svg width="39" height="43" viewBox="0 0 39 43" fill="none" xmlns="http://www.w3.org/2000/svg">
<path d="M24.3245 43H4.09397C3.59856 42.9991 3.10817 42.9006 2.65081 42.7103C2.19344 42.5199 1.77806 42.2413 1.42837 41.8903C1.07868 41.5394 0.801529 41.123 0.61275 40.665C0.423972 40.207 0.327258 39.7162 0.328131 39.2208V14.6466C0.327258 14.1512 0.423972 13.6605 0.61275 13.2024C0.801529 12.7444 1.07868 12.328 1.42837 11.9771C1.77806 11.6262 2.19344 11.3476 2.65081 11.1572C3.10817 10.9668 3.59856 10.8684 4.09397 10.8675H24.3245C25.3263 10.8692 26.2865 11.268 26.9948 11.9763C27.7032 12.6847 28.1019 13.6449 28.1036 14.6466V33.323C28.1036 33.4992 28.0337 33.6681 27.9091 33.7927C27.7846 33.9172 27.6156 33.9872 27.4395 33.9872C27.2633 33.9872 27.0944 33.9172 26.9698 33.7927C26.8453 33.6681 26.7753 33.4992 26.7753 33.323V14.62C26.7736 13.9706 26.5148 13.3482 26.0556 12.889C25.5963 12.4298 24.974 12.171 24.3245 12.1693H4.09397C3.44628 12.1728 2.82632 12.4325 2.36958 12.8918C1.91284 13.351 1.65646 13.9724 1.65647 14.62V39.1943C1.65207 39.5175 1.71183 39.8383 1.83228 40.1383C1.95272 40.4382 2.13146 40.7113 2.35816 40.9417C2.58485 41.1721 2.85499 41.3552 3.15295 41.4805C3.4509 41.6058 3.77074 41.6708 4.09397 41.6716H24.3245C24.7966 41.6706 25.2582 41.5321 25.6529 41.2731C25.8008 41.1771 25.9809 41.1438 26.1534 41.1806C26.3259 41.2173 26.4767 41.3211 26.5727 41.469C26.6687 41.617 26.702 41.797 26.6653 41.9696C26.6285 42.1421 26.5248 42.2929 26.3768 42.3889C25.7666 42.7876 25.0535 42.9999 24.3245 43Z" fill="#0068FA"/>
<path d="M14.2444 38.4836H0.961043C0.784895 38.4836 0.615961 38.4136 0.491405 38.2891C0.366849 38.1645 0.296875 37.9956 0.296875 37.8194V16.0214C0.296875 15.8453 0.366849 15.6763 0.491405 15.5518C0.615961 15.4272 0.784895 15.3572 0.961043 15.3572H14.2444C14.8322 15.359 15.3954 15.5933 15.8111 16.0089C16.2267 16.4245 16.461 16.9878 16.4627 17.5756V36.2653C16.461 36.8531 16.2267 37.4163 15.8111 37.8319C15.3954 38.2476 14.8322 38.4818 14.2444 38.4836ZM1.62521 37.1552H14.2444C14.4804 37.1552 14.7068 37.0615 14.8737 36.8946C15.0406 36.7277 15.1344 36.5013 15.1344 36.2653V17.5756C15.1344 17.3395 15.0406 17.1132 14.8737 16.9462C14.7068 16.7793 14.4804 16.6856 14.2444 16.6856H1.62521V37.1552Z" fill="#0068FA"/>
<path d="M20.7272 12.1693H7.72276C7.54661 12.1693 7.37768 12.0993 7.25312 11.9747C7.12857 11.8502 7.05859 11.6812 7.05859 11.5051V7.45366C7.05859 7.27751 7.12857 7.10858 7.25312 6.98402C7.37768 6.85946 7.54661 6.78949 7.72276 6.78949H20.7272C20.9033 6.78949 21.0723 6.85946 21.1968 6.98402C21.3214 7.10858 21.3913 7.27751 21.3913 7.45366V11.5051C21.3913 11.6812 21.3214 11.8502 21.1968 11.9747C21.0723 12.0993 20.9033 12.1693 20.7272 12.1693ZM8.38693 10.8409H20.063V8.11783H8.38693V10.8409Z" fill="#0068FA"/>
<path d="M22.4612 8.12448H5.97653C5.68323 8.12623 5.39247 8.06997 5.12099 7.95894C4.84951 7.84791 4.60266 7.6843 4.39465 7.47751C4.18663 7.27073 4.02155 7.02486 3.90891 6.75405C3.79626 6.48323 3.73828 6.19282 3.73828 5.89951V5.46116C3.73915 4.80732 3.86891 4.16007 4.12013 3.55642C4.37134 2.95277 4.7391 2.40457 5.20236 1.94316C5.66561 1.48176 6.21529 1.1162 6.81994 0.8674C7.42459 0.618599 8.07235 0.491435 8.72619 0.493182H19.7115C21.0286 0.494939 22.2912 1.01891 23.2225 1.95021C24.1538 2.88151 24.6778 4.14411 24.6795 5.46116V5.89951C24.6795 6.48846 24.446 7.05338 24.0302 7.47046C23.6144 7.88753 23.0501 8.12272 22.4612 8.12448ZM8.72619 1.82152C8.24679 1.81977 7.77176 1.91258 7.32827 2.09462C6.88478 2.27667 6.48154 2.54438 6.14163 2.88244C5.80172 3.2205 5.53181 3.62227 5.34735 4.06475C5.16288 4.50724 5.06749 4.98176 5.06662 5.46116V5.89951C5.06661 6.13617 5.16017 6.36323 5.32688 6.53119C5.4936 6.69915 5.71996 6.79439 5.9566 6.79614H22.4612C22.6978 6.79439 22.9242 6.69915 23.0909 6.53119C23.2576 6.36323 23.3512 6.13617 23.3512 5.89951V5.46116C23.3494 4.49641 22.9654 3.57167 22.2832 2.88948C21.601 2.2073 20.6763 1.82327 19.7115 1.82152H8.72619Z" fill="#0068FA"/>
<path d="M27.9539 42.9999C27.0436 42.9999 26.1538 42.7299 25.397 42.2241C24.6401 41.7184 24.0502 40.9996 23.7019 40.1586C23.3536 39.3176 23.2624 38.3922 23.44 37.4994C23.6176 36.6066 24.0559 35.7865 24.6995 35.1428L31.1751 28.6672C32.0412 27.8184 33.2073 27.3457 34.4199 27.3519C35.6326 27.358 36.7938 27.8424 37.6513 28.6999C38.5088 29.5574 38.9932 30.7186 38.9993 31.9312C39.0054 33.1439 38.5328 34.3099 37.684 35.176L31.2083 41.6716C30.78 42.0963 30.272 42.4323 29.7136 42.6602C29.1551 42.8882 28.5571 43.0036 27.9539 42.9999ZM34.4296 28.6473C33.5616 28.6509 32.7296 28.9942 32.1116 29.6037L25.6559 36.0793C25.0394 36.6958 24.693 37.532 24.693 38.4039C24.693 39.2758 25.0394 40.112 25.6559 40.7285C26.2724 41.345 27.1086 41.6914 27.9805 41.6914C28.8524 41.6914 29.6886 41.345 30.3051 40.7285L36.7807 34.2529C37.2397 33.7949 37.5524 33.211 37.6792 32.5751C37.806 31.9393 37.7411 31.2801 37.4928 30.6811C37.2446 30.0822 36.8241 29.5704 36.2847 29.2107C35.7452 28.851 35.1111 28.6595 34.4628 28.6606L34.4296 28.6473Z" fill="#0068FA"/>
<path d="M33.9787 38.6164C33.8908 38.6161 33.8039 38.5983 33.7229 38.5641C33.642 38.5299 33.5686 38.4799 33.5071 38.4172L27.9347 32.8448C27.8725 32.7831 27.8231 32.7096 27.7894 32.6287C27.7556 32.5477 27.7383 32.4609 27.7383 32.3733C27.7383 32.2856 27.7556 32.1988 27.7894 32.1178C27.8231 32.0369 27.8725 31.9634 27.9347 31.9017C28.0592 31.778 28.2275 31.7086 28.403 31.7086C28.5784 31.7086 28.7468 31.778 28.8712 31.9017L34.4502 37.4807C34.5439 37.5736 34.6078 37.6923 34.6337 37.8216C34.6597 37.951 34.6465 38.0851 34.5959 38.207C34.5453 38.3288 34.4596 38.4328 34.3497 38.5057C34.2398 38.5787 34.1106 38.6172 33.9787 38.6164Z" fill="#0068FA"/>
</svg>
