<svg width="41" height="46" viewBox="0 0 41 46" fill="none" xmlns="http://www.w3.org/2000/svg">
<path d="M9.7 45.4C4.4 45.4 0 41 0 35.7V26.6C0 26.2 0.3 26 0.6 26H9V6.5H4.5C4.1 6.5 3.9 6.2 3.9 5.9V0.6C3.9 0.3 4.2 0 4.5 0H14.9C15.3 0 15.5 0.3 15.5 0.6V5.8C15.5 6.2 15.2 6.4 14.9 6.4H10.3V25.9H18.7C19.1 25.9 19.3 26.2 19.3 26.5V35.6C19.4 41 15.1 45.4 9.7 45.4ZM1.3 35.7C1.3 40.4 5.1 44.1 9.7 44.1C14.4 44.1 18.1 40.3 18.1 35.7V27.3H10.3V30.6C10.3 31 10 31.2 9.7 31.2C9.4 31.2 9.1 30.9 9.1 30.6V27.3H1.3V35.7ZM5.2 5.2H14.3V1.3H5.2V5.2Z" fill="#0068FA"/>
<path d="M30.5001 42.8C30.1001 42.8 29.9001 42.5 29.9001 42.2V28.5L29.3001 28.4C26.4001 28 23.8001 26 22.7001 23.3L20.8001 19C20.7001 18.8 20.7001 18.6 20.9001 18.4C21.0001 18.2 21.2001 18.1 21.4001 18.1H23.8001C25.6001 18.1 27.4001 18.8 28.7001 20L29.8001 21V15.5L29.2001 15.4C26.3001 15 23.7001 13 22.6001 10.3L20.8001 6.00001C20.7001 5.80001 20.7001 5.60001 20.9001 5.40001C21.0001 5.20001 21.2001 5.10001 21.4001 5.10001H23.8001C25.7001 5.10001 27.6001 5.90001 28.9001 7.20001C30.3001 8.60001 31.0001 10.4 31.0001 12.3V14.4L32.1001 13.4C33.4001 12.2 35.2001 11.5 37.0001 11.5H39.4001C39.6001 11.5 39.8001 11.6 39.9001 11.8C40.0001 12 40.0001 12.2 40.0001 12.4L38.2001 16.7C37.0001 19.4 34.5001 21.4 31.6001 21.8L31.1001 22V27.5L32.2001 26.5C33.5001 25.3 35.3001 24.6 37.1001 24.6H39.5001C39.7001 24.6 39.9001 24.7 40.0001 24.9C40.1001 25.1 40.1001 25.3 40.1001 25.5L38.3001 29.8C37.1001 32.5 34.6001 34.5 31.7001 34.9L31.1001 35V42.2C31.1001 42.5 30.8001 42.8 30.5001 42.8ZM37.1001 25.9C35.5001 25.9 34.0001 26.5 32.9001 27.7C31.8001 28.8 31.1001 30.3 31.1001 31.9V33.7L31.9001 33.5C34.2001 33 36.2001 31.4 37.1001 29.3L38.6001 25.9H37.1001ZM23.8001 22.9C24.7001 25.1 26.7001 26.7 29.0001 27.1L29.8001 27.3V25.5C29.8001 23.9 29.2001 22.4 28.0001 21.3C26.9001 20.2 25.4001 19.5 23.8001 19.5H22.3001L23.8001 22.9ZM37.1001 12.9C35.5001 12.9 34.0001 13.5 32.9001 14.7C31.8001 15.8 31.1001 17.3 31.1001 18.9V20.7L31.9001 20.5C34.2001 20 36.2001 18.4 37.1001 16.3L38.6001 12.9H37.1001ZM23.8001 9.90001C24.7001 12.1 26.7001 13.7 29.0001 14.1L29.8001 14.3V12.5C29.8001 10.9 29.2001 9.40001 28.0001 8.30001C26.9001 7.20001 25.4001 6.50001 23.8001 6.50001H22.3001L23.8001 9.90001Z" fill="#0068FA"/>
</svg>
