<svg width="191" height="93" viewBox="0 0 191 93" fill="none" xmlns="http://www.w3.org/2000/svg">
<path d="M39.3687 67.2021C39.3687 66.1511 38.5798 65.6256 37.5286 65.6256C36.6086 65.6256 35.9508 65.8889 35.294 66.2833V64.967C35.8147 64.5806 36.7258 64.3223 37.7661 64.3223C39.5873 64.3223 40.7588 65.3545 40.7588 67.0313V72.3181H39.4681V71.7012C39.2336 71.9594 38.3314 72.475 37.4283 72.475C35.8803 72.475 34.4614 71.573 34.4614 70.0253C34.4614 68.6068 35.7531 67.5747 37.4283 67.5747C38.2023 67.5747 39.3687 68.2194 39.3687 68.2194V67.2021ZM39.3687 69.6359C39.1104 68.9912 38.3374 68.6048 37.5634 68.6048C36.6602 68.6048 35.7571 68.9912 35.7571 70.0233C35.7571 70.9253 36.6602 71.4419 37.5634 71.4419C38.3374 71.4419 39.1114 71.0545 39.3687 70.4098V69.6359ZM55.9616 61.4902V72.3181H54.5706V67.4505H48.5097V72.3181H47.1187V61.4902H48.5097V66.1591H54.5706V61.4902H55.9616ZM59.2265 68.6068C59.2265 70.4118 60.388 71.3147 61.8098 71.3147C62.713 71.3147 63.3578 71.0565 64.0126 70.5409V71.7012C63.3578 72.2177 62.5838 72.3459 61.6806 72.3459C59.4878 72.3459 57.9408 70.7992 57.9408 68.3485C57.9408 65.8978 59.3596 64.222 61.4233 64.222C63.487 64.222 64.6485 65.7697 64.6087 68.0962V68.6425H59.2275L59.2265 68.6068ZM59.2265 67.5498H63.2257C63.2257 66.3896 62.5808 65.3574 61.2912 65.3574C60.388 65.4866 59.4848 66.1313 59.2265 67.5498ZM72.7809 70.53L74.47 64.5697H75.7239L73.4079 72.4174H72.1162L70.444 66.4998L68.7788 72.4174H67.4871L65.1711 64.5697H66.43L68.1191 70.53L69.673 64.5697H70.8395L72.7829 70.53H72.7809ZM78.6153 72.4174H77.3236V60.8942H78.6153V72.4174ZM81.6705 68.6068C81.6705 70.4118 82.831 71.3147 84.2539 71.3147C85.157 71.3147 85.8019 71.0565 86.4685 70.5409V71.7012C85.8019 72.2177 85.0279 72.3459 84.1257 72.3459C81.9319 72.3459 80.3848 70.7992 80.3848 68.3485C80.3848 65.8978 81.8037 64.222 83.8673 64.222C85.931 64.222 87.0925 65.7697 87.0647 68.0962V68.6425H81.6705V68.6068ZM81.6705 67.5498H85.6697C85.6697 66.3896 85.0249 65.3574 83.7352 65.3574C82.831 65.4866 81.9279 66.1313 81.6705 67.5498ZM90.8363 72.4174H89.5447V65.6624H87.8556V64.4703H89.5447V62.3842H90.8363V64.4703H92.6248V65.6624H90.8363V72.4174ZM96.7978 72.4174H95.5062V65.6624H93.8171V64.4703H95.5062V62.3842H96.7978V64.4703H98.5863V65.6624H96.7978V72.4174ZM105.641 67.9472V72.3181H104.25V61.4902H108.169C110.32 61.4902 111.71 62.6525 111.71 64.7187C111.71 66.7849 110.319 67.9472 108.169 67.9472H105.641ZM108.205 62.6823H105.641V66.6558H108.205C109.615 66.6558 110.384 65.8869 110.384 64.6044C110.509 63.5763 109.743 62.6823 108.205 62.6823ZM117.664 67.2021C117.664 66.1511 116.875 65.6256 115.824 65.6256C114.904 65.6256 114.246 65.8889 113.589 66.2823V64.967C114.11 64.5806 115.021 64.3223 116.061 64.3223C117.883 64.3223 119.054 65.3545 119.054 67.0313V72.3181H117.762V71.7012C117.527 71.9594 116.625 72.475 115.722 72.475C114.174 72.475 112.755 71.572 112.755 70.0243C112.755 68.6068 114.046 67.5747 115.722 67.5747C116.496 67.5747 117.663 68.2194 117.663 68.2194V67.2021H117.664ZM117.664 69.6379C117.406 68.9932 116.633 68.6068 115.859 68.6068C114.956 68.6068 114.052 68.9932 114.052 70.0243C114.052 70.9273 114.956 71.4429 115.859 71.4429C116.633 71.4429 117.407 71.0565 117.664 70.4118V69.6359V69.6379ZM124.344 64.3511C125.118 64.3511 125.892 64.4793 126.408 64.9958V66.2872C125.892 65.7717 125.116 65.5134 124.344 65.5134C122.925 65.5134 121.761 66.5455 121.761 68.3505C121.761 70.1555 122.922 71.1876 124.344 71.1876C125.118 71.1876 125.763 70.9293 126.408 70.4137V71.7051C125.892 72.2207 125.116 72.3498 124.344 72.3498C122.28 72.3498 120.603 70.8032 120.603 68.2233C120.602 65.8978 122.279 64.3511 124.343 64.3511H124.344ZM134.829 72.4174H133.103L129.487 68.5333V72.4174H128.195V60.8942H129.487V67.8578L133.005 64.4703H134.694L130.784 68.118L134.829 72.4174ZM140.416 67.2021C140.416 66.1511 139.627 65.6256 138.576 65.6256C137.656 65.6256 136.998 65.8889 136.341 66.2823V64.967C136.862 64.5806 137.773 64.3223 138.813 64.3223C140.635 64.3223 141.806 65.3545 141.806 67.0313V72.3181H140.515V71.7012C140.227 71.9594 139.322 72.475 138.422 72.475C136.874 72.475 135.455 71.572 135.455 70.0243C135.455 68.6068 136.747 67.5747 138.422 67.5747C139.196 67.5747 140.415 68.2194 140.415 68.2194V67.2021H140.416ZM140.317 69.6359C140.058 68.9912 139.285 68.6048 138.511 68.6048C137.608 68.6048 136.705 68.9912 136.705 70.0224C136.705 70.9253 137.608 71.4409 138.511 71.4409C139.285 71.4409 140.059 71.0545 140.317 70.4098V69.6359ZM147.669 65.7876C147.414 65.6584 147.159 65.5293 146.775 65.5293C146.008 65.5293 145.242 66.0458 144.987 66.9478V72.2128H143.695V64.371H144.987V65.4031C145.369 64.7584 146.008 64.2419 146.902 64.2419C147.286 64.2419 147.541 64.2419 147.669 64.371V65.7876ZM154.426 71.4399C154.038 71.9575 153.134 72.475 152.23 72.475C149.905 72.475 148.741 70.6631 148.741 68.3326C148.741 66.1313 150.033 64.1892 152.23 64.1892C152.651 64.1824 153.068 64.2722 153.448 64.4519C153.829 64.6315 154.163 64.8961 154.426 65.2253V60.6955H155.717V72.2187H154.426V71.4419V71.4399ZM154.426 66.7988C154.237 66.4118 153.944 66.0855 153.579 65.8572C153.214 65.6288 152.792 65.5076 152.362 65.5074C150.814 65.5074 150.04 66.6677 150.04 68.3445C150.04 70.0214 150.943 71.1816 152.362 71.1816C153.136 71.1816 153.91 70.6661 154.426 69.8902V66.8008V66.7988ZM36.7854 79.1923V80.4638H31.2213V83.9406H36.2886V85.232H31.2213V89.0069H36.7854V90.2983H29.9297V79.4505L36.7854 79.1923ZM38.4745 82.1525H39.7662V83.1817C40.2858 82.539 41.0658 82.0244 42.1051 82.0244C43.9233 82.0244 44.8334 83.1817 44.8334 84.8545V90.0002H43.4424V85.0999C43.4424 84.0678 42.9317 83.2939 41.7821 83.2939C40.8879 83.2939 40.1209 83.9386 39.8655 84.7125V90.0002H38.5739V82.0532H38.4745V82.1525ZM49.2052 89.9009H47.9135V83.1459H46.2245V82.0532H47.9135V79.9671H49.2052V82.0532H50.9937V83.1459H49.2052V89.9009ZM53.0355 86.2741C53.0355 88.079 54.196 88.982 55.6188 88.982C56.5219 88.982 57.1668 88.7237 57.8533 88.2082V89.3685C57.1668 89.885 56.3928 90.0132 55.4906 90.0132C53.2978 90.0132 51.7498 88.4665 51.7498 86.0158C51.7498 83.5651 53.1686 81.8893 55.2333 81.8893C57.2979 81.8893 58.4574 83.437 58.4495 85.7575V86.2254H53.0355V86.2741ZM53.1646 85.232H57.1628C57.1628 84.0717 56.518 83.0396 55.2283 83.0396C54.197 83.0396 53.423 83.8135 53.1646 85.232ZM64.2083 83.4717C63.953 83.3426 63.6976 83.2135 63.3141 83.2135C62.547 83.2135 61.781 83.73 61.5256 84.632V89.8969H60.234V82.0532H61.5256V83.0853C61.9082 82.4406 62.547 81.9241 63.4413 81.9241C63.8248 81.9241 64.0801 81.9241 64.2083 82.0532V83.4717ZM66.9903 92.9804H65.6987V82.1525H66.9903V83.0545C67.3778 82.539 68.282 82.0234 69.1862 82.0234C71.5111 82.0234 72.6746 83.9575 72.6746 86.1479C72.6746 88.3383 71.5121 90.2734 69.1862 90.2734C68.1538 90.2734 67.3778 89.7579 66.9903 89.2423V92.9804ZM66.9903 87.5635C67.1787 87.9505 67.472 88.2768 67.8369 88.5051C68.2018 88.7335 68.6235 88.8547 69.054 88.8549C70.602 88.8549 71.376 87.6946 71.376 86.0178C71.376 84.3409 70.4729 83.1807 69.054 83.1807C68.28 83.1807 67.506 83.6962 66.9903 84.4721V87.5675V87.5635ZM78.4165 83.4717C78.1612 83.3426 77.9058 83.2135 77.5223 83.2135C76.7553 83.2135 75.9892 83.73 75.7339 84.632V89.8969H74.4422V82.0532H75.7339V83.0853C76.1164 82.4406 76.7553 81.9241 77.6495 81.9241C78.033 81.9241 78.2884 81.9241 78.4165 82.0532V83.4717ZM80.6382 80.5999C80.4596 80.5999 80.285 80.5469 80.1364 80.4477C79.9879 80.3485 79.8721 80.2074 79.8038 80.0424C79.7354 79.8775 79.7175 79.6959 79.7524 79.5207C79.7872 79.3456 79.8733 79.1847 79.9996 79.0584C80.1259 78.9321 80.2868 78.8461 80.462 78.8113C80.6372 78.7764 80.8188 78.7943 80.9838 78.8626C81.1489 78.931 81.2899 79.0467 81.3892 79.1952C81.4884 79.3437 81.5414 79.5183 81.5414 79.6969C81.4122 80.2125 81.0257 80.5999 80.6382 80.5999ZM81.2979 89.9009H80.0063V82.0532H81.2979V89.9009ZM83.0864 87.9529C83.8614 88.5986 84.7655 88.986 85.6697 88.986C86.5739 88.986 87.3489 88.7277 87.3489 87.9529C87.3489 87.3072 86.9614 87.0489 86.1864 86.7906L85.153 86.4032C83.9906 86.0158 83.2156 85.4992 83.2156 84.2078C83.2156 82.7873 84.378 82.0125 85.928 82.0125C86.7477 82.0099 87.5521 82.2333 88.253 82.6582V84.0787C87.6072 83.5621 86.8322 83.1747 85.928 83.1747C85.153 83.1747 84.5072 83.5621 84.5072 84.2078C84.5072 84.8535 84.8947 85.1118 85.6697 85.3701L86.8322 85.7575C87.9947 86.1449 88.6405 86.7906 88.6405 87.9529C88.6405 89.3734 87.3489 90.2774 85.6697 90.2774C84.6364 90.2774 83.7322 90.0191 83.0864 89.5026V87.9529ZM91.2149 86.2741C91.2149 88.079 92.3754 88.982 93.7982 88.982C94.7014 88.982 95.3462 88.7237 96.007 88.2082V89.3685C95.3462 89.885 94.5722 90.0132 93.67 90.0132C91.4772 90.0132 89.9292 88.4665 89.9292 86.0158C89.9292 83.5651 91.348 81.8893 93.4127 81.8893C95.4774 81.8893 96.6369 83.437 96.6031 85.7575V86.2254H91.2159L91.2149 86.2741ZM91.2149 85.232H95.2131C95.2131 84.0717 94.5682 83.0396 93.2786 83.0396C92.3754 83.0396 91.4732 83.8135 91.2149 85.232ZM105.664 82.0184C106.438 82.0184 107.212 82.1466 107.727 82.6631V83.9545C107.212 83.439 106.436 83.1807 105.664 83.1807C104.245 83.1807 103.08 84.2128 103.08 86.0178C103.08 87.8227 104.242 88.8549 105.664 88.8549C106.438 88.8549 107.082 88.5966 107.727 88.081V89.3724C107.212 89.888 106.436 90.0171 105.664 90.0171C103.6 90.0171 101.923 88.4694 101.923 85.8906C101.923 83.5651 103.6 82.0184 105.664 82.0184ZM112.496 90.1423C110.304 90.1423 108.885 88.4655 108.885 86.0158C108.885 83.5661 110.304 81.8893 112.496 81.8893C114.689 81.8893 116.107 83.5661 116.107 86.0158C116.107 88.4655 114.56 90.1423 112.496 90.1423ZM112.496 83.1787C111.078 83.1787 110.304 84.339 110.304 86.1449C110.304 87.8218 111.207 89.1112 112.496 89.1112C113.915 89.1112 114.689 87.9499 114.689 86.1449C114.689 84.34 113.916 83.1787 112.496 83.1787ZM125.751 82.0244C127.294 82.0244 128.194 83.1817 128.194 84.8545V90.0002H126.902V84.9837C126.942 83.9525 126.426 83.1787 125.523 83.1787C124.749 83.1787 124.104 83.6943 123.822 84.5972V90.0996H122.531V85.0701C122.531 84.038 122.017 83.2651 121.119 83.2651C120.349 83.2651 119.707 83.7807 119.451 84.6837V90.0002H118.159V82.1525H119.451V83.0525C119.836 82.4098 120.608 82.0234 121.508 82.0234C122.537 82.0234 123.308 82.538 123.566 83.3098C123.823 82.538 124.594 82.0234 125.752 82.0234L125.751 82.0244ZM131.673 92.9804H130.381V82.1525H131.673V83.0545C132.06 82.539 132.964 82.0234 133.868 82.0234C136.193 82.0234 137.357 83.9575 137.357 86.1479C137.357 88.3383 136.194 90.2734 133.868 90.2734C132.836 90.2734 132.06 89.7579 131.673 89.2423V92.9804ZM131.673 87.5635C131.861 87.9505 132.154 88.2768 132.519 88.5051C132.884 88.7335 133.306 88.8547 133.736 88.8549C135.284 88.8549 136.058 87.6946 136.058 86.0178C136.058 84.3409 135.155 83.1807 133.736 83.1807C132.962 83.1807 132.188 83.6962 131.673 84.4721V87.5675V87.5635ZM143.596 84.7413C143.596 83.6893 142.807 83.1638 141.755 83.1638C140.835 83.1638 140.178 83.427 139.521 83.8214V82.5499C140.042 82.1635 140.953 81.9052 141.993 81.9052C143.814 81.9052 144.986 82.9373 144.986 84.6141V89.9009H143.694V89.2393C143.452 89.4976 142.549 90.0132 141.646 90.0132C140.098 90.0132 138.679 89.1112 138.679 87.5635C138.679 86.1449 139.971 85.1128 141.646 85.1128C142.42 85.1128 143.595 85.7575 143.595 85.7575V84.7403L143.596 84.7413ZM143.596 87.1761C143.337 86.5314 142.564 86.1449 141.79 86.1449C140.887 86.1449 139.984 86.5314 139.984 87.5635C139.984 88.4655 140.887 88.982 141.79 88.982C142.564 88.982 143.338 88.5946 143.596 87.9499V87.1761ZM147.073 82.1525H148.365V83.1817C148.884 82.539 149.664 82.0244 150.704 82.0244C152.522 82.0244 153.432 83.1817 153.432 84.8545V90.0002H152.041V85.0999C152.041 84.0678 151.53 83.2939 150.381 83.2939C149.487 83.2939 148.72 83.9386 148.464 84.7125V90.0002H147.173V82.0532H147.073V82.1525ZM156.353 92.9804L157.514 90.0151L154.42 82.1525H155.838L158.159 88.3403L160.479 82.1525H161.897L157.643 92.9804H156.353Z" fill="#646569"/>
<path d="M108.226 29.6027C108.226 39.9438 99.9863 48.3468 89.9441 48.3468C79.902 48.3468 71.6622 39.9438 71.6622 29.6027V13.6878C71.6622 13.6878 80.4057 15.8732 80.4057 25.1295V29.554C80.4057 35.2282 84.6593 39.7421 89.9441 39.7421C95.229 39.7421 99.4825 35.2282 99.4825 29.554V20.5272C99.869 12.7898 106.438 10.3401 108.119 9.4371H108.226V29.6027ZM61.1501 10.9619C63.6003 10.9619 65.9193 11.3494 67.9859 12.2533V22.053C66.1796 20.5053 63.7284 19.6024 61.1481 19.6024C55.3426 19.6014 50.6976 24.1163 50.6976 29.7914V48.2782H41.9541V14.4447C41.9541 14.4447 45.5657 14.5729 47.8877 16.2497C51.2411 12.897 56.0133 10.9629 61.1729 10.9629L61.1501 10.9619ZM19.1146 39.8494C13.31 39.8494 8.53786 35.2064 8.53786 29.5322C8.53786 23.858 13.3071 19.2159 19.1146 19.2159C24.9221 19.2159 29.6912 23.858 29.6912 29.5322C29.6912 35.2064 24.9221 39.8494 19.1146 39.8494ZM19.0887 10.9629C8.51203 10.9629 0 19.3451 0 29.5322C0 39.8494 8.51302 48.1024 19.0887 48.1024C23.4744 48.1024 27.4726 46.6839 30.6978 44.2282C32.6323 47.4527 38.1784 48.1024 38.1784 48.1024V29.5322C38.1784 19.3451 29.6654 10.9629 19.0887 10.9629ZM171.703 39.8494C165.899 39.8494 161.126 35.2064 161.126 29.5322C161.126 23.858 165.896 19.2159 171.703 19.2159C177.511 19.2159 182.28 23.858 182.28 29.5322C182.28 35.2064 177.511 39.8494 171.703 39.8494ZM171.703 10.9629C161.126 10.9629 152.614 19.3451 152.614 29.5322C152.614 39.8494 161.127 48.1024 171.703 48.1024C176.089 48.1024 180.087 46.6839 183.312 44.2282C185.247 47.4527 190.793 48.1024 190.793 48.1024V29.5322C190.793 19.3451 182.28 10.9629 171.703 10.9629ZM131.202 39.8494C125.398 39.8494 120.625 35.2064 120.625 29.5322C120.625 23.858 125.394 19.2159 131.202 19.2159C137.009 19.2159 141.779 23.858 141.779 29.5322C141.909 35.2064 137.135 39.8494 131.202 39.8494ZM131.262 10.9609C127.378 10.9609 123.754 12.1222 120.646 14.0563V11.0901C120.257 3.35266 113.913 0.902982 112.23 0H112.101V48.2305C112.101 48.2305 117.797 47.5858 119.998 44.4905C123.235 46.6829 127.119 48.1014 131.262 48.1014C141.879 48.1014 150.423 39.7193 150.423 29.5312C150.553 19.3441 141.878 10.9609 131.262 10.9609Z" fill="#F5831F"/>
</svg>
