<svg width="94" height="31" viewBox="0 0 94 31" fill="none" xmlns="http://www.w3.org/2000/svg">
<path d="M79.7339 0.631534C79.8786 0.450131 80.0589 0.300769 80.2637 0.192819C80.4684 0.0848696 80.6931 0.0206609 80.9237 0.00422169C81.1542 -0.0122175 81.3857 0.0194674 81.6035 0.0972887C81.8213 0.17511 82.0208 0.297388 82.1894 0.456453C82.3238 0.583907 82.4312 0.737412 82.5051 0.907726C82.579 1.07804 82.6179 1.26164 82.6195 1.44748V15.3219L89.6939 8.46395C89.9598 8.2162 90.206 7.95192 90.4785 7.71407C90.6397 7.58756 90.8253 7.49617 91.0235 7.44572C91.2217 7.39528 91.4282 7.38687 91.6298 7.42105C91.8314 7.45522 92.0237 7.53123 92.1946 7.64423C92.3654 7.75724 92.511 7.90477 92.6222 8.07745C92.7755 8.33683 92.8381 8.64039 92.8 8.93975C92.762 9.2391 92.6254 9.51701 92.4121 9.72916C90.7707 11.3181 89.0997 12.8872 87.4583 14.4828C89.5959 17.2099 91.4794 20.1292 93.085 23.2038C93.199 23.4076 93.2603 23.6369 93.2632 23.8707C93.266 24.1045 93.2104 24.3352 93.1014 24.5417C92.6254 25.3511 91.3583 25.6252 90.6623 24.9447C90.2224 24.5087 90.0353 23.8975 89.7169 23.3756C88.403 20.9817 86.9059 18.6943 85.2391 16.5342C84.3637 17.3513 83.496 18.1694 82.6359 18.9887C82.6359 20.4972 82.6359 22.0047 82.6359 23.511C82.6883 23.9328 82.5856 24.3594 82.347 24.7102C82.1954 24.8979 82.0053 25.0504 81.7898 25.1575C81.5742 25.2645 81.3383 25.3235 81.098 25.3304C80.8578 25.3373 80.6189 25.2919 80.3976 25.1974C80.1764 25.103 79.978 24.9615 79.816 24.7829C79.5747 24.4931 79.4495 24.1233 79.4647 23.7456C79.4647 16.412 79.4647 9.07729 79.4647 1.74148C79.418 1.35091 79.5136 0.956542 79.7339 0.631534Z" fill="white"/>
<path d="M52.1605 4.03428C52.1725 3.62272 52.3441 3.23223 52.6386 2.94638C52.9331 2.66053 53.327 2.50202 53.7362 2.50479C54.1387 2.49113 54.5307 2.63606 54.8286 2.90875C55.1266 3.18145 55.3071 3.56037 55.3316 3.96491C55.3316 5.17727 55.3316 6.38963 55.3316 7.59869H58.7491C58.936 7.57024 59.1268 7.58273 59.3085 7.63532C59.4901 7.68791 59.6584 7.77935 59.8017 7.9034C59.9451 8.02745 60.0601 8.18118 60.1389 8.35408C60.2178 8.52697 60.2586 8.71497 60.2586 8.9052C60.2586 9.09544 60.2178 9.28343 60.1389 9.45632C60.0601 9.62922 59.9451 9.78295 59.8017 9.907C59.6584 10.031 59.4901 10.1225 59.3085 10.1751C59.1268 10.2277 58.936 10.2402 58.7491 10.2117C57.6099 10.2117 56.4708 10.2117 55.3316 10.2117C55.3316 12.5858 55.3316 14.961 55.3316 17.3372C55.3019 18.2597 55.3746 19.1827 55.5483 20.089C55.6928 20.7497 55.9587 21.4533 56.5594 21.8233C57.4392 22.3684 58.5127 22.3452 59.5139 22.3353C59.7131 22.323 59.9127 22.3514 60.1006 22.419C60.2885 22.4866 60.4608 22.5919 60.6071 22.7284C60.8219 22.9342 60.9641 23.205 61.0121 23.4995C61.0601 23.794 61.0113 24.0963 60.873 24.3603C60.7595 24.568 60.5973 24.7446 60.4005 24.8747C60.2037 25.0048 59.9782 25.0845 59.7437 25.1069C59.2612 25.1333 58.7753 25.1069 58.2895 25.1069C56.822 25.0838 55.266 24.7766 54.1137 23.8054C53.165 23.0092 52.6857 21.8002 52.4362 20.6076C52.0817 19.0022 52.1703 17.3471 52.1605 15.7119V10.2051C51.7206 10.1886 51.2807 10.2315 50.8473 10.1787C50.5348 10.1302 50.2502 9.96981 50.0457 9.72706C49.8413 9.48432 49.7308 9.17548 49.7345 8.8573C49.7485 8.5364 49.8782 8.23163 50.0993 7.99999C50.3205 7.76834 50.6179 7.62568 50.936 7.59869C51.343 7.57887 51.7534 7.59869 52.1605 7.59869V4.03428Z" fill="white"/>
<path d="M22.3512 7.20197C22.9313 7.08132 23.5217 7.01826 24.114 7.01367C24.114 9.99778 24.114 12.9786 24.114 15.9561C24.1121 16.1937 24.1986 16.4235 24.3566 16.6002C24.5146 16.7769 24.7325 16.8877 24.9676 16.9108C25.6504 16.9108 26.3365 16.9108 27.0193 16.9108C27.1334 16.9144 27.2453 16.9425 27.3476 16.9934C27.413 17.2252 27.4408 17.4662 27.4297 17.7069C27.4297 19.9764 27.4297 22.2425 27.4297 24.512C26.8728 24.7238 26.2982 24.8852 25.7128 24.9943C25.7128 23.2269 25.7128 21.4596 25.7128 19.7088C25.7081 19.4765 25.616 19.2546 25.4552 19.0878C25.2944 18.9211 25.0767 18.8219 24.8461 18.8103C24.3898 18.8103 23.9302 18.8103 23.4706 18.8103C23.141 18.8331 22.8099 18.812 22.4858 18.7475C22.416 18.6239 22.3819 18.4832 22.3873 18.3412C22.3873 17.1354 22.3873 15.9297 22.3873 14.7074C22.607 14.6349 22.7991 14.4962 22.9377 14.31C23.0764 14.1239 23.1547 13.8993 23.162 13.6668C23.1675 13.5157 23.1413 13.3652 23.0851 13.225C23.0289 13.0848 22.944 12.958 22.8359 12.853C22.7279 12.748 22.599 12.6671 22.4578 12.6155C22.3166 12.5639 22.1662 12.5428 22.0163 12.5535C21.8732 12.5515 21.7311 12.5791 21.599 12.6345C21.4668 12.69 21.3474 12.7721 21.248 12.8758C21.1486 12.9795 21.0714 13.1026 21.0212 13.2375C20.971 13.3725 20.9488 13.5163 20.956 13.6602C20.9568 13.893 21.0314 14.1194 21.169 14.3066C21.3066 14.4938 21.4999 14.6319 21.7209 14.7008C21.7209 15.9594 21.7209 17.218 21.7209 18.4766C21.7183 18.5972 21.7393 18.7172 21.7828 18.8296C21.8262 18.942 21.8913 19.0447 21.9742 19.1318C22.0571 19.219 22.1563 19.2888 22.266 19.3373C22.3758 19.3859 22.4939 19.4122 22.6138 19.4148C23.3196 19.4148 24.0254 19.4148 24.7312 19.4148C24.8183 19.4148 24.9018 19.4496 24.9633 19.5115C25.0249 19.5735 25.0595 19.6575 25.0595 19.7451C25.0595 21.5158 25.0595 23.2864 25.0595 25.0571C24.4916 25.1083 23.9203 25.1083 23.3524 25.0571C23.3524 24.1255 23.3524 23.1939 23.3524 22.2623C23.3478 22.1406 23.3193 22.0209 23.2685 21.9102C23.2178 21.7996 23.1458 21.7001 23.0567 21.6175C22.9676 21.5349 22.8632 21.4709 22.7495 21.429C22.6357 21.3872 22.5149 21.3684 22.3939 21.3737H16.9247C15.7543 19.7789 15.1414 17.8391 15.1815 15.857C15.1857 15.2076 15.2729 14.5614 15.4409 13.9344C16.4421 13.9344 17.4434 13.9344 18.4479 13.9344C18.4913 13.9312 18.5349 13.9368 18.5761 13.9508C18.6174 13.9647 18.6554 13.9868 18.6881 14.0157C18.7208 14.0446 18.7474 14.0797 18.7665 14.1191C18.7856 14.1584 18.7967 14.2012 18.7992 14.2449C18.7992 15.5663 18.7992 16.8876 18.7992 18.209C18.5501 18.2879 18.3373 18.454 18.1993 18.6771C18.0614 18.9002 18.0073 19.1657 18.047 19.4254C18.0867 19.6851 18.2174 19.922 18.4156 20.0931C18.6138 20.2643 18.8663 20.3583 19.1275 20.3583C19.3886 20.3583 19.6411 20.2643 19.8393 20.0931C20.0375 19.922 20.1683 19.6851 20.208 19.4254C20.2476 19.1657 20.1936 18.9002 20.0556 18.6771C19.9176 18.454 19.7048 18.2879 19.4557 18.209C19.4557 17.0165 19.4557 15.8239 19.4557 14.6314C19.4733 14.3759 19.4433 14.1193 19.3671 13.8749C19.2948 13.7077 19.1754 13.5655 19.0238 13.4657C18.8721 13.366 18.6948 13.313 18.5136 13.3133C17.5287 13.3133 16.5669 13.3133 15.5952 13.3133C16.2877 11.1574 17.7528 9.33802 19.7052 8.20952C20.3398 7.84484 21.0154 7.55761 21.7176 7.35393C21.7176 8.44076 21.7176 9.52759 21.7176 10.6111C21.7235 10.6941 21.698 10.7763 21.6463 10.8412C21.5945 10.9061 21.5203 10.949 21.4386 10.9613C21.0216 10.9943 20.5982 10.9613 20.1812 10.9613C20.0867 10.6887 19.8925 10.4626 19.6383 10.3288C19.384 10.1951 19.0887 10.1637 18.8123 10.2411C18.6752 10.2845 18.548 10.3546 18.4378 10.4475C18.3277 10.5404 18.2368 10.6542 18.1703 10.7824C18.1038 10.9106 18.0631 11.0508 18.0505 11.1948C18.0379 11.3389 18.0536 11.484 18.0967 11.622C18.1398 11.7599 18.2095 11.888 18.3018 11.9988C18.3941 12.1097 18.5071 12.2012 18.6346 12.268C18.762 12.3349 18.9012 12.3759 19.0444 12.3886C19.1875 12.4013 19.3318 12.3855 19.4689 12.3421C19.6348 12.2852 19.7852 12.1902 19.9083 12.0646C20.0313 11.939 20.1237 11.7864 20.178 11.6187C20.6376 11.6187 21.1004 11.6385 21.56 11.6021C21.782 11.5775 21.9868 11.4703 22.1343 11.3017C22.2819 11.1331 22.3615 10.9151 22.3577 10.6904C22.3512 9.52098 22.3545 8.36147 22.3512 7.20197Z" fill="#FFA400"/>
<path d="M24.7617 15.9594C24.7617 12.9819 24.7617 10.0088 24.7617 7.04004C26.1491 7.13904 27.496 7.55358 28.7011 8.25241C28.7011 9.29631 28.7011 10.3369 28.7011 11.3775C28.7079 11.6086 28.8032 11.8281 28.9672 11.9901C29.1312 12.152 29.3511 12.2438 29.5809 12.2463C30.4935 12.2463 31.4061 12.2199 32.3154 12.2694C32.5628 12.8115 32.7595 13.3755 32.9031 13.9542C31.0844 13.9542 29.269 13.9542 27.4503 13.9542C27.4088 13.9594 27.3666 13.9556 27.3266 13.943C27.2867 13.9303 27.2499 13.9092 27.2187 13.881C27.1876 13.8528 27.1628 13.8182 27.1462 13.7795C27.1295 13.7409 27.1213 13.699 27.1221 13.6569C27.1221 13.0623 27.1221 12.4676 27.1221 11.873C27.2923 11.8139 27.4466 11.7156 27.5725 11.586C27.6984 11.4564 27.7926 11.2991 27.8476 11.1264C27.9086 10.9204 27.908 10.7007 27.8457 10.495C27.7834 10.2893 27.6622 10.1066 27.4972 9.96989C27.3323 9.83315 27.1309 9.74839 26.9183 9.72621C26.7058 9.70404 26.4914 9.74543 26.3021 9.84522C26.1128 9.94501 25.9569 10.0988 25.854 10.2872C25.7511 10.4757 25.7057 10.6905 25.7235 10.9049C25.7412 11.1192 25.8214 11.3234 25.954 11.4921C26.0866 11.6608 26.2656 11.7864 26.4688 11.8532C26.4852 12.4577 26.4688 13.0623 26.4688 13.6701C26.4729 13.9159 26.5711 14.1507 26.743 14.3254C26.9148 14.5002 27.147 14.6015 27.3912 14.6083H33.0442C33.1317 15.1709 33.1701 15.7402 33.1591 16.3096H30.6609C30.483 16.3025 30.3068 16.3478 30.1541 16.4399C30.0013 16.5321 29.8786 16.667 29.8008 16.8282C29.729 17.0107 29.7031 17.2081 29.7253 17.403C29.7253 19.3323 29.7253 21.2582 29.7253 23.1874C29.2078 23.5967 28.6488 23.9499 28.0577 24.2412V17.2478C28.0675 17.0025 27.9811 16.7632 27.8171 16.5815C27.6531 16.3997 27.4247 16.2902 27.1811 16.2765C26.495 16.2765 25.8057 16.2765 25.1195 16.2765C25.0751 16.2806 25.0303 16.2755 24.9879 16.2616C24.9455 16.2476 24.9063 16.2251 24.8728 16.1955C24.8393 16.1658 24.8122 16.1295 24.7931 16.089C24.774 16.0484 24.7633 16.0043 24.7617 15.9594Z" fill="#FFA400"/>
<path d="M33.6962 8.00467C33.9363 7.72141 34.26 7.52257 34.6201 7.43702C34.9802 7.35148 35.358 7.38369 35.6987 7.52897C35.8709 7.61806 36.0229 7.74216 36.1449 7.89342C36.267 8.04468 36.3565 8.2198 36.4078 8.40769C37.8424 12.7484 39.3623 17.0595 41.0694 21.2912C42.7502 17.0716 44.3314 12.8112 45.813 8.5101C45.8696 8.29929 45.9688 8.1025 46.1044 7.93198C46.2399 7.76147 46.4089 7.6209 46.6009 7.51906C46.9631 7.35967 47.3692 7.33251 47.7492 7.44228C48.1292 7.55204 48.4592 7.79184 48.6822 8.12029C48.7891 8.34219 48.8446 8.58558 48.8446 8.83218C48.8446 9.07879 48.7891 9.32218 48.6822 9.54408C47.0342 14.3738 45.1565 19.1043 43.1539 23.7853C42.974 24.2514 42.6709 24.6592 42.2774 24.9647C41.9989 25.1506 41.6818 25.2699 41.3503 25.3136C41.0189 25.3573 40.682 25.3241 40.3652 25.2167C40.0485 25.1093 39.7603 24.9305 39.5228 24.6938C39.2852 24.4572 39.1046 24.169 38.9946 23.8514C37.0009 19.0746 35.1888 14.2295 33.5583 9.31614C33.4702 9.10344 33.4366 8.87185 33.4607 8.64267C33.4848 8.4135 33.5658 8.1941 33.6962 8.00467Z" fill="white"/>
<path d="M65.4715 8.05088C66.776 7.50236 68.192 7.27583 69.6013 7.39019C70.8726 7.42125 72.1152 7.77706 73.2124 8.42417C74.2414 9.07974 75.036 10.0483 75.4808 11.1892C75.8448 12.1533 76.0392 13.1739 76.0553 14.2052C76.0553 14.8659 76.0553 15.5266 76.0553 16.1873C76.0681 16.3681 76.0332 16.5492 75.9543 16.7122C75.8753 16.8751 75.755 17.0143 75.6055 17.1155C75.2458 17.2791 74.8483 17.3396 74.4565 17.2906H64.9561C64.9561 18.3477 64.9298 19.4411 65.3107 20.4454C65.5535 21.1449 66.0259 21.7403 66.65 22.1335C67.3682 22.534 68.1798 22.7336 69.0005 22.7116C70.5712 22.7513 72.1293 22.421 73.5505 21.747C73.7437 21.6413 73.9618 21.5904 74.1815 21.5997C74.4012 21.609 74.6143 21.6782 74.798 21.7998C75.018 21.9543 75.1895 22.1689 75.2925 22.4182C75.3954 22.6675 75.4254 22.9412 75.379 23.2071C75.3403 23.3928 75.259 23.5669 75.1415 23.7154C75.0241 23.864 74.8739 23.9829 74.7028 24.0627C73.3216 24.75 71.8209 25.1606 70.2841 25.2717C68.8135 25.4444 67.3231 25.3014 65.9114 24.8522C64.7241 24.4378 63.7039 23.6444 63.0061 22.5926C62.2541 21.4063 61.8397 20.0353 61.8079 18.6285C61.7554 17.4558 61.8079 16.2798 61.7816 15.1037C61.7265 13.7671 61.9501 12.4336 62.4382 11.1892C63.0255 9.79935 64.1072 8.68021 65.4715 8.05088ZM65.7079 11.3543C65.0021 12.385 64.943 13.6866 64.9561 14.8956H72.9629C72.9787 14.3831 72.9634 13.8701 72.9169 13.3595C72.8086 12.3685 72.4475 11.3411 71.653 10.7168C70.747 9.97679 69.5061 9.85456 68.3702 9.95697C67.3526 10.0098 66.2955 10.4525 65.7079 11.3411V11.3543Z" fill="white"/>
<path d="M2.34513 9.75915C3.44158 8.92008 4.8696 8.6459 6.22212 8.65581C7.68904 8.66751 9.11096 9.16692 10.2665 10.0763C10.2834 9.71938 10.4253 9.38001 10.667 9.11829C10.8825 8.89553 11.1589 8.74234 11.4612 8.67821C11.7634 8.61409 12.0778 8.64194 12.3642 8.75821C12.6136 8.85413 12.8286 9.02317 12.9813 9.24345C13.1341 9.46374 13.2176 9.7251 13.2211 9.9937C13.2211 14.7528 13.2211 19.5153 13.2211 24.2811C13.2156 25.3046 13.0426 26.3203 12.7089 27.2872C12.3523 28.3262 11.6806 29.2263 10.7885 29.8606C9.63623 30.6699 8.2115 30.9375 6.84913 31.0002H5.92995C4.50865 30.9927 3.1009 30.7217 1.7772 30.2008C1.55829 30.123 1.36554 29.9847 1.221 29.8019C1.07645 29.6191 0.985935 29.399 0.959784 29.1668C0.948448 28.9813 0.979439 28.7956 1.05039 28.6239C1.12133 28.4523 1.23036 28.2992 1.36912 28.1765C1.50788 28.0538 1.6727 27.9646 1.85096 27.9158C2.02923 27.867 2.21623 27.8599 2.39765 27.895C3.51515 28.2531 4.6713 28.4749 5.84131 28.5557C6.72771 28.6354 7.61923 28.4769 8.42488 28.0965C8.80504 27.8874 9.14029 27.6045 9.4113 27.2643C9.68231 26.9242 9.88371 26.5334 10.0039 26.1145C10.3158 25.1697 10.2895 24.1588 10.2797 23.1744C9.69224 23.5688 9.05669 23.8852 8.38877 24.1159C6.97323 24.5531 5.46453 24.5839 4.03249 24.2051C2.8609 23.9075 1.8492 23.1652 1.20928 22.1338C0.385293 20.8124 0.198173 19.1772 0.181759 17.6345C0.181759 16.0225 0.0865582 14.3807 0.48706 12.8016C0.740967 11.6029 1.39705 10.5286 2.34513 9.75915ZM4.09158 12.1343C3.33653 12.9767 3.17568 14.1692 3.16254 15.2627C3.16254 16.3066 3.14613 17.3471 3.17896 18.391C3.22164 19.3127 3.37921 20.3004 3.98325 21.0338C4.49536 21.6383 5.29637 21.8596 6.06783 21.9257C6.82279 22.0055 7.58599 21.9295 8.31076 21.7023C9.03552 21.4751 9.7066 21.1015 10.2829 20.6043C10.2829 17.9847 10.2829 15.3618 10.2829 12.7389C9.40881 11.7869 8.1952 11.2226 6.90822 11.1697C5.89712 11.1169 4.77768 11.3481 4.09158 12.1343Z" fill="white"/>
<path d="M29.3558 8.67871C30.4514 9.44575 31.3632 10.449 32.0247 11.6154H29.8253C29.6909 11.6194 29.5568 11.6016 29.428 11.5626C29.3719 11.4337 29.3461 11.2935 29.3525 11.1529C29.3558 10.3172 29.3525 9.49795 29.3558 8.67871Z" fill="#FFA400"/>
<path d="M26.3482 10.7764C26.3539 10.7016 26.3778 10.6293 26.4178 10.5659C26.4577 10.5025 26.5125 10.45 26.5773 10.4128C26.6422 10.3756 26.7151 10.355 26.7897 10.3527C26.8642 10.3505 26.9383 10.3666 27.0052 10.3998C27.1826 10.4725 27.2352 10.6707 27.2943 10.8358C27.222 10.9713 27.1662 11.1365 27.0151 11.2058C26.9438 11.2431 26.864 11.2608 26.7838 11.2572C26.7035 11.2536 26.6257 11.2287 26.558 11.1852C26.4904 11.1416 26.4354 11.0809 26.3985 11.0091C26.3617 10.9373 26.3443 10.8571 26.3482 10.7764Z" fill="#FFA400"/>
<path d="M18.9318 10.8754C18.9997 10.8465 19.0736 10.8349 19.1469 10.8417C19.2203 10.8486 19.2909 10.8735 19.3524 10.9144C19.4138 10.9553 19.4643 11.0108 19.4992 11.076C19.5342 11.1413 19.5525 11.2142 19.5527 11.2883C19.5535 11.371 19.531 11.4523 19.4879 11.5228C19.4448 11.5932 19.3828 11.65 19.309 11.6866C19.2352 11.7232 19.1526 11.7381 19.0708 11.7296C18.9889 11.7211 18.9112 11.6895 18.8464 11.6385C18.7865 11.5908 18.7397 11.5285 18.7103 11.4576C18.681 11.3867 18.6701 11.3094 18.6786 11.2331C18.6871 11.1568 18.7149 11.0839 18.7592 11.0213C18.8035 10.9587 18.8629 10.9085 18.9318 10.8754Z" fill="#FFA400"/>
<path d="M21.8143 13.2541C21.882 13.2124 21.9595 13.1896 22.0389 13.1881C22.1183 13.1865 22.1967 13.2063 22.2659 13.2453C22.3352 13.2844 22.3928 13.3413 22.433 13.4101C22.4731 13.479 22.4943 13.5574 22.4943 13.6373C22.4943 13.7171 22.4731 13.7955 22.433 13.8644C22.3928 13.9333 22.3352 13.9901 22.2659 14.0292C22.1967 14.0682 22.1183 14.088 22.0389 14.0864C21.9595 14.0849 21.882 14.0621 21.8143 14.0205C21.7483 13.9809 21.6936 13.9248 21.6556 13.8576C21.6176 13.7905 21.5977 13.7145 21.5977 13.6373C21.5977 13.56 21.6176 13.484 21.6556 13.4169C21.6936 13.3497 21.7483 13.2936 21.8143 13.2541Z" fill="#FFA400"/>
<path d="M30.3838 17.1785C30.4067 16.9572 30.653 16.9374 30.8269 16.9341H33.1249C32.922 19.0064 32.0181 20.9458 30.5643 22.4277C30.4954 22.4937 30.4199 22.5532 30.3477 22.616C30.3477 21.2946 30.3706 19.9534 30.3477 18.6221C30.4002 18.1398 30.3017 17.6575 30.3838 17.1785Z" fill="#FFA400"/>
<path d="M18.9154 18.8799C18.9862 18.8415 19.066 18.8231 19.1464 18.8266C19.2268 18.8301 19.3047 18.8553 19.372 18.8996C19.4393 18.9439 19.4934 19.0057 19.5287 19.0784C19.564 19.1511 19.5791 19.232 19.5724 19.3126C19.5697 19.3885 19.5474 19.4624 19.5078 19.5271C19.4682 19.5917 19.4126 19.645 19.3464 19.6816C19.2802 19.7182 19.2057 19.7369 19.1302 19.7359C19.0546 19.735 18.9806 19.7143 18.9154 19.676C18.8431 19.6379 18.7826 19.5807 18.7404 19.5106C18.6981 19.4404 18.6758 19.3599 18.6758 19.2779C18.6758 19.1959 18.6981 19.1154 18.7404 19.0453C18.7826 18.9751 18.8431 18.9179 18.9154 18.8799Z" fill="#FFA400"/>
<path d="M17.4062 22.038C18.9163 22.038 20.4231 22.038 21.9332 22.038C22.2024 22.038 22.5274 21.962 22.708 22.2164C22.7441 23.1446 22.7408 24.0761 22.708 25.0044C20.6557 24.6546 18.7845 23.6076 17.4062 22.038Z" fill="#FFA400"/>
</svg>
