<svg width="49" height="48" viewBox="0 0 49 48" fill="none" xmlns="http://www.w3.org/2000/svg">
<path d="M41.6951 40.7148C42.0222 40.7148 42.2947 40.4423 42.2947 40.1153C42.2947 39.7882 42.0222 39.5157 41.6951 39.5157H28.287C27.96 39.5157 27.6875 39.7882 27.6875 40.1153C27.6875 40.4423 27.96 40.7148 28.287 40.7148H41.6951Z" fill="#0068FA"/>
<path d="M42.677 24.418C42.8405 24.418 43.004 24.309 43.113 24.2C43.2765 24.091 43.3855 23.9275 43.3855 23.7094V18.7495L48.1819 13.9531C48.3454 13.7896 48.3999 13.5716 48.3454 13.3536C48.3454 13.2991 48.3999 13.2446 48.3999 13.1901C48.3999 13.1356 48.3999 13.0266 48.3454 12.9721C48.4545 12.645 48.2909 12.318 48.0184 12.209L15.5338 0C15.4793 0 15.4793 0 15.4793 0C15.4793 0 15.4793 0 15.4248 0H15.3703C15.3703 0 15.3703 0 15.3157 0C15.2612 0 15.2612 0 15.2067 0H15.1522C15.1522 0 15.1522 0 15.0977 0C15.0432 0 15.0432 -5.27917e-08 14.9887 0.0545044H14.9342L14.8797 0.109009C14.8797 0.109009 14.8252 0.109009 14.8252 0.163513L3.43378 12.3725C3.37928 12.427 3.32477 12.4815 3.32477 12.5905H0.817567C0.763062 12.536 0.708558 12.536 0.599549 12.536C0.272522 12.536 0 12.8085 0 13.1356V19.1856C0 19.5126 0.272522 19.7851 0.599549 19.7851H8.17567C8.50269 19.7851 8.77522 19.5126 8.77522 19.1856V13.8441H12.209V46.1653H5.77747C5.45044 46.1653 5.17792 46.4378 5.17792 46.7648C5.17792 47.0918 5.45044 47.3644 5.77747 47.3644H47.1463C47.4734 47.3644 47.7459 47.0918 47.7459 46.7648C47.7459 46.4378 47.4734 46.1653 47.1463 46.1653H44.9662V31.0675C44.9662 30.7405 44.6936 30.468 44.3666 30.468H37.9896C37.6626 30.468 37.39 30.7405 37.39 31.0675V34.6648H25.2901C24.963 34.6648 24.6905 34.9373 24.6905 35.2644C24.6905 35.2644 24.6905 35.2644 24.6905 35.3189C24.6905 35.3189 24.6905 35.3189 24.6905 35.3734V46.1653H18.695V18.913C18.7495 18.913 18.7495 18.913 18.804 18.913H23.4369C23.4914 18.9675 23.6004 18.9675 23.6549 18.9675C23.7094 18.9675 23.8184 18.9675 23.8729 18.913H42.1864V23.3279C41.5869 23.4914 40.7148 23.982 40.6603 25.5626C40.6058 26.5982 40.9328 27.1432 41.2599 27.4702C41.6414 27.8518 42.1319 28.0698 42.677 28.0698C43.1675 28.0698 43.8216 28.0153 44.3121 27.4702C44.7481 27.0342 44.9117 26.3802 44.9117 25.5626C44.9117 25.2356 44.6391 24.963 44.3121 24.963C43.9851 24.963 43.7126 25.2356 43.7126 25.5626C43.7126 25.8896 43.6581 26.3801 43.44 26.5982C43.2765 26.7617 43.0585 26.8162 42.6225 26.8162C42.459 26.8162 42.2409 26.7617 42.0229 26.5982C41.8049 26.3801 41.7504 26.0531 41.7504 25.5626C41.9139 24.4725 42.4045 24.4725 42.677 24.418ZM43.0585 17.3869L39.4612 13.7896H46.6558L43.0585 17.3869ZM37.3355 13.7896L33.7928 17.3324L30.25 13.7896H37.3355ZM38.2076 12.5905C38.0441 12.4815 37.8261 12.4815 37.6081 12.5905H28.9964C28.8874 12.536 28.7238 12.536 28.6148 12.5905H18.586L16.1333 1.47162L45.6202 12.5905H38.2076ZM13.3536 24.4725L16.9509 28.0698L13.3536 31.6671V24.4725ZM17.4959 29.2689V36.8995L13.6806 33.0842L17.4959 29.2689ZM13.7896 23.2189L17.4959 19.5126V26.9252L13.7896 23.2189ZM14.2257 13.7896H17.4959V17.0599L14.2257 13.7896ZM17.3324 12.5905H13.4626L15.3157 3.43378L17.3324 12.5905ZM17.0054 18.3135L13.3536 21.9653V14.6617L17.0054 18.3135ZM13.3536 34.4468L17.1144 38.2076L13.3536 41.9684V34.4468ZM27.3612 13.7896L23.6549 17.4959L19.9486 13.7896H27.3612ZM28.8329 14.0076L32.5392 17.7139H25.1265L28.8329 14.0076ZM38.3711 14.4437L41.6414 17.7139H35.1009L38.3711 14.4437ZM14.2802 2.5072L12.2635 12.645H8.33918C8.28467 12.645 8.23017 12.5905 8.17567 12.5905H4.9054L14.2802 2.5072ZM7.57612 18.5315H1.1991V13.7351H3.7063C3.76081 13.7351 3.81531 13.7896 3.86982 13.7896H7.57612V18.5315ZM32.6482 44.9117H37.281V46.1108H32.6482V44.9117ZM25.8896 35.8639H37.8806C37.8806 35.8639 37.8806 35.8639 37.9351 35.8639C37.9351 35.8639 37.9351 35.8639 37.9896 35.8639C38.3166 35.8639 38.5891 35.5914 38.5891 35.2644V31.6671H43.8216V46.1108H38.5346V44.3121C38.5346 43.9851 38.2621 43.7126 37.9351 43.7126H32.0486C31.7216 43.7126 31.4491 43.9851 31.4491 44.3121V46.1108H25.8896V35.8639ZM13.3536 46.1108V43.6036L17.4959 39.4612V46.0563H13.3536V46.1108ZM18.695 17.7139V14.2257L22.1288 17.6594H18.804C18.7495 17.7139 18.7495 17.7139 18.695 17.7139Z" fill="#0068FA"/>
</svg>
