<svg width="42" height="41" viewBox="0 0 42 41" fill="none" xmlns="http://www.w3.org/2000/svg">
<path d="M41.4313 25.0006L41.4374 24.9985L34.706 10.3111L36.3384 9.49864L35.7275 8.27549L34.1361 9.06815L33.9208 8.5987C33.7635 8.25567 33.3579 8.10508 33.0149 8.26233C32.8661 8.33058 32.7468 8.44991 32.6785 8.5987L32.4865 9.01826C31.3283 8.48032 30.0668 8.20118 28.7897 8.20032H23.0498V6.83367H24.4164V5.46702H23.2418L23.7331 3.50108C24.1103 1.99153 23.1924 0.461989 21.6829 0.0847075C20.1733 -0.292489 18.6438 0.62539 18.2665 2.13494C18.1544 2.58338 18.1544 3.05257 18.2665 3.501L18.7578 5.46693H17.5832V6.83358H18.9498V8.20024H13.2133C11.935 8.20126 10.6722 8.48108 9.51309 9.02023L9.32107 8.60067C9.16382 8.25764 8.75818 8.10705 8.41515 8.2643C8.26636 8.33255 8.14703 8.45187 8.07879 8.60067L7.86354 9.07011L6.27207 8.27404L5.66118 9.49856L7.29364 10.3144L0.562192 24.9985C0.52068 25.0878 0.499497 25.1851 0.500009 25.2835C0.502999 27.9239 2.64284 30.0638 5.2833 30.0668H12.1166C14.757 30.0638 16.8969 27.9239 16.8998 25.2835C16.8981 25.1853 16.8748 25.0887 16.8315 25.0006L10.0816 10.2578C11.0628 9.80238 12.1316 9.56663 13.2133 9.56698H18.9498V34.5672L16.617 36.9H14.1665C12.2806 36.9023 10.7521 38.4307 10.7499 40.3167C10.7499 40.694 11.0559 41 11.4332 41H30.5664C30.9438 41 31.2497 40.694 31.2497 40.3167C31.2475 38.4307 29.7191 36.9023 27.8331 36.9H25.3827L23.0498 34.5672V9.56698H28.7897C29.8714 9.56663 30.9402 9.80238 31.9214 10.2578L25.162 24.9985C25.1204 25.0878 25.0993 25.1851 25.0998 25.2835C25.1028 27.9239 27.2426 30.0638 29.8831 30.0668H36.7163C39.3568 30.0638 41.4966 27.9239 41.4996 25.2835C41.498 25.1853 41.4747 25.0887 41.4313 25.0006ZM12.1166 28.7001H5.2833C3.66022 28.6983 2.26171 27.5567 1.935 25.9668H15.4649C15.1382 27.5567 13.7396 28.6983 12.1166 28.7001ZM15.1519 24.6002H2.24796L8.525 10.9056C8.63963 10.9364 8.76023 10.9364 8.87486 10.9056L15.1519 24.6002ZM19.8566 1.92465C20.3887 1.29326 21.332 1.21288 21.9634 1.74502C22.0282 1.79969 22.0883 1.85982 22.143 1.92465C22.4194 2.27622 22.517 2.7361 22.4075 3.16967L21.8328 5.46702H20.1668L19.5922 3.16967C19.4826 2.7361 19.5803 2.27622 19.8566 1.92465ZM20.3165 8.20032V6.83367H21.6831V8.20032H20.3165ZM21.6831 9.56698V34.1667H20.3165V9.56698H21.6831ZM27.8331 38.2667C28.7016 38.2677 29.4755 38.8149 29.7662 39.6333H12.2334C12.5241 38.8149 13.298 38.2677 14.1665 38.2667H27.8331ZM23.4502 36.9H18.5494L19.9161 35.5334H22.0836L23.4502 36.9ZM33.1234 10.9077C33.2362 10.9474 33.36 10.9423 33.4692 10.8933L39.7517 24.6002H26.8477L33.1234 10.9077ZM36.7163 28.7001H29.8831C28.26 28.6983 26.8615 27.5567 26.5348 25.9668H40.0646C39.738 27.5567 38.3394 28.6983 36.7163 28.7001Z" fill="#0068FA"/>
</svg>
