<svg width="48" height="48" viewBox="0 0 48 48" fill="none" xmlns="http://www.w3.org/2000/svg">
<path d="M24 48C10.8 48 0 37.2 0 24C0 10.8 10.8 0 24 0C37.2 0 48 10.8 48 24C48 37.2 37.2 48 24 48ZM24 2C11.9 2 2 11.9 2 24C2 36.1 11.9 46 24 46C36.1 46 46 36.1 46 24C46 11.9 36.1 2 24 2Z" fill="#0068FA"/>
<path d="M24 42C14.1 42 6 33.9 6 24C6 14.1 14.1 6 24 6C33.9 6 42 14.1 42 24C42 33.9 33.9 42 24 42ZM24 8C15.2 8 8 15.2 8 24C8 32.8 15.2 40 24 40C32.8 40 40 32.8 40 24C40 15.2 32.8 8 24 8Z" fill="#0068FA"/>
<path d="M24 31.0001C23.2 31.0001 22.5 30.9001 21.8 30.6001C18.9 29.6001 17 27.0001 17 24.0001C17 20.9001 18.9 18.3001 21.8 17.4001C23.1 17.0001 24.9 17.0001 26.2 17.4001C29 18.3001 31 21.0001 31 24.0001C31 27.0001 29 29.7001 26.2 30.6001C25.5 30.9001 24.8 31.0001 24 31.0001ZM24 19.0001C23.5 19.0001 22.9 19.1001 22.4 19.2001C20.3 19.9001 19 21.8001 19 24.0001C19 26.2001 20.3 28.1001 22.4 28.8001C23.4 29.1001 24.5 29.1001 25.6 28.8001C27.6 28.1001 29 26.2001 29 24.0001C29 21.8001 27.6 19.9001 25.6 19.2001C25.1 19.1001 24.5 19.0001 24 19.0001Z" fill="#0068FA"/>
<path d="M22.1 30.6999C22 30.6999 22 30.6999 21.9 30.6999L7.1 28.1999C6.7 28.0999 6.4 27.7999 6.3 27.3999C6.1 26.3999 6 25.1999 6 23.9999C6 22.7999 6.1 21.5999 6.3 20.5999C6.4 20.1999 6.7 19.8999 7.1 19.7999L21.9 17.2999C22.4 17.1999 22.9 17.4999 23 17.9999C23.1 18.4999 22.8 18.9999 22.3 19.1999C20.3 19.8999 19 21.7999 19 23.9999C19 26.1999 20.3 28.0999 22.4 28.7999C22.9 28.9999 23.2 29.4999 23.1 29.9999C23 30.3999 22.6 30.6999 22.1 30.6999ZM8.2 26.2999L18.2 27.9999C17.4 26.8999 17 25.4999 17 23.9999C17 22.4999 17.4 21.0999 18.2 19.9999L8.1 21.6999C8.1 22.3999 8 23.1999 8 23.9999C8 24.7999 8.1 25.5999 8.2 26.2999Z" fill="#0068FA"/>
<path d="M25.902 30.6998C25.402 30.6998 25.002 30.3998 24.902 29.8998C24.802 29.3998 25.102 28.8998 25.602 28.6998C27.702 27.9998 29.002 26.0998 29.002 23.8998C29.002 21.6998 27.702 19.7998 25.602 19.0998C25.102 18.8998 24.802 18.3998 24.902 17.8998C25.002 17.3998 25.502 17.0998 26.002 17.1998L40.802 19.6998C41.202 19.7998 41.502 20.0998 41.602 20.4998C41.802 21.4998 41.902 22.6998 41.902 23.8998C41.902 25.0998 41.802 26.2998 41.602 27.2998C41.502 27.6998 41.202 27.9998 40.802 28.0998L26.002 30.5998C26.002 30.6998 26.002 30.6998 25.902 30.6998ZM29.802 19.9998C30.602 21.0998 31.002 22.4998 31.002 23.9998C31.002 25.4998 30.602 26.8998 29.802 27.9998L39.902 26.2998C40.002 25.5998 40.102 24.7998 40.102 23.9998C40.102 23.1998 40.002 22.3998 39.902 21.6998L29.802 19.9998Z" fill="#0068FA"/>
<path d="M24.0016 42.0002C22.8016 42.0002 21.6016 41.9002 20.6016 41.7002C20.2016 41.6002 19.9016 41.3002 19.8016 40.9002L17.9016 29.4002C17.8016 29.1002 18.0016 28.8002 18.2016 28.5002C18.4016 28.3002 18.7016 28.2002 19.1016 28.2002L22.3016 28.7002C22.4016 28.7002 22.4016 28.7002 22.5016 28.7002C23.5016 29.0002 24.6016 29.0002 25.7016 28.7002C25.8016 28.7002 25.8016 28.7002 25.9016 28.7002L29.1016 28.2002C29.4016 28.2002 29.7016 28.3002 30.0016 28.5002C30.2016 28.7002 30.3016 29.1002 30.3016 29.4002L28.4016 40.9002C28.3016 41.3002 28.0016 41.6002 27.6016 41.7002C26.4016 41.9002 25.2016 42.0002 24.0016 42.0002ZM21.7016 39.8002C23.2016 40.0002 24.9016 40.0002 26.4016 39.8002L28.0016 30.4002L26.2016 30.7002C24.8016 31.1002 23.3016 31.1002 21.9016 30.7002L20.1016 30.4002L21.7016 39.8002Z" fill="#0068FA"/>
</svg>
