<svg width="49" height="49" viewBox="0 0 49 49" fill="none" xmlns="http://www.w3.org/2000/svg">
<path d="M33.258 11.1198C33.5841 11.1198 33.848 10.8547 33.848 10.5278V9.88144C33.848 9.55451 33.5841 9.28944 33.258 9.28944C32.9319 9.28944 32.668 9.55451 32.668 9.88144V10.5278C32.668 10.8547 32.9319 11.1198 33.258 11.1198Z" fill="#0068FA"/>
<path d="M38.4729 20.5229V17.3757C38.4729 16.2613 37.6472 15.3437 36.5762 15.1801V9.10762C36.5762 7.89153 35.55 6.90207 34.2882 6.90207H32.2284C30.9665 6.90207 29.9404 7.89153 29.9404 9.10762V15.1801C28.8693 15.3437 28.0436 16.2613 28.0436 17.3757V20.5229C22.2707 22.6979 18.4141 28.2437 18.4141 34.4572C18.4141 40.5365 22.0405 45.9504 27.6524 48.2493C27.7233 48.2782 27.7987 48.2932 27.8754 48.2932H38.6412C38.7178 48.2932 38.7933 48.2782 38.8641 48.2493C44.476 45.9504 48.1025 40.5365 48.1025 34.4572C48.1025 28.2437 44.2458 22.6979 38.4729 20.5229ZM32.2284 8.08607H34.2882C34.8989 8.08607 35.3962 8.54423 35.3962 9.10762V15.1461H31.1204V9.10762C31.1204 8.54423 31.6176 8.08607 32.2284 8.08607ZM30.2769 16.3301H36.2397C36.8204 16.3301 37.2929 16.7993 37.2929 17.3757V20.3507H29.2236V17.3757C29.2236 16.7993 29.6961 16.3301 30.2769 16.3301ZM38.5242 47.1092H27.9923C22.8863 44.9687 19.5941 40.015 19.5941 34.4572C19.5941 28.6523 23.2458 23.4717 28.6924 21.5347H37.8241C43.2707 23.4717 46.9225 28.6523 46.9225 34.4572C46.9225 40.015 43.6302 44.9687 38.5242 47.1092Z" fill="#0068FA"/>
<path d="M38.1493 24.6904C37.8601 24.5409 37.5034 24.6551 37.3548 24.9456C37.2055 25.2364 37.319 25.5934 37.6089 25.7432C39.8202 26.8855 41.532 28.8951 42.3064 31.257C42.3882 31.5062 42.6192 31.6643 42.867 31.6643C42.9281 31.6643 42.9903 31.6545 43.0514 31.6343C43.3608 31.5322 43.529 31.1975 43.4276 30.887C42.557 28.2323 40.6332 25.9738 38.1493 24.6904Z" fill="#0068FA"/>
<path d="M42.7804 34.2439C42.7804 38.1457 40.4533 41.6199 36.8516 43.0953C36.5497 43.2187 36.4051 43.5644 36.5284 43.8671C36.6217 44.0966 36.8424 44.2356 37.0746 44.2356C37.1489 44.2356 37.2244 44.2215 37.2976 44.1914C41.3452 42.5334 43.9604 38.6287 43.9604 34.2439C43.9604 33.917 43.6965 33.6519 43.3704 33.6519C43.0443 33.6519 42.7804 33.917 42.7804 34.2439Z" fill="#0068FA"/>
<path d="M17.4781 0.919922H1.40641C1.08029 0.919922 0.816406 1.18499 0.816406 1.51192L0.817559 7.08274L3.075 40.2937C3.12966 41.1386 3.62917 41.8509 4.3299 42.2276V45.8787C4.3299 47.2029 5.40331 48.2799 6.72332 48.2799H12.1618C13.4812 48.2799 14.5546 47.2029 14.5546 45.8787V42.2277C15.2554 41.8511 15.7549 41.1393 15.8096 40.2957L18.067 7.08274C18.0676 7.06944 18.0681 7.05585 18.0681 7.04256V1.51192C18.0681 1.18499 17.8043 0.919922 17.4781 0.919922ZM16.8881 2.10392V6.83992H14.092V5.14341C14.092 4.81648 13.8281 4.55141 13.502 4.55141C13.1759 4.55141 12.912 4.81648 12.912 5.14341V6.83992H9.9954V5.14341C9.9954 4.81648 9.73151 4.55141 9.4054 4.55141C9.07929 4.55141 8.8154 4.81648 8.8154 5.14341V6.83992H5.89939V5.14341C5.89939 4.81648 5.63551 4.55141 5.30939 4.55141C4.98328 4.55141 4.71939 4.81648 4.71939 5.14341V6.83992H1.99641V2.10392H16.8881ZM12.1618 47.0959H6.72332C6.05438 47.0959 5.5099 46.5499 5.5099 45.8787V42.5166H13.3746V45.8787C13.3746 46.5499 12.8307 47.0959 12.1618 47.0959ZM14.6319 40.2174C14.5915 40.8426 14.0707 41.3326 13.4461 41.3326H5.43846C4.81389 41.3326 4.29303 40.8426 4.2527 40.2154L2.06317 8.02392H16.82L14.6319 40.2174Z" fill="#0068FA"/>
</svg>
