<svg width="16" height="12" viewBox="0 0 16 12" fill="none" xmlns="http://www.w3.org/2000/svg">
<path d="M10.6055 6.0173L15.9995 9.49609V2.3916L10.6055 6.0173Z" fill="#F67B10"/>
<path d="M0 2.3916V9.49609L5.39398 6.0173L0 2.3916Z" fill="#F67B10"/>
<path d="M15.0012 0.322754H1.00125C0.502249 0.322754 0.10625 0.702259 0.03125 1.19092L8.00124 6.54786L15.9712 1.19092C15.8962 0.702259 15.5002 0.322754 15.0012 0.322754Z" fill="#F67B10"/>
<path d="M9.68923 6.63334L8.27424 7.58415C8.19024 7.64026 8.09524 7.6678 7.99924 7.6678C7.90324 7.6678 7.80824 7.64026 7.72424 7.58415L6.30924 6.63232L0.03125 10.6834C0.10825 11.168 0.502249 11.5445 0.999248 11.5445H14.9992C15.4962 11.5445 15.8902 11.168 15.9672 10.6834L9.68923 6.63334Z" fill="#F67B10"/>
</svg>
