<svg width="57" height="47" viewBox="0 0 57 47" fill="none" xmlns="http://www.w3.org/2000/svg">
<path d="M56.1147 47.0001H1.3654C0.876923 47.0001 0.480469 46.6037 0.480469 46.1188V7.47186C0.480469 6.9834 0.876923 6.58691 1.3654 6.58691H56.1147C56.6032 6.58691 56.9997 6.9834 56.9997 7.47186V46.1188C56.9962 46.6073 56.5997 47.0001 56.1147 47.0001ZM2.25034 45.2374H55.2332V8.35681H2.25034V45.2374Z" fill="#0068FA"/>
<path d="M36.6389 5.44407C36.1504 5.44407 35.754 5.04766 35.754 4.56273V1.7663H21.1093V4.56273C21.1093 5.05119 20.7136 5.44407 20.2287 5.44407C19.7402 5.44407 19.3438 5.04766 19.3438 4.56273V0.881347C19.3438 0.392879 19.7402 0 20.2287 0H36.6355C37.1239 0 37.5203 0.392879 37.5203 0.881347V4.56273C37.5203 5.04766 37.1238 5.44407 36.6389 5.44407Z" fill="#0068FA"/>
<path d="M32.6895 31.6282H24.7916C24.3031 31.6282 23.9102 31.2318 23.9102 30.7469V22.8497C23.9102 22.3611 24.3066 21.9683 24.7916 21.9683H32.6895C33.178 21.9683 33.5744 22.3647 33.5744 22.8497V30.7469C33.5709 31.2318 33.178 31.6282 32.6895 31.6282ZM25.6731 29.8619H31.8045V23.731H25.6731V29.8619Z" fill="#0068FA"/>
<path d="M20.9922 26.9123C12.38 26.9123 1.57324 23.8256 1.11661 23.6946C0.649368 23.5601 0.380626 23.0716 0.515135 22.6008C0.649643 22.1335 1.14196 21.8645 1.60921 21.9955C1.71894 22.0274 12.6349 25.1424 20.9922 25.1424C21.4807 25.1424 21.8772 25.5388 21.8772 26.0237C21.8772 26.5158 21.4807 26.9123 20.9922 26.9123Z" fill="#0068FA"/>
<path d="M36.4822 26.9125C35.9937 26.9125 35.6016 26.5161 35.6016 26.0312C35.6016 25.5427 35.9973 25.1497 36.4822 25.1497C44.8431 25.1497 55.7598 22.0348 55.8696 22.0029C56.3368 21.8684 56.8291 22.1374 56.9636 22.6082C57.0982 23.0754 56.8294 23.5674 56.3621 23.7019C55.902 23.8258 45.0944 26.9125 36.4822 26.9125Z" fill="#0068FA"/>
</svg>
