<svg width="56" height="41" viewBox="0 0 56 41" fill="none" xmlns="http://www.w3.org/2000/svg">
<path d="M55.4409 11.3086L28.3159 0.808574C28.1129 0.729824 27.888 0.729824 27.6841 0.808574L0.559125 11.3086C0.22225 11.4398 0 11.7636 0 12.1249C0 12.4863 0.22225 12.8101 0.559125 12.9413L2.625 13.7411V34.1242C1.12 34.5153 0 35.8742 0 37.5C0 39.4302 1.56975 41 3.5 41C5.43025 41 7 39.4302 7 37.5C7 35.8742 5.88 34.5153 4.375 34.1242V14.4183L9.625 16.4501V34C9.625 37.7292 18.2114 41 28 41C37.7886 41 46.375 37.7292 46.375 34V16.4501L55.4409 12.9404C55.7778 12.8101 56 12.4863 56 12.1249C56 11.7636 55.7778 11.4398 55.4409 11.3086ZM5.25 37.5C5.25 38.4651 4.46513 39.25 3.5 39.25C2.53487 39.25 1.75 38.4651 1.75 37.5C1.75 36.5348 2.53487 35.75 3.5 35.75C4.46513 35.75 5.25 36.5348 5.25 37.5ZM44.625 34C44.625 36.065 37.4859 39.25 28 39.25C18.5141 39.25 11.375 36.065 11.375 34V17.1282L27.6841 23.4413C27.7856 23.4807 27.8924 23.5 28 23.5C28.1076 23.5 28.2144 23.4807 28.3159 23.4413L44.625 17.1282V34ZM28 21.687L3.29875 12.1249L28 2.56295L52.7004 12.1249L28 21.687Z" fill="#0068FA"/>
</svg>
