<svg width="27" height="46" viewBox="0 0 27 46" fill="none" xmlns="http://www.w3.org/2000/svg">
<path fill-rule="evenodd" clip-rule="evenodd" d="M0 13.5306C0 6.06972 6.05599 0 13.5 0C20.944 0 27 6.06972 27 13.5306V32.4694C27 39.9303 20.944 46 13.5 46C6.05599 46 0 39.9303 0 32.4694V13.5306ZM13.5 43.2401C19.4254 43.2401 24.2464 38.4082 24.2464 32.4694V13.5306C24.2464 7.5918 19.4254 2.75989 13.5 2.75989C7.57462 2.75989 2.75364 7.5918 2.75364 13.5306V32.4694C2.75364 38.4082 7.57462 43.2401 13.5 43.2401Z" fill="white"/>
<path d="M13.5 9C12.6714 9 12 9.67791 12 10.5145V17.4855C12 18.3217 12.6714 19 13.5 19C14.3282 19 15 18.3217 15 17.4855V10.5145C15 9.67791 14.3286 9 13.5 9Z" fill="white"/>
</svg>
