<svg width="57" height="41" viewBox="0 0 57 41" fill="none" xmlns="http://www.w3.org/2000/svg">
<path d="M55.0572 19.6481H50.3182C52.2883 15.1753 52.0753 11.5545 51.3299 9.1052C50.052 4.73896 45.739 0 39.3494 0C37.6455 0 35.9416 0.31948 34.1844 0.958441C31.1494 2.07662 29.126 3.3013 28.2208 3.94026C27.3156 3.3013 25.3455 2.07662 22.2571 0.958441C20.5 0.31948 18.7429 0 17.0922 0C10.7026 0 6.38961 4.73896 5.11169 9.1052C4.36623 11.7143 4.1 15.6545 6.6026 20.6065H0.851948C0.372727 20.6065 0 20.9792 0 21.4584C0 21.9377 0.372727 22.3104 0.851948 22.3104H7.61429C7.88052 22.7896 8.2 23.2688 8.57273 23.7481C14.1104 31.7351 26.1442 40.4143 28.3273 40.9468V41C28.3273 41 28.3805 41 28.4338 40.9468C28.487 40.9468 28.5403 40.9468 28.5935 40.9468V40.8935C30.4571 39.9883 42.0117 32.5338 48.0818 23.6948C48.6675 22.8961 49.1468 22.0974 49.5727 21.2987H55.1636C55.6429 21.2987 56.0156 20.926 56.0156 20.4468C56.0156 19.9675 55.5364 19.6481 55.0572 19.6481ZM46.5377 22.7896C40.8935 31.0429 30.5104 37.6987 28.274 39.1364C25.9844 37.6987 15.6545 30.9896 9.95714 22.7896C9.85065 22.6299 9.74416 22.4701 9.63766 22.3104H17.4649C17.7844 22.3104 18.1039 22.1507 18.2636 21.8312L21.8312 14.8026L27.4221 29.126C27.5286 29.4455 27.9013 29.6584 28.2208 29.6584C28.2208 29.6584 28.2208 29.6584 28.274 29.6584C28.6468 29.6584 28.9662 29.3922 29.0727 29.0195L33.9714 12.2468L36.5805 20.713C36.687 21.0325 36.9533 21.2455 37.2727 21.2987C37.5922 21.3519 37.9117 21.1922 38.1247 20.926L40.2013 17.8909L41.9585 20.8727C42.1182 21.139 42.3844 21.2987 42.7039 21.2987H47.4961C47.1766 21.8312 46.8572 22.3104 46.5377 22.7896ZM48.4546 19.6481H43.2364L41.0533 15.9208C40.8935 15.6545 40.6273 15.4948 40.3078 15.4948C39.9883 15.4948 39.7221 15.6013 39.5623 15.8675L37.752 18.5299L34.8234 8.9987C34.7169 8.62597 34.3442 8.41299 33.9714 8.35974C33.5987 8.35974 33.226 8.62597 33.1195 8.9987L28.1675 26.0909L22.7896 12.3532C22.6831 12.0338 22.3636 11.8208 22.0442 11.8208C21.6714 11.8208 21.4052 11.9805 21.2455 12.3L17.039 20.5532H8.57273C6.44286 16.6662 5.85714 12.939 6.81559 9.58441C7.93377 5.8039 11.6078 1.75714 17.1455 1.75714C18.6364 1.75714 20.1805 2.07662 21.7247 2.60909C25.6117 4.04675 27.6883 5.6974 27.7416 5.6974C28.061 5.96364 28.487 5.96364 28.8065 5.6974C28.8065 5.6974 30.8831 4.04675 34.8234 2.60909C36.3675 2.02338 37.9117 1.75714 39.4026 1.75714C44.887 1.75714 48.6143 5.8039 49.7325 9.58441C50.6377 12.6727 50.1584 16.0805 48.4546 19.6481Z" fill="#0068FA"/>
</svg>
