<svg width="196" height="82" viewBox="0 0 196 82" fill="none" xmlns="http://www.w3.org/2000/svg">
<path d="M62.8818 15.0962H4.19474V4.20211H62.8818V15.0962ZM67.0687 0H0V19.2983H67.0687V0Z" fill="#00B188"/>
<path d="M4.19474 51.1869H0V31.8887H4.19474V39.5153H11.6825V31.8887H15.8773V51.1869H11.6825V43.1912H4.19474V51.1869ZM22.2282 42.7278H27.2227C27.1286 41.3061 26.5484 40.3164 24.9097 40.3164C23.6709 40.3164 22.5967 40.8427 22.2282 42.7278ZM25.3958 51.4933C21.1383 51.4933 18.2451 48.8071 18.2451 44.3929C18.2451 40.0965 21.0834 37.1354 24.8391 37.1354C28.9398 37.1354 30.9705 39.8845 30.9705 43.9923V45.5396H22.2282C22.7221 47.6682 24.3843 48.2258 26.0544 48.2258C27.5049 48.2258 28.5477 47.9195 29.8414 47.1105H29.9982V50.2915C28.8849 51.0927 27.3089 51.4933 25.3958 51.4933ZM41.9238 43.0969L39.7677 51.1869H36.0982L31.9035 37.5988V37.4417H35.9101L38.1917 45.5632L40.3479 37.4417H43.6174L45.8049 45.5632L48.1179 37.4417H51.9677V37.5988L47.7729 51.1869H44.1035L41.9238 43.0969ZM58.7812 51.4933C55.4489 51.4933 54.0925 50.1659 54.0925 47.0477V31.8887H58.1618V46.7649C58.1618 47.7232 58.5303 48.0609 59.33 48.0609C59.6045 48.0609 60.0122 47.9666 60.2552 47.8724H60.3179V51.2341C59.9808 51.3676 59.4006 51.4933 58.7812 51.4933ZM65.4379 42.7278H70.4324C70.3383 41.3061 69.7581 40.3164 68.1194 40.3164C66.8884 40.3164 65.8064 40.8427 65.4379 42.7278ZM68.6133 51.4933C64.3559 51.4933 61.4627 48.8071 61.4627 44.3929C61.4627 40.0965 64.301 37.1354 68.0566 37.1354C72.1573 37.1354 74.188 39.8845 74.188 43.9923V45.5396H65.4379C65.9318 47.6682 67.594 48.2258 69.2563 48.2258C70.7068 48.2258 71.7496 47.9195 73.0511 47.1105H73.2079V50.2915C72.1024 51.0927 70.5264 51.4933 68.6133 51.4933ZM90.8964 37.4496H93.915V40.7249H90.8964V46.3094C90.8964 47.5111 91.359 48.0687 92.59 48.0687C92.9271 48.0687 93.3584 48.0373 93.8209 47.8802H93.915V51.0927C93.3897 51.2812 92.59 51.4933 91.4217 51.4933C88.1208 51.4933 86.8271 49.9774 86.8271 46.49V40.717H81.6209V46.3015C81.6209 47.5032 82.0835 48.0609 83.3145 48.0609C83.6516 48.0609 84.0829 48.0295 84.5455 47.8724H84.6396V51.0848C84.1143 51.2733 83.3145 51.4854 82.1462 51.4854C78.8453 51.4854 77.5516 49.9695 77.5516 46.4822V40.7092H75.4582V37.4339H77.5516V33.6716H81.6209V37.4339H86.8271V33.6716H90.8964V37.4496ZM107.628 41.3689C109.753 41.3689 110.772 40.1672 110.772 38.4392C110.772 36.6484 109.761 35.4467 107.628 35.4467H104.978V41.3768L107.628 41.3689ZM115.03 38.4392C115.03 42.6414 112.223 44.9191 107.973 44.9191H104.986V51.1869H100.799V31.8887H107.981C112.223 31.8887 115.03 34.1743 115.03 38.4392ZM123.968 46.867V45.6967C123.349 45.359 122.549 45.2333 121.718 45.2333C120.393 45.2333 119.593 45.7281 119.593 46.8356C119.593 47.9823 120.393 48.4693 121.592 48.4693C122.737 48.4693 123.6 47.8802 123.968 46.867ZM124.094 49.8281C123.2 50.912 121.875 51.4304 120.456 51.4304C117.774 51.4304 115.587 49.7967 115.587 46.8906C115.587 44.2044 117.774 42.4136 120.918 42.4136C121.906 42.4136 122.925 42.5707 123.968 42.877V42.6335C123.968 41.149 123.137 40.505 120.95 40.505C119.562 40.505 118.237 40.9055 117.092 41.5574H116.943V38.2822C117.994 37.6695 119.844 37.1433 121.655 37.1433C125.787 37.1433 128.037 39.1226 128.037 42.5785V51.1948H124.094V49.8281ZM130.1 44.3301C130.1 39.9159 133.212 37.1354 137.282 37.1354C138.732 37.1354 140.088 37.4417 141.1 38.1879V41.6753H140.943C140.049 40.9998 138.999 40.5914 137.799 40.5914C135.768 40.5914 134.224 41.9816 134.224 44.3301C134.224 46.6785 135.768 48.0373 137.799 48.0373C138.999 48.0373 140.049 47.6368 140.943 46.9534H141.1V50.4408C140.081 51.1791 138.724 51.4933 137.282 51.4933C133.212 51.4933 130.1 48.7521 130.1 44.3301ZM147.733 44.9505V51.1869H143.664V31.8887H147.733V42.877L151.834 37.4417H156.46V37.5988L151.528 43.8352L156.46 51.0299V51.1869H151.802L147.733 44.9505ZM165.578 46.867V45.6967C164.967 45.359 164.159 45.2333 163.328 45.2333C162.003 45.2333 161.203 45.7281 161.203 46.8356C161.203 47.9823 162.003 48.4693 163.203 48.4693C164.347 48.4693 165.21 47.8802 165.578 46.867ZM165.704 49.8281C164.81 50.912 163.485 51.4304 162.066 51.4304C159.384 51.4304 157.197 49.7967 157.197 46.8906C157.197 44.2044 159.384 42.4136 162.528 42.4136C163.516 42.4136 164.528 42.5707 165.578 42.877V42.6335C165.578 41.149 164.747 40.505 162.56 40.505C161.172 40.505 159.847 40.9055 158.702 41.5574H158.545V38.2822C159.596 37.6695 161.446 37.1433 163.258 37.1433C167.39 37.1433 169.64 39.1226 169.64 42.5785V51.1948H165.696L165.704 49.8281ZM176.493 39.6724C177.23 38.1565 178.312 37.2925 179.825 37.2925C180.381 37.2925 180.93 37.4182 181.15 37.5438V41.4318H181.001C180.538 41.2433 179.982 41.1255 179.213 41.1255C177.951 41.1255 176.963 41.8638 176.626 43.2854V51.1869H172.557V37.4496H176.5L176.493 39.6724ZM191.931 46.5214V42.1073C191.256 41.1176 190.363 40.6856 189.343 40.6856C187.556 40.6856 186.356 41.9816 186.356 44.3301C186.356 46.6785 187.556 47.9431 189.343 47.9431C190.363 47.9431 191.256 47.5111 191.931 46.5214ZM192.056 49.7653C191.194 50.8806 189.837 51.4933 187.987 51.4933C184.474 51.4933 182.224 48.2808 182.224 44.3301C182.224 40.3793 184.474 37.1354 187.987 37.1354C189.775 37.1354 191.068 37.6931 191.931 38.7063V31.8887H196V51.1791H192.056V49.7653ZM0 57.4862H11.9021V59.8347H2.68149V65.7333H11.0318V68.0189H2.68149V74.4438H11.8942V76.7923H0L0 57.4862ZM21.7342 62.9214C24.7842 62.9214 26.4778 64.9322 26.4778 68.231V76.7845H23.9218V68.2938C23.9218 66.5345 23.0279 65.2699 21.0834 65.2699C19.484 65.2699 18.1275 66.291 17.6649 67.7362V76.7845H15.1089V63.1963H17.6649V65.1756C18.4647 63.9111 19.8211 62.9214 21.7342 62.9214ZM33.354 63.1963H36.8353V65.3877H33.354V72.7002C33.354 74.2396 34.1538 74.7659 35.6043 74.7659C36.0042 74.7659 36.4354 74.703 36.7412 74.5774H36.8353V76.7688C36.4668 76.9258 35.9414 77.0437 35.2358 77.0437C32.0603 77.0437 30.798 75.5906 30.798 72.9358V65.372H28.4536V63.1806H30.798V59.5676H33.354V63.1963ZM41.1163 68.663H47.867C47.7729 66.6601 46.785 65.1128 44.6916 65.1128C42.7549 65.1128 41.4926 66.5659 41.1163 68.663ZM45.1542 77.0594C41.179 77.0594 38.4661 74.4046 38.4661 70.1475C38.4661 65.8825 40.9908 62.9214 44.6602 62.9214C48.3923 62.9214 50.329 65.6076 50.329 69.5898V70.7601H41.03C41.3044 73.5092 43.0686 74.8366 45.4992 74.8366C47.0124 74.8366 48.0866 74.4988 49.294 73.6034H49.3881V75.8576C48.2747 76.7216 46.8242 77.0594 45.1542 77.0594ZM55.9115 65.3013C56.4996 63.8483 57.7933 62.9843 59.2673 62.9843C59.8554 62.9843 60.3807 63.0785 60.5924 63.1963V65.7255H60.4983C60.1298 65.5448 59.5104 65.4506 58.8909 65.4506C57.5032 65.4506 56.3349 66.3774 55.9037 67.9168V76.7766H53.3476V63.1963H55.9037L55.9115 65.3013ZM68.8564 74.7423C71.3811 74.7423 72.863 72.7394 72.863 69.9904C72.863 67.2728 71.3811 65.2385 68.8564 65.2385C67.4686 65.2385 66.1749 66.071 65.5006 67.3984V72.6216C66.1749 73.9412 67.4764 74.7423 68.8564 74.7423ZM69.2955 62.9214C73.3334 62.9214 75.4896 66.2281 75.4896 69.9904C75.4896 73.7605 73.3334 77.0594 69.2955 77.0594C67.6333 77.0594 66.2141 76.1954 65.5006 75.2686V81.9998H62.9446V63.1963H65.5006V64.7358C66.2063 63.7854 67.6254 62.9214 69.2955 62.9214ZM81.0642 65.3013C81.6523 63.8483 82.946 62.9843 84.42 62.9843C85.0081 62.9843 85.5334 63.0785 85.7451 63.1963V65.7255H85.651C85.2825 65.5448 84.6631 65.4506 84.0515 65.4506C82.6637 65.4506 81.4955 66.3774 81.0642 67.9168V76.7766H78.5082V63.1963H81.0642V65.3013ZM89.4537 57.7061C90.3475 57.7061 91.0846 58.413 91.0846 59.3084C91.0846 60.2038 90.3475 60.9107 89.4537 60.9107C88.5912 60.9107 87.8229 60.2038 87.8229 59.3084C87.815 58.413 88.5912 57.7061 89.4537 57.7061ZM88.1835 76.7845H90.7396V63.1963H88.1835V76.7845ZM99.8661 68.8515C101.811 69.4641 103.967 70.2732 103.967 72.8651C103.967 75.6456 101.685 77.0672 98.7605 77.0672C96.9729 77.0672 95.1852 76.6352 94.1659 75.8341V73.3992H94.2914C95.4361 74.4517 97.1297 74.9151 98.7292 74.9151C100.18 74.9151 101.473 74.3574 101.473 73.1871C101.473 71.9854 100.399 71.7027 98.2666 70.9958C96.3535 70.3753 94.2287 69.6684 94.2287 67.1078C94.2287 64.4845 96.3848 62.9371 99.1291 62.9371C100.729 62.9371 102.148 63.2749 103.292 64.0525V66.5266H103.198C102.093 65.6312 100.791 65.105 99.1918 65.105C97.5923 65.105 96.6985 65.8119 96.6985 66.7701C96.6906 67.8304 97.6785 68.1368 99.8661 68.8515ZM108.836 68.663H115.587C115.492 66.6601 114.512 65.1128 112.411 65.1128C110.474 65.1128 109.212 66.5659 108.836 68.663ZM112.874 77.0594C108.898 77.0594 106.186 74.4046 106.186 70.1475C106.186 65.8825 108.71 62.9214 112.38 62.9214C116.112 62.9214 118.048 65.6076 118.048 69.5898V70.7601H108.75C109.024 73.5092 110.78 74.8366 113.219 74.8366C114.732 74.8366 115.806 74.4988 117.014 73.6034H117.108V75.8576C115.994 76.7216 114.544 77.0594 112.874 77.0594Z" fill="#231F20"/>
</svg>
