<svg width="92" height="92" viewBox="0 0 92 92" fill="none" xmlns="http://www.w3.org/2000/svg">
<g clip-path="url(#clip0_341_16943)">
<path d="M92 46C92 20.594 71.406 0 46 0C45.3077 0 44.6172 0.017515 43.9323 0.0488577L34.523 25.9103H42.7182C47.5939 25.9103 50.2211 29.664 48.5526 34.2483L36.9466 66.1441L27.2008 66.1423L39.6549 31.9557H32.3291L19.874 66.1423H10.1237L24.7681 25.9103H24.7699L33.5791 1.69896C14.2093 7.11663 0 24.899 0 46C0 67.7279 15.0666 85.9352 35.3204 90.7509L43.8567 67.2918H43.8641L58.9233 25.9103H76.8716C81.7528 25.9103 84.3782 29.664 82.7097 34.2483L72.5122 62.2632C71.736 64.3972 69.2434 66.1423 66.9719 66.1423H54.0348L44.6338 91.9788C45.0865 91.9917 45.5437 92 46 92C71.406 92 92 71.4042 92 46Z" fill="#0096D6"/>
<path d="M73.8314 31.9308H66.5074L56.25 60.0747H63.5741L73.8314 31.9308Z" fill="#0096D6"/>
</g>
<defs>
<clipPath id="clip0_341_16943">
<rect width="92" height="92" fill="white"/>
</clipPath>
</defs>
</svg>
