<svg width="162" height="65" viewBox="0 0 162 65" fill="none" xmlns="http://www.w3.org/2000/svg">
<path d="M0 0V4.44714H31.533V0H0ZM36.0006 0V4.44714H80.9367C80.9367 4.44714 76.3467 0 70.2675 0H36.0006ZM89.7517 0V4.44714H116.937L115.324 0H89.7517ZM136.428 0L134.814 4.44714H161.753V0H136.428ZM0 8.64857V13.0957H31.533V8.64857H0ZM36.0006 8.65491V13.0959H86.151C86.151 13.0959 85.5653 9.67314 84.5436 8.65491H36.0006ZM89.7517 8.65491V13.0959H119.918L118.424 8.65491H89.7517ZM133.201 8.65491L131.707 13.0959H161.753V8.65491H133.201ZM9.06179 17.2971V21.7506H22.7179V17.2971H9.06179ZM45.0626 17.2971V21.7506H58.7187V17.2971H45.0626ZM72.0014 17.2971V21.7506H85.6575C85.6575 21.7506 86.5245 19.3988 86.5245 17.2971H72.0014ZM98.8137 17.2971V21.7506H123.025L121.411 17.2971H98.8137ZM130.226 17.2971L128.606 21.7506H152.938V17.2971H130.226ZM9.06179 25.9522V30.3994H22.7179V25.9522H9.06179ZM45.0626 25.9522V30.3994H79.9431C79.9431 30.3994 82.8611 28.1175 83.7906 25.9522H45.0626ZM98.8137 25.9522V30.3994H112.47V27.9238L113.337 30.3994H138.352L139.282 27.9238V30.3994H152.938V25.9522H127.303L125.942 29.719L124.575 25.9522H98.8137ZM9.06179 34.6008V39.0479H22.7179V34.6008H9.06179ZM45.0626 34.6008V39.0479H83.7906C82.8609 36.8898 79.9431 34.6008 79.9431 34.6008H45.0626ZM98.8137 34.6008V39.0479H112.47V34.6008H98.8137ZM114.95 34.6008L116.602 39.0479H135.358L136.928 34.6008H114.95ZM139.282 34.6008V39.0479H152.938V34.6008H139.282ZM9.06179 43.2494V47.6963H22.7179V43.2494H9.06179ZM45.0626 43.2494V47.6963H58.7187V43.2494H45.0626ZM72.0014 43.2494V47.6963H86.5244C86.5244 45.5977 85.6573 43.2494 85.6573 43.2494H72.0014ZM98.8137 43.2494V47.6963H112.47V43.2494H98.8137ZM118.051 43.2494L119.652 47.6963H132.226L133.84 43.2494H118.051ZM139.282 43.2494V47.6963H152.938V43.2494H139.282ZM0.246726 51.8979V56.3514H31.7797V51.8979H0.246726ZM36.0006 51.8979V56.3514H84.5436C85.5653 55.3317 86.151 51.8979 86.151 51.8979H36.0006ZM89.9986 51.8979V56.3514H112.47V51.8979H89.9986ZM121.158 51.8979L122.803 56.3514H129.201L130.745 51.8979H121.158ZM139.282 51.8979V56.3514H162V51.8979H139.282ZM0.246726 60.5529V65H31.7797V60.5529H0.246726ZM36.0006 60.5529V64.9937H70.2675C76.3467 64.9937 80.9367 60.5529 80.9367 60.5529H36.0006ZM89.9986 60.5529V65H112.47V60.5529H89.9986ZM124.278 60.5529L125.86 64.9875L126.132 64.9937L127.74 60.5529H124.278ZM139.282 60.5529V65H162V60.5529H139.282Z" fill="#1F70C1"/>
</svg>
