<svg width="228" height="48" viewBox="0 0 228 48" fill="none" xmlns="http://www.w3.org/2000/svg">
<g clip-path="url(#clip0_341_17417)">
<path d="M95.5606 10.5304C91.4437 10.5304 86.7616 12.4435 83.9008 16.2738L83.9026 16.2664L83.9008 16.2683L83.9026 11.1316H74.0834V46.9795H83.9008V26.5817C83.9008 22.9107 86.74 19.0079 91.9973 19.0079C96.0599 19.0079 100.264 21.8413 100.264 26.5817V46.9795H110.083V24.7577C110.083 16.5125 104.199 10.5304 95.5606 10.5304ZM179.871 11.1335L170.994 35.5518L162.118 11.1335H150.901L165.614 46.9698H176.373L191.086 11.1335H179.871ZM44.7695 21.9327C46.4415 19.6816 49.1052 18.36 52.3221 18.36C55.8605 18.36 58.5449 20.3858 59.9327 23.3761L42.7779 30.5113C42.3094 26.8495 43.244 23.9857 44.7695 21.9327ZM63.6336 35.9582C59.5011 39.0243 57.14 39.7557 53.3713 39.7557C49.9799 39.7557 47.3245 38.7001 45.4526 36.8489L70.5556 26.409C70.0075 22.5187 68.5345 19.043 66.2683 16.4003C62.9699 12.5603 58.088 10.5286 52.1438 10.5286C41.3472 10.5286 33.206 18.5133 33.206 29.06C33.206 39.8799 41.3666 47.589 53.2263 47.589C59.871 47.589 66.6649 44.432 69.8431 40.7434L63.6336 35.9582ZM32.2701 37.941H9.95324V0.41095H0V46.9795H32.2701V37.941ZM208.718 18.964C203.234 18.964 199.252 23.13 199.252 29.0563C199.252 34.7147 203.47 39.1485 208.849 39.1485C214.335 39.1485 218.314 34.868 218.314 29.0563C218.314 23.3978 214.098 18.964 208.718 18.964ZM208.718 47.5839C197.979 47.5839 189.565 39.5636 189.565 29.0563C189.565 18.6666 198.037 10.5286 208.849 10.5286C219.588 10.5286 228 18.5484 228 29.0563C228 39.4436 219.529 47.5835 208.718 47.5835V47.5839ZM133.119 18.964C127.635 18.964 123.656 23.13 123.656 29.0563C123.656 34.7147 127.872 39.1485 133.252 39.1485C138.736 39.1485 142.716 34.868 142.716 29.0563C142.716 23.3978 138.5 18.964 133.119 18.964ZM133.119 47.5839C122.38 47.5839 113.968 39.5636 113.968 29.0563C113.968 18.6666 122.438 10.5286 133.252 10.5286C143.989 10.5286 152.403 18.5484 152.403 29.0563C152.403 39.4436 143.931 47.5835 133.119 47.5835" fill="#E60012"/>
</g>
<defs>
<clipPath id="clip0_341_17417">
<rect width="228" height="48" fill="white"/>
</clipPath>
</defs>
</svg>
