<svg width="11" height="11" viewBox="0 0 11 11" fill="none" xmlns="http://www.w3.org/2000/svg">
<path fill-rule="evenodd" clip-rule="evenodd" d="M10.6918 10.2244H8.32876V6.73867C8.32876 5.82628 7.95912 5.20341 7.1463 5.20341C6.52459 5.20341 6.17884 5.62373 6.01791 6.02882C5.95756 6.17422 5.96699 6.37676 5.96699 6.5793V10.2244H3.62598C3.62598 10.2244 3.65615 4.04973 3.62598 3.48845H5.96699V4.54561C6.10529 4.08338 6.85336 3.42369 8.04713 3.42369C9.52818 3.42369 10.6918 4.39259 10.6918 6.47896V10.2244L10.6918 10.2244ZM1.25848 2.64577H1.2434C0.489061 2.64577 0 2.13084 0 1.47814C0 0.812728 0.503519 0.308594 1.27294 0.308594C2.04174 0.308594 2.51445 0.811458 2.52954 1.47623C2.52954 2.12894 2.04174 2.64577 1.25848 2.64577L1.25848 2.64577ZM0.269779 3.48859H2.35364V10.2246H0.269779V3.48859Z" fill="#F67B10"/>
</svg>
