<svg width="224" height="48" viewBox="0 0 224 48" fill="none" xmlns="http://www.w3.org/2000/svg">
<g clip-path="url(#clip0_341_19746)">
<path d="M224 21.7156V17.7636H219.108V11.6197L218.944 11.6706L214.349 13.081L214.258 13.1086V17.7638H207.006V15.1705C207.006 13.9629 207.275 13.0388 207.805 12.4225C208.332 11.8136 209.086 11.5041 210.047 11.5041C210.737 11.5041 211.453 11.6673 212.173 11.9893L212.353 12.0701V7.90812L212.268 7.87681C211.597 7.63465 210.683 7.5127 209.551 7.5127C208.124 7.5127 206.828 7.82421 205.697 8.44157C204.566 9.05981 203.676 9.94239 203.052 11.0645C202.431 12.1853 202.116 13.4799 202.116 14.9124V17.7636H198.71V21.7156H202.116V38.3648H207.006V21.7156H214.258V32.2959C214.258 36.6534 216.307 38.8615 220.347 38.8615C221.011 38.8615 221.71 38.7835 222.424 38.6307C223.15 38.4737 223.645 38.317 223.936 38.1496L224 38.1114V34.1228L223.801 34.2548C223.536 34.4321 223.206 34.5771 222.818 34.685C222.429 34.7947 222.104 34.8497 221.852 34.8497C220.906 34.8497 220.205 34.5939 219.771 34.0889C219.331 33.5793 219.108 32.6883 219.108 31.4418V21.7156H224ZM187.789 34.8504C186.014 34.8504 184.615 34.26 183.629 33.097C182.637 31.9281 182.134 30.2616 182.134 28.1443C182.134 25.9598 182.637 24.2501 183.629 23.0606C184.616 21.8789 186.002 21.2791 187.749 21.2791C189.445 21.2791 190.795 21.8519 191.762 22.9826C192.733 24.119 193.226 25.8151 193.226 28.025C193.226 30.2621 192.763 31.9805 191.848 33.13C190.94 34.2708 189.575 34.8504 187.789 34.8504ZM188.007 17.2673C184.62 17.2673 181.931 18.2627 180.013 20.2259C178.097 22.1893 177.125 24.9064 177.125 28.3024C177.125 31.5279 178.074 34.1224 179.945 36.0125C181.815 37.9033 184.362 38.8611 187.512 38.8611C190.794 38.8611 193.43 37.8518 195.347 35.8614C197.263 33.8732 198.234 31.1818 198.234 27.8652C198.234 24.5892 197.323 21.9754 195.525 20.0979C193.727 18.2195 191.197 17.2673 188.007 17.2673ZM169.241 17.2673C166.938 17.2673 165.032 17.8584 163.577 19.0238C162.112 20.1961 161.37 21.7337 161.37 23.5943C161.37 24.5614 161.53 25.4205 161.846 26.1492C162.163 26.8802 162.654 27.5239 163.307 28.0641C163.955 28.6 164.954 29.1612 166.279 29.7323C167.393 30.1921 168.224 30.581 168.751 30.8875C169.267 31.1879 169.633 31.4899 169.84 31.784C170.04 32.0718 170.142 32.4657 170.142 32.9518C170.142 34.3358 169.109 35.0093 166.983 35.0093C166.195 35.0093 165.295 34.8441 164.31 34.5184C163.332 34.1977 162.408 33.7281 161.572 33.1259L161.369 32.9798V37.7029L161.444 37.7377C162.136 38.0581 163.008 38.3283 164.036 38.5409C165.062 38.7537 165.995 38.862 166.805 38.862C169.304 38.862 171.317 38.2681 172.786 37.0957C174.264 35.9153 175.013 34.3415 175.013 32.4166C175.013 31.0279 174.61 29.8371 173.815 28.8767C173.026 27.9241 171.655 27.0496 169.744 26.2766C168.222 25.6635 167.247 25.1547 166.844 24.764C166.456 24.3866 166.259 23.853 166.259 23.1771C166.259 22.578 166.503 22.098 167.002 21.7093C167.505 21.3187 168.205 21.12 169.083 21.12C169.897 21.12 170.731 21.2491 171.56 21.5022C172.388 21.7552 173.116 22.0941 173.723 22.5087L173.923 22.6456V18.1653L173.847 18.1323C173.286 17.8912 172.547 17.6849 171.65 17.5175C170.756 17.3512 169.946 17.2673 169.241 17.2673ZM148.622 34.8504C146.847 34.8504 145.447 34.26 144.462 33.097C143.469 31.9281 142.967 30.2621 142.967 28.1443C142.967 25.9598 143.47 24.2501 144.463 23.0606C145.449 21.8789 146.834 21.2791 148.583 21.2791C150.277 21.2791 151.627 21.8519 152.594 22.9826C153.566 24.119 154.059 25.8151 154.059 28.025C154.059 30.2621 153.595 31.9805 152.681 33.13C151.773 34.2708 150.408 34.8504 148.622 34.8504ZM148.84 17.2673C145.453 17.2673 142.763 18.2627 140.846 20.2259C138.93 22.1893 137.958 24.9064 137.958 28.3024C137.958 31.5292 138.907 34.1224 140.778 36.0125C142.649 37.9033 145.194 38.8611 148.344 38.8611C151.626 38.8611 154.263 37.8518 156.18 35.8614C158.096 33.8732 159.067 31.1818 159.067 27.8652C159.067 24.5892 158.156 21.9754 156.358 20.0979C154.559 18.2195 152.029 17.2673 148.84 17.2673ZM130.535 21.3313V17.7636H125.704V38.3644H130.535V27.8263C130.535 26.0344 130.94 24.5623 131.739 23.4504C132.528 22.3517 133.579 21.795 134.863 21.795C135.298 21.795 135.786 21.867 136.315 22.0093C136.839 22.1509 137.218 22.3045 137.442 22.4663L137.645 22.6139V17.7284L137.567 17.6947C137.117 17.503 136.48 17.4062 135.675 17.4062C134.461 17.4062 133.375 17.7975 132.444 18.5679C131.628 19.2451 131.038 20.1735 130.586 21.3313H130.535ZM117.054 17.2673C114.838 17.2673 112.861 17.7441 111.18 18.6838C109.495 19.6257 108.192 20.9705 107.306 22.6804C106.423 24.3862 105.975 26.3787 105.975 28.6008C105.975 30.5473 106.41 32.3335 107.268 33.9078C108.128 35.4847 109.344 36.7184 110.883 37.574C112.42 38.4285 114.197 38.8618 116.164 38.8618C118.459 38.8618 120.419 38.4013 121.991 37.4933L122.054 37.4568V33.0172L121.851 33.1659C121.139 33.6861 120.344 34.1013 119.488 34.4004C118.634 34.6993 117.856 34.8504 117.173 34.8504C115.278 34.8504 113.756 34.2554 112.652 33.0824C111.545 31.9079 110.984 30.2586 110.984 28.1832C110.984 26.0948 111.569 24.4032 112.723 23.1549C113.873 21.9104 115.397 21.2791 117.253 21.2791C118.841 21.2791 120.388 21.8185 121.852 22.8837L122.054 23.0313V18.3534L121.989 18.3164C121.438 18.0071 120.687 17.7517 119.754 17.558C118.825 17.3647 117.917 17.2673 117.054 17.2673ZM102.648 17.7638H97.818V38.3644H102.648V17.7638ZM100.283 8.98786C99.4876 8.98786 98.7942 9.25937 98.2245 9.79739C97.6525 10.3369 97.3623 11.0163 97.3623 11.818C97.3623 12.6071 97.649 13.274 98.2156 13.7992C98.7786 14.3229 99.4742 14.5883 100.283 14.5883C101.091 14.5883 101.789 14.3229 102.359 13.8001C102.933 13.274 103.223 12.6073 103.223 11.818C103.223 11.0443 102.94 10.3719 102.383 9.81913C101.826 9.26741 101.119 8.98786 100.283 8.98786ZM88.2305 16.2439V38.3644H93.1601V9.61849H86.3373L77.665 30.9701L69.2491 9.61849H62.1484V38.3642H66.781V16.2417H66.9401L75.8271 38.3644H79.3231L88.0714 16.2439H88.2305Z" fill="#706D6E"/>
<path d="M22.7236 22.8092H0V0.0126953H22.7236V22.8092Z" fill="#F1511B"/>
<path d="M47.813 22.8092H25.0898V0.0126953H47.813V22.8092Z" fill="#80CC28"/>
<path d="M22.723 47.9877H0V25.1914H22.723V47.9877Z" fill="#00ADEF"/>
<path d="M47.813 47.9877H25.0898V25.1914H47.813V47.9877Z" fill="#FBBC09"/>
</g>
<defs>
<clipPath id="clip0_341_19746">
<rect width="224" height="48" fill="white"/>
</clipPath>
</defs>
</svg>
