<svg width="48" height="30" viewBox="0 0 48 30" fill="none" xmlns="http://www.w3.org/2000/svg">
<path d="M47.8 15.0996L42.8 7.59961C41.8 6.09961 40.1 5.19961 38.3 5.19961H31V3.09961C31 1.69961 29.9 0.599609 28.5 0.599609H2.5C1.1 0.599609 0 1.69961 0 3.09961V23.5996C0 24.9996 1.1 26.0996 2.5 26.0996H5.2C5.7 27.9996 7.3 29.3996 9.3 29.3996C11.3 29.3996 13 27.9996 13.4 26.0996C26.6 26.0996 26.6 26.0996 34.3 26.0996C34.8 27.9996 36.4 29.3996 38.4 29.3996C40.4 29.3996 42.1 27.9996 42.5 26.0996H47C47.6 26.0996 48 25.6996 48 25.0996V15.6996C48 15.5996 47.9 15.1996 47.8 15.0996ZM38.4 7.29961C39.5 7.29961 40.6 7.89961 41.2 8.79961L45.1 14.6996H31.1V7.29961H38.4ZM2.5 2.59961H28.6C28.9 2.59961 29.1 2.79961 29.1 3.09961V6.19961C29.1 10.3996 29.1 13.0996 29.1 17.2996H2V3.09961C2 2.79961 2.2 2.59961 2.5 2.59961ZM9.4 27.3996C8.2 27.3996 7.1 26.3996 7.1 25.0996C7.1 23.8996 8.1 22.7996 9.4 22.7996C10.6 22.7996 11.7 23.7996 11.7 25.0996C11.6 26.3996 10.6 27.3996 9.4 27.3996ZM9.4 20.8996C7.4 20.8996 5.7 22.2996 5.3 24.1996H2.5C2.2 24.1996 2 23.9996 2 23.6996V19.3996H29.1V24.1996H13.5C13.1 22.2996 11.4 20.8996 9.4 20.8996ZM38.6 27.3996C37.4 27.3996 36.3 26.3996 36.3 25.0996C36.3 23.8996 37.3 22.7996 38.6 22.7996C39.8 22.7996 40.9 23.7996 40.9 25.0996C40.8 26.3996 39.8 27.3996 38.6 27.3996ZM46 24.0996H42.7C42.2 22.1996 40.6 20.7996 38.6 20.7996C36.6 20.7996 34.9 22.1996 34.5 24.0996H31.2V16.6996H46V24.0996Z" fill="#0068FA"/>
<path d="M33 19.3994H34.7C35.3 19.3994 35.7 18.9994 35.7 18.3994C35.7 17.7994 35.3 17.3994 34.7 17.3994H33C32.4 17.3994 32 17.7994 32 18.3994C32 18.9994 32.4 19.3994 33 19.3994Z" fill="#0068FA"/>
</svg>
