<svg width="45" height="46" viewBox="0 0 45 46" fill="none" xmlns="http://www.w3.org/2000/svg">
<path d="M44.251 26.2511H41.9506L40.501 5.19955C40.4738 4.8054 40.1461 4.49997 39.7508 4.50052H35.2507C34.8555 4.49997 34.5278 4.8054 34.5006 5.19955L33.0509 26.2511H31.501V21.7509C31.501 21.337 31.165 21.0008 30.7511 21.0008C30.5803 21.0006 30.4149 21.0588 30.282 21.1654L24.0006 26.1904V21.7509C24.0006 21.337 23.665 21.0008 23.2508 21.0008C23.0802 21.0006 22.9149 21.0588 22.7819 21.1654L16.5006 26.1904V21.7509C16.5006 21.337 16.1649 21.0008 15.7508 21.0008C15.5802 21.0006 15.4146 21.0588 15.2819 21.1654L9.00055 26.1904V21.7509C9.00027 21.337 8.66436 21.0011 8.25043 21.0011C8.11392 21.0011 7.98071 21.0382 7.86398 21.1082L0.363658 25.6084C0.138157 25.744 0 25.9877 0 26.2511V44.2516C0 44.6658 0.335917 45.0015 0.750114 45.0015H44.251C44.6652 45.0015 45.0011 44.6658 45.0011 44.2516V27.0012C45.0011 26.5867 44.6652 26.2511 44.251 26.2511ZM35.9511 6.00047H39.0504L40.4474 26.2511H34.5541L35.9511 6.00047ZM25.5003 43.5015V34.5012H30.0005V43.5015H25.5003ZM43.5011 43.5015H31.501V33.7511C31.501 33.3372 31.1648 33.0013 30.7506 33.0013H24.7505C24.3363 33.0013 24.0004 33.3372 24.0004 33.7511V43.5015H1.49995V26.6757L7.50004 23.0757V27.751C7.50004 28.1655 7.83569 28.5012 8.24988 28.5017C8.42018 28.5017 8.5858 28.4435 8.71901 28.3369L15.0004 23.3119V27.751C15.0004 28.1655 15.3357 28.5012 15.7502 28.5017C15.9205 28.5017 16.0858 28.4435 16.2191 28.3372L22.5004 23.3122V27.7513C22.5004 28.1655 22.8358 28.5017 23.2502 28.5017C23.4205 28.5017 23.5859 28.4435 23.7191 28.3372L30.0005 23.3122V27.0012C30.0005 27.4157 30.3364 27.7513 30.7506 27.7513H43.5006V43.5015H43.5011Z" fill="#0068FA"/>
<path d="M25.4937 1.50061C25.7665 1.64673 26.0129 1.83735 26.223 2.0645C26.6435 2.5773 27.2423 2.91129 27.899 3.00056C28.5909 2.91239 29.2226 2.56384 29.6662 2.0255C29.856 1.82636 30.0683 1.6503 30.2993 1.50061C30.4537 1.50747 30.858 1.88596 31.0755 2.08922C31.4801 2.58993 32.0613 2.91596 32.6991 3.00056C33.4357 2.90717 34.1089 2.53775 34.5833 1.96699C34.767 1.7945 35.0453 1.53274 35.0991 1.50061C35.5018 1.50061 35.5941 1.6341 35.8418 1.99116C36.1673 2.60614 36.8034 2.99369 37.4994 3.00056C37.9133 3.00056 38.2493 2.66464 38.2493 2.25072C38.2493 1.83625 37.9133 1.50061 37.4994 1.50061C37.3492 1.50061 37.3201 1.49017 37.0764 1.13832C36.6782 0.422816 35.9176 -0.0147278 35.0991 0.000378942C34.4924 0.0847016 33.9403 0.396723 33.5558 0.873544C33.3066 1.10838 32.8891 1.50061 32.7307 1.50418C32.4983 1.36355 32.2862 1.19216 32.0989 0.995221C31.6479 0.445888 31.0041 0.0901949 30.299 0.000378942C29.6489 0.0890962 29.0567 0.420344 28.6406 0.927378C28.4302 1.15315 28.1871 1.34624 27.9199 1.50061C27.6699 1.35723 27.4425 1.17815 27.245 0.968029C26.8066 0.435725 26.1826 0.0901949 25.4987 0.000378942C25.0848 -0.00099439 24.7475 0.333549 24.7461 0.748021C24.7447 1.16194 25.0795 1.49923 25.4937 1.50061Z" fill="#0068FA"/>
<path d="M8.2503 34.5013H5.24984C4.83564 34.5013 4.5 34.8372 4.5 35.2511V39.7512C4.5 40.1657 4.83564 40.5013 5.24984 40.5013H8.2503C8.66422 40.5013 9.00014 40.1657 9.00014 39.7512V35.2511C9.00014 34.8372 8.66422 34.5013 8.2503 34.5013ZM7.49991 39.0014H5.99995V36.0015H7.49991V39.0014Z" fill="#0068FA"/>
<path d="M14.2503 34.5013H11.2501C10.8356 34.5013 10.5 34.8372 10.5 35.2511V39.7512C10.5 40.1657 10.8356 40.5013 11.2501 40.5013H14.2503C14.6642 40.5013 15.0001 40.1657 15.0001 39.7512V35.2511C15.0001 34.8372 14.6642 34.5013 14.2503 34.5013ZM13.4999 39.0014H12V36.0015H13.4999V39.0014Z" fill="#0068FA"/>
<path d="M20.2503 34.5013H17.2501C16.8356 34.5013 16.5 34.8372 16.5 35.2511V39.7512C16.5 40.1657 16.8356 40.5013 17.2501 40.5013H20.2503C20.6642 40.5013 21.0001 40.1657 21.0001 39.7512V35.2511C21.0001 34.8372 20.6642 34.5013 20.2503 34.5013ZM19.4999 39.0014H18V36.0015H19.4999V39.0014Z" fill="#0068FA"/>
</svg>
