<svg width="224" height="71" viewBox="0 0 224 71" fill="none" xmlns="http://www.w3.org/2000/svg">
<g clip-path="url(#clip0)">
<path d="M56.6598 5.14062V7.00888H58.52V5.14062H56.6598ZM56.6598 8.87714V10.7454H58.52V8.87714H56.6598ZM51.0791 10.7454V12.6137H52.9393V10.7454H51.0791ZM26.74 12.1454C11.9699 12.1454 0 24.167 0 39.001C0 53.8349 11.9699 65.8591 26.74 65.8591C41.5101 65.8591 53.48 53.8374 53.48 39.001C53.48 24.1645 41.5101 12.1454 26.7425 12.1454H26.74ZM26.74 20.7095C36.7901 20.7095 44.9553 28.9074 44.9553 39.001C44.9553 49.0945 36.7901 57.295 26.74 57.295C16.6899 57.295 8.60413 49.0945 8.60413 39.001C8.60413 28.9074 16.6899 20.7095 26.74 20.7095Z" fill="#FDB511"/>
<path d="M68.9997 53.2126C65.1553 53.2126 61.9309 52.2536 59.3266 50.3355L61.8193 46.2254C63.9027 47.6951 66.259 48.4299 68.8881 48.4299C70.1779 48.4299 71.1948 48.1808 71.9389 47.6826C72.6829 47.1595 73.055 46.4371 73.055 45.5154C73.055 45.2663 73.0302 45.0421 72.9806 44.8428C72.9299 44.6412 72.8415 44.451 72.7202 44.2824C72.5961 44.0831 72.4721 43.9212 72.3481 43.7966C72.1785 43.612 71.9768 43.4601 71.7528 43.3482C71.5048 43.1988 71.2816 43.0742 71.0832 42.9746C70.4841 42.6858 69.8618 42.4483 69.2229 42.2646C68.9749 42.165 68.5905 42.028 68.0696 41.8536C67.5487 41.6793 67.1147 41.5298 66.7675 41.4052C65.9615 41.1299 65.1779 40.7926 64.4236 40.3964C63.7248 39.9841 63.0648 39.5089 62.4518 38.9765C61.7821 38.3787 61.2736 37.6314 60.9264 36.7346C60.5791 35.8129 60.4055 34.7667 60.4055 33.5959C60.4055 31.2295 61.224 29.3986 62.861 28.1032C64.498 26.783 66.6558 26.1229 69.3346 26.1229C72.5589 26.1229 75.1756 26.7207 77.1847 27.9164L75.2873 32.2134C73.4896 31.337 71.5189 30.8773 69.5206 30.8683C66.9411 30.8683 65.6513 31.7152 65.6513 33.4091C65.6513 33.8077 65.7257 34.1564 65.8746 34.4553C66.0234 34.7542 66.1846 35.0033 66.3582 35.2026C66.5318 35.4019 66.8419 35.6012 67.2883 35.8005C67.7596 35.9998 68.144 36.1492 68.4417 36.2489L70.0042 36.7346L70.7483 36.9588C71.6164 37.2328 72.3605 37.4944 72.9806 37.7435C73.6007 37.9926 74.2827 38.3538 75.0268 38.8271C75.7709 39.2754 76.3786 39.7861 76.8498 40.359C77.3211 40.932 77.7179 41.6543 78.0404 42.5262C78.3628 43.3981 78.524 44.3696 78.524 45.4407C78.524 47.7822 77.6931 49.663 76.0313 51.0828C74.3944 52.5027 72.0505 53.2126 68.9997 53.2126ZM87.7061 53.7358L80.6744 33.5212H86.5155L90.1244 47.6452L93.1751 33.5212H98.6442L92.8775 53.1005C91.5381 57.6342 88.7478 59.901 84.5065 59.901C83.5144 59.901 82.4603 59.7889 81.3441 59.5647L81.9394 55.604C82.9315 55.7037 83.564 55.7535 83.8368 55.7535C84.8537 55.7535 85.6474 55.5916 86.2179 55.2677C86.7884 54.9688 87.2844 54.4581 87.7061 53.7358ZM117.09 36.062C118.95 34.0692 120.935 33.0728 123.043 33.0728C125.002 33.0728 126.379 33.7454 127.172 35.0905C127.991 36.4357 128.4 38.1171 128.4 40.1348V52.839H122.745V40.0601C122.745 38.5157 122.15 37.7435 120.959 37.7435C120.017 37.7435 118.963 38.2666 117.797 39.3128V52.839H112.142V40.0601C112.142 38.5157 111.547 37.7435 110.356 37.7435C109.265 37.7435 108.211 38.2915 107.194 39.3875V52.839H101.539V33.5212H105.036L106.152 36.473C108.111 34.2062 110.207 33.0728 112.44 33.0728C114.672 33.0728 116.222 34.0692 117.09 36.062ZM142.525 40.4711V39.9854C142.525 39.1135 142.327 38.4783 141.93 38.0797C141.558 37.6812 140.901 37.4819 139.958 37.4819C138.495 37.4819 136.697 37.9801 134.564 38.9765L132.629 35.24C135.109 33.7952 137.714 33.0728 140.442 33.0728C142.997 33.0728 144.919 33.708 146.209 34.9784C147.523 36.2239 148.181 38.005 148.181 40.3217V52.839H144.683C144.038 51.4689 143.704 50.7839 143.679 50.7839C141.918 52.4031 140.033 53.2126 138.024 53.2126C136.312 53.2126 134.874 52.7144 133.708 51.718C132.567 50.6967 131.997 49.3142 131.997 47.5705C131.997 45.5279 132.654 44.0333 133.968 43.0867C135.506 41.9408 138.359 41.069 142.525 40.4711ZM142.525 48.0563V43.9834C140.07 44.4816 138.582 45.0297 138.061 45.6275C137.714 46.0012 137.54 46.5118 137.54 47.1595C137.54 48.5295 138.197 49.2146 139.512 49.2146C140.603 49.2146 141.608 48.8285 142.525 48.0563ZM152.695 52.839V33.5212H156.192L157.308 36.473C159.267 34.2062 161.413 33.0728 163.744 33.0728C167.415 33.0728 169.251 35.4268 169.251 40.1348V52.839H163.596V40.0601C163.596 38.5157 162.951 37.7435 161.661 37.7435C160.47 37.7435 159.367 38.2915 158.35 39.3875V52.839H152.695ZM175.104 37.4072H172.277V33.5212H175.178L176.146 28.0285H180.759V33.5212H184.852V37.4072H180.759V46.7111C180.759 47.558 180.896 48.1434 181.168 48.4673C181.441 48.7911 181.999 48.953 182.843 48.953C183.314 48.953 183.971 48.8285 184.814 48.5794L185.484 52.5027C184.07 52.976 182.632 53.2126 181.168 53.2126C177.126 53.2126 175.104 51.1451 175.104 47.01V37.4072ZM193.644 44.8428C193.768 46.1631 194.128 47.1346 194.723 47.7573C195.343 48.3801 196.261 48.6915 197.476 48.6915C198.146 48.6915 198.816 48.5918 199.485 48.3925C200.18 48.1933 200.688 48.0064 201.011 47.8321C201.358 47.6577 201.866 47.3837 202.536 47.01L204.768 50.5971C203.999 51.17 203.342 51.6184 202.797 51.9422C202.251 52.2411 201.47 52.5276 200.453 52.8016C199.436 53.0756 198.307 53.2126 197.067 53.2126C194.24 53.2126 191.982 52.3408 190.296 50.5971C188.634 48.8285 187.803 46.4246 187.803 43.3856C187.803 40.3466 188.597 37.868 190.184 35.9499C191.772 34.0319 193.954 33.0728 196.732 33.0728C199.585 33.0728 201.718 34.0319 203.131 35.9499C204.545 37.868 205.252 40.3341 205.252 43.3482V44.8428H193.644ZM193.644 41.5173H199.485C199.485 38.6029 198.555 37.1456 196.695 37.1456C195.802 37.1456 195.108 37.4944 194.612 38.1918C194.115 38.8644 193.793 39.9729 193.644 41.5173ZM217.341 53.2126C214.265 53.2126 211.946 52.3034 210.384 50.485C208.846 48.6416 208.077 46.2378 208.077 43.2735C208.077 40.3092 208.883 37.868 210.495 35.9499C212.108 34.0319 214.389 33.0728 217.341 33.0728C219.945 33.0728 222.066 33.7952 223.703 35.24L221.061 39.0139C220.392 38.5157 219.809 38.1794 219.313 38.005C218.817 37.8057 218.172 37.7061 217.378 37.7061C215.071 37.7061 213.918 39.537 213.918 43.1988C213.918 46.7858 215.096 48.5794 217.453 48.5794C218.717 48.5794 219.995 48.0687 221.285 47.0474L224.001 50.5597C222.24 52.3283 220.02 53.2126 217.341 53.2126ZM34.3377 25.6919C29.4813 31.785 28.2585 34.4603 26.3238 39.39C24.1288 34.9311 21.5096 31.8547 16.9732 29.8171C16.115 29.5954 15.6933 29.4683 15.1129 30.2829C14.5325 31.0974 14.8872 31.8323 15.5792 32.6967C17.3948 34.9635 19.4361 37.0559 20.8498 39.6242C22.5092 42.6358 24.5728 47.5954 25.2672 48.8882C25.8203 49.9145 27.1597 50.3679 27.6731 50.3679C30.4163 50.0416 30.4163 48.6391 30.9397 46.2104C31.7879 42.2273 32.8867 38.1096 38.0581 33.1625V25.6895L34.3377 25.6919Z" fill="black"/>
<path d="M54.7999 7.00879V8.87705H56.6601V7.00879H54.7999ZM54.7999 8.87705H51.0795V10.7453H54.7999V8.87705ZM51.0795 10.7453H49.2193V14.4818H51.0795V10.7453ZM51.0795 14.4818V16.3501H52.9397V14.4818H51.0795ZM52.9397 14.4818H54.7999V12.6136H52.9397V14.4818ZM51.0795 16.3501H49.2193V18.2183H47.3591V16.3501H43.6386V18.2183H41.7784V20.0866H43.6386V21.9549H41.7784V20.0866H39.9182V21.9549H38.058V23.8231H36.1978V31.2962H39.9182V29.4279H41.7784V27.5596H43.6386V25.6914H41.7784V23.8231H43.6386V25.6914H45.4988V23.8231H47.3591V21.9549H49.2193V20.0866H51.0795V16.3501ZM47.3591 16.3501H49.2193V14.4818H47.3591V16.3501ZM47.3591 14.4818V12.6136H45.4988V14.4818H47.3591Z" fill="black"/>
</g>
<defs>
<clipPath id="clip0">
<rect width="224" height="71" fill="white"/>
</clipPath>
</defs>
</svg>
