<svg width="11" height="12" viewBox="0 0 11 12" fill="none" xmlns="http://www.w3.org/2000/svg">
<path d="M10.1174 7.68866C9.4439 7.68866 8.78264 7.58121 8.15601 7.36995C7.84896 7.26311 7.47149 7.36112 7.28409 7.55748L6.04725 8.51C4.61287 7.72887 3.72932 6.82779 2.9741 5.37546L3.88031 4.14654C4.11575 3.90667 4.2002 3.55628 4.09902 3.22751C3.89105 2.58488 3.7854 1.9106 3.7854 1.22325C3.78543 0.726714 3.38946 0.322754 2.90277 0.322754H0.882664C0.395971 0.322754 0 0.726714 0 1.22323C0 6.91455 4.53859 11.5447 10.1174 11.5447C10.6041 11.5447 11 11.1407 11 10.6442V8.58911C11 8.09262 10.604 7.68866 10.1174 7.68866Z" fill="#F67B10"/>
</svg>
