<svg width="50" height="49" viewBox="0 0 50 49" fill="none" xmlns="http://www.w3.org/2000/svg">
<path d="M45.07 34.3773C42.9012 34.3773 41.1366 36.1305 41.1366 38.2853C41.1366 40.2336 42.5809 41.8489 44.4605 42.1414V47.2289H39.7952V15.6363C39.7952 15.3016 39.5226 15.0308 39.1857 15.0308H33.5181V11.8833C33.5181 11.5486 33.2455 11.2778 32.9087 11.2778C32.5718 11.2778 32.2992 11.5486 32.2992 11.8833V15.0308H26.631C26.2942 15.0308 26.0216 15.3016 26.0216 15.6363V47.2289H23.1411V4.97736C23.1411 4.77986 23.0441 4.59478 22.881 4.48125L16.5986 0.109097C16.3891 -0.0363656 16.11 -0.0363656 15.8993 0.109097L9.61747 4.48125C9.45499 4.59478 9.35798 4.77986 9.35798 4.97736V47.2289H4.742V42.142C6.62163 41.8495 8.06591 40.2342 8.06591 38.2859C8.06591 36.1311 6.30129 34.3779 4.13257 34.3779C1.96384 34.3779 0.199219 36.1311 0.199219 38.2859C0.199219 40.2342 1.6435 41.8495 3.52313 42.142V47.2289H0.808652C0.471797 47.2289 0.199219 47.4997 0.199219 47.8344C0.199219 48.169 0.471797 48.4399 0.808652 48.4399H48.3445C48.6813 48.4399 48.9539 48.169 48.9539 47.8344C48.9539 47.4997 48.6813 47.2289 48.3445 47.2289H45.6794V42.1414C47.559 41.8489 49.0033 40.2336 49.0033 38.2853C49.0033 36.1305 47.2387 34.3773 45.07 34.3773ZM1.41809 38.2859C1.41809 36.7987 2.63576 35.5889 4.13257 35.5889C5.62937 35.5889 6.84705 36.7987 6.84705 38.2859C6.84705 39.7724 5.63045 40.9815 4.13454 40.9827C4.13383 40.9827 4.13327 40.9822 4.13257 40.9822C4.13186 40.9822 4.1313 40.9827 4.13059 40.9827C2.63468 40.9815 1.41809 39.7724 1.41809 38.2859ZM27.2405 24.8673H38.5763V31.8909H27.2405V24.8673ZM38.5763 16.2418V23.6563H27.2405V16.2418H38.5763ZM27.2405 33.1019H38.5763V47.2289H36.2254V41.583C36.2254 41.2483 35.9529 40.9775 35.616 40.9775H30.2007C29.8639 40.9775 29.5913 41.2483 29.5913 41.583V47.2289H27.2405V33.1019ZM35.0066 47.2289H30.8102V42.1885H35.0066V47.2289ZM16.2492 1.34434L21.9222 5.29252V17.1347H10.5769V5.29252L16.2492 1.34434ZM10.5769 18.3457H21.9222V47.2289H19.5666V41.583C19.5666 41.2483 19.294 40.9775 18.9572 40.9775H13.5419C13.205 40.9775 12.9325 41.2483 12.9325 41.583V47.2289H10.5769V18.3457ZM18.3477 47.2289H14.1513V42.1885H18.3477V47.2289ZM45.07 40.9822C43.5732 40.9822 42.3555 39.7724 42.3555 38.2853C42.3555 36.7981 43.5732 35.5883 45.07 35.5883C46.5668 35.5883 47.7844 36.7981 47.7844 38.2853C47.7844 39.7724 46.5668 40.9822 45.07 40.9822Z" fill="#0068FA"/>
</svg>
