<svg width="222" height="34" viewBox="0 0 222 34" fill="none" xmlns="http://www.w3.org/2000/svg">
<g clip-path="url(#clip0_341_17419)">
<path d="M95.3819 31.4354L85.6571 4.24195C85.5262 3.88025 85.3624 3.35414 85.3624 2.92667C85.3624 1.74292 86.3447 0.624933 87.7854 0.624933C89.0297 0.624933 89.8483 1.44698 90.2085 2.59785L98.2633 26.0098L106.384 2.53209C106.744 1.4141 107.497 0.624933 108.741 0.624933H109.003C110.313 0.624933 111.099 1.44698 111.492 2.53209L119.547 25.977L127.732 2.43344C128.06 1.44698 128.715 0.55917 130.024 0.55917C131.4 0.55917 132.382 1.61139 132.382 2.79515C132.382 3.22261 132.185 3.71584 132.087 4.11043L122.297 31.3367C121.806 32.7507 120.823 33.5069 119.677 33.5069H119.481C118.237 33.5069 117.32 32.7507 116.862 31.3367L108.872 8.25356L100.817 31.3367C100.392 32.7507 99.4421 33.5069 98.2306 33.5069H98.0996C96.8554 33.6056 95.873 32.8493 95.3819 31.4354ZM166.239 2.95956C166.239 1.64428 167.286 0.526287 168.596 0.526287C169.971 0.526287 171.019 1.57851 171.019 2.95956V8.48373C173.377 3.12397 178.583 0.592052 182.054 0.592052C183.494 0.592052 184.411 1.64428 184.411 3.02532C184.411 4.3406 183.527 5.2613 182.283 5.45859C176.094 6.21488 170.986 10.8841 170.986 20.1568V31.0737C170.986 32.389 170.004 33.5069 168.629 33.5069C167.254 33.5069 166.206 32.4547 166.206 31.0737L166.239 2.95956ZM199.735 33.8029C191.091 33.8029 184.051 27.095 184.051 17.2303V17.0988C184.051 7.92474 190.436 0.526287 199.113 0.526287C208.412 0.526287 213.716 8.22068 213.716 16.6714C213.716 17.9538 212.669 18.9073 211.523 18.9073H188.799C189.454 25.8126 194.267 29.6926 199.866 29.6926C203.762 29.6926 206.611 28.1472 208.936 25.977C209.296 25.681 209.722 25.418 210.278 25.418C211.424 25.418 212.341 26.3387 212.341 27.4567C212.341 28.0156 212.112 28.5746 211.621 29.0021C208.608 31.8628 205.072 33.8029 199.735 33.8029ZM209.034 15.3561C208.543 9.56884 205.269 4.50501 199.015 4.50501C193.546 4.50501 189.421 9.10849 188.799 15.3561H209.034ZM132.349 23.8396V23.7081C132.349 16.9344 137.916 13.3503 146.003 13.3503C150.096 13.3503 152.977 13.9093 155.859 14.7313V13.6133C155.859 7.82609 152.323 4.86671 146.331 4.86671C143.122 4.86671 141.255 5.29418 138.898 6.3464C138.603 6.47793 138.276 6.54369 138.047 6.54369C136.933 6.54369 135.951 5.623 135.951 4.50501C135.951 3.51855 136.377 2.89379 137.261 2.49921C140.404 1.11816 142.794 0.657816 146.854 0.657816C151.373 0.657816 154.844 1.84157 157.169 4.20907C159.33 6.37929 160.443 9.50308 160.443 13.5804V31.3038C160.443 32.652 159.461 33.6714 158.151 33.6714C156.808 33.6714 155.892 32.6849 155.892 31.4354V28.3774C153.665 31.3039 149.932 33.9015 144.333 33.9015C138.374 33.8358 132.349 30.416 132.349 23.8396ZM155.924 21.3406V18.2497C153.567 17.5592 150.423 16.8686 146.527 16.8686C140.535 16.8686 137.195 19.4663 137.195 23.5108V23.6423C137.195 27.6868 140.895 30.0543 145.25 30.0543C151.111 30.0543 155.924 26.4373 155.924 21.3406ZM8.74297 2.6965C7.69518 0.394759 5.10846 -0.657465 2.68545 0.427641C0.262438 1.51275 -0.621632 4.20907 0.458899 6.51081L10.6093 28.6733C12.2138 32.1588 13.8837 33.9673 17.0598 33.9673C20.4323 33.9673 21.9058 31.9944 23.5102 28.6733C23.5102 28.6733 32.3509 9.30578 32.4492 9.10849C32.5474 8.9112 32.8093 8.28644 33.7262 8.28644C34.4793 8.28644 35.1341 8.9112 35.1341 9.73325V28.6733C35.1341 31.5998 36.7385 34.0002 39.8492 34.0002C42.9598 34.0002 44.6297 31.5998 44.6297 28.6733V13.1859C44.6297 10.1936 46.758 8.25356 49.6722 8.25356C52.5863 8.25356 54.5182 10.2594 54.5182 13.1859V28.6733C54.5182 31.5998 56.1226 34.0002 59.2332 34.0002C62.3439 34.0002 64.0138 31.5998 64.0138 28.6733V13.1859C64.0138 10.1936 66.1421 8.25356 69.0562 8.25356C71.9704 8.25356 73.9023 10.2594 73.9023 13.1859V28.6733C73.9023 31.5998 75.5067 34.0002 78.6173 34.0002C81.7279 34.0002 83.3978 31.5998 83.3978 28.6733V11.0485C83.3978 4.57077 78.2244 0.0330573 71.9704 0.0330573C65.7492 0.0330573 61.82 4.37348 61.82 4.37348C59.7571 1.64428 56.8757 0.000175287 52.0297 0.000175287C46.9217 0.000175287 42.4359 4.3406 42.4359 4.3406C40.3731 1.64428 36.8368 0.000175287 33.8899 0.000175287C29.3713 0.0330573 25.7695 2.03886 23.5757 7.06981L17.0925 22.4257L8.74297 2.6965ZM214.077 4.50501C214.077 2.30192 215.812 0.493405 218.039 0.493405C220.265 0.493405 222 2.26903 222 4.43925V4.47213C222 6.64234 220.265 8.48373 218.039 8.48373C215.812 8.48373 214.077 6.67522 214.077 4.50501ZM221.247 4.47213C221.247 2.66362 219.872 1.21681 218.039 1.21681C216.238 1.21681 214.83 2.6965 214.83 4.47213V4.50501C214.83 6.28064 216.205 7.76033 218.039 7.76033C219.839 7.76033 221.247 6.24776 221.247 4.47213Z" fill="#717073"/>
<path d="M216.533 2.92655C216.533 2.69638 216.729 2.49908 216.958 2.49908H218.268C218.759 2.49908 219.152 2.63061 219.381 2.89367C219.611 3.09096 219.709 3.41978 219.709 3.78148C219.709 4.37336 219.414 4.76794 218.956 4.96524L219.545 5.68864C219.611 5.78729 219.676 5.88593 219.676 6.01746C219.676 6.24763 219.48 6.41204 219.283 6.41204C219.087 6.41204 218.956 6.3134 218.858 6.18187L218.039 5.12965H217.351V5.9517C217.351 6.18187 217.155 6.37916 216.926 6.37916C216.696 6.37916 216.5 6.18187 216.5 5.9517L216.533 2.92655ZM218.235 4.37336C218.661 4.37336 218.858 4.14319 218.858 3.81437C218.858 3.45266 218.628 3.25537 218.203 3.25537H217.351V4.37336H218.235Z" fill="#717073"/>
</g>
<defs>
<clipPath id="clip0_341_17419">
<rect width="222" height="34" fill="white"/>
</clipPath>
</defs>
</svg>
