<svg width="11" height="11" viewBox="0 0 11 11" fill="none" xmlns="http://www.w3.org/2000/svg">
<path d="M0.878798 10.0422L1.34811 8.24897L1.39868 8.05573L1.30218 7.88083C0.918799 7.186 0.71622 6.39571 0.71644 5.58414M0.878798 10.0422L5.06999 1.00684C2.69196 1.00697 0.717395 3.03912 0.71644 5.58414M0.878798 10.0422L2.61656 9.56538L2.81648 9.51053L2.99655 9.61322C3.63072 9.97489 4.34369 10.1652 5.06828 10.1655L0.878798 10.0422ZM0.71644 5.58414L0.21644 5.58401L0.71644 5.58414ZM8.14207 2.34124L8.14203 2.34119C7.31774 1.4778 6.22866 1.00743 5.07022 1.00684L8.14207 2.34124ZM8.14207 2.34124C8.96748 3.20559 9.42451 4.35661 9.42407 5.58778L8.14207 2.34124ZM9.42407 5.5878C9.42303 8.13304 7.4482 10.1655 5.07046 10.1655H5.07043H5.07043H5.07042H5.07041H5.0704H5.06848L9.42407 5.5878ZM5.07047 10.6655H5.07046H5.07047Z" stroke="#F67B10"/>
<path d="M0 10.9374L0.713276 8.21198C0.273299 7.41432 0.0418718 6.50949 0.0421952 5.58251C0.0433268 2.68256 2.29875 0.323242 5.07021 0.323242C6.41512 0.323834 7.6775 0.871566 8.62681 1.8657C9.57604 2.85984 10.0986 4.1813 10.0981 5.58674C10.0969 8.4866 7.84119 10.8463 5.07021 10.8463C5.07005 10.8463 5.07029 10.8463 5.07021 10.8463H5.06803C4.22655 10.8459 3.39978 10.6251 2.66541 10.206L0 10.9374ZM2.78884 9.2539L2.94154 9.34855C3.58303 9.74691 4.31854 9.9576 5.06859 9.95802H5.07021C7.37348 9.95802 9.24818 7.99681 9.24915 5.5864C9.24955 4.41829 8.81531 3.31986 8.0263 2.49361C7.2372 1.66737 6.18806 1.21208 5.07175 1.21157C2.76661 1.21157 0.891999 3.17253 0.89111 5.58285C0.890787 6.40884 1.11162 7.21319 1.53002 7.90927L1.62944 8.07471L1.20717 9.68779L2.78884 9.2539Z" fill="white"/>
<mask id="path-3-inside-1_341_17755" fill="white">
<path d="M0 10.9374L0.713276 8.21198C0.273299 7.41432 0.0418718 6.50949 0.0421952 5.58251C0.0433268 2.68256 2.29875 0.323242 5.07021 0.323242C6.41512 0.323834 7.6775 0.871566 8.62681 1.8657C9.57604 2.85984 10.0986 4.1813 10.0981 5.58674C10.0969 8.4866 7.84119 10.8463 5.07021 10.8463C5.07005 10.8463 5.07029 10.8463 5.07021 10.8463H5.06803C4.22655 10.8459 3.39978 10.6251 2.66541 10.206L0 10.9374ZM2.78884 9.2539L2.94154 9.34855C3.58303 9.74691 4.31854 9.9576 5.06859 9.95802H5.07021C7.37348 9.95802 9.24818 7.99681 9.24915 5.5864C9.24955 4.41829 8.81531 3.31986 8.0263 2.49361C7.2372 1.66737 6.18806 1.21208 5.07175 1.21157C2.76661 1.21157 0.891999 3.17253 0.89111 5.58285C0.890787 6.40884 1.11162 7.21319 1.53002 7.90927L1.62944 8.07471L1.20717 9.68779L2.78884 9.2539Z"/>
</mask>
<path d="M0 10.9374L0.713276 8.21198C0.273299 7.41432 0.0418718 6.50949 0.0421952 5.58251C0.0433268 2.68256 2.29875 0.323242 5.07021 0.323242C6.41512 0.323834 7.6775 0.871566 8.62681 1.8657C9.57604 2.85984 10.0986 4.1813 10.0981 5.58674C10.0969 8.4866 7.84119 10.8463 5.07021 10.8463C5.07005 10.8463 5.07029 10.8463 5.07021 10.8463H5.06803C4.22655 10.8459 3.39978 10.6251 2.66541 10.206L0 10.9374ZM2.78884 9.2539L2.94154 9.34855C3.58303 9.74691 4.31854 9.9576 5.06859 9.95802H5.07021C7.37348 9.95802 9.24818 7.99681 9.24915 5.5864C9.24955 4.41829 8.81531 3.31986 8.0263 2.49361C7.2372 1.66737 6.18806 1.21208 5.07175 1.21157C2.76661 1.21157 0.891999 3.17253 0.89111 5.58285C0.890787 6.40884 1.11162 7.21319 1.53002 7.90927L1.62944 8.07471L1.20717 9.68779L2.78884 9.2539Z" fill="white"/>
<path d="M0 10.9374L-0.967417 10.6842L-1.40604 12.3601L0.264606 11.9017L0 10.9374ZM0.713276 8.21198L1.68069 8.46517L1.78182 8.07875L1.58891 7.72899L0.713276 8.21198ZM0.0421952 5.58251L-0.957805 5.58212L-0.957805 5.58216L0.0421952 5.58251ZM5.07021 0.323242L5.07065 -0.676758H5.07021V0.323242ZM8.62681 1.8657L9.35006 1.17512L9.35003 1.17509L8.62681 1.8657ZM10.0981 5.58674L11.0981 5.58716V5.58709L10.0981 5.58674ZM5.06803 10.8463L5.06763 11.8463H5.06803V10.8463ZM2.66541 10.206L3.16105 9.33748L2.8008 9.13189L2.4008 9.24165L2.66541 10.206ZM2.78884 9.2539L3.31567 8.40393L2.94493 8.17414L2.52429 8.28953L2.78884 9.2539ZM2.94154 9.34855L3.46909 8.49902L3.46837 8.49857L2.94154 9.34855ZM5.06859 9.95802L5.06803 10.958H5.06859V9.95802ZM9.24915 5.5864L10.2491 5.5868V5.58675L9.24915 5.5864ZM8.0263 2.49361L8.74951 1.80299L8.74947 1.80295L8.0263 2.49361ZM5.07175 1.21157L5.0722 0.211572H5.07175V1.21157ZM0.89111 5.58285L1.89111 5.58324V5.58322L0.89111 5.58285ZM1.53002 7.90927L2.38714 7.39415L2.38711 7.3941L1.53002 7.90927ZM1.62944 8.07471L2.59685 8.32795L2.7035 7.92055L2.48656 7.55959L1.62944 8.07471ZM1.20717 9.68779L0.239768 9.43454L-0.198957 11.1105L1.47172 10.6522L1.20717 9.68779ZM0.967417 11.1905L1.68069 8.46517L-0.254141 7.95879L-0.967417 10.6842L0.967417 11.1905ZM1.58891 7.72899C1.23179 7.08155 1.04193 6.34335 1.0422 5.58286L-0.957805 5.58216C-0.958186 6.67563 -0.68519 7.74708 -0.162353 8.69496L1.58891 7.72899ZM1.0422 5.5829C1.04313 3.19184 2.89315 1.32324 5.07021 1.32324V-0.676758C1.70434 -0.676758 -0.956474 2.17328 -0.957805 5.58212L1.0422 5.5829ZM5.06977 1.32324C6.13469 1.32371 7.13802 1.7546 7.90358 2.55632L9.35003 1.17509C8.21698 -0.0114705 6.69555 -0.676042 5.07065 -0.676758L5.06977 1.32324ZM7.90356 2.55629C8.67071 3.35974 9.09854 4.43191 9.09814 5.5864L11.0981 5.58709C11.0987 3.93069 10.4814 2.35995 9.35006 1.17512L7.90356 2.55629ZM9.09814 5.58632C9.09714 7.97738 7.24673 9.84626 5.07021 9.84626V11.8463C8.43565 11.8463 11.0967 8.99583 11.0981 5.58716L9.09814 5.58632ZM5.07021 9.84626C5.07021 9.84626 5.07021 9.84626 5.07021 9.84626C5.07021 9.84626 5.07021 9.84626 5.07021 9.84626C5.07021 9.84626 5.07021 9.84626 5.07021 9.84626C5.07021 9.84626 5.07021 9.84626 5.07021 9.84626C5.07021 9.84626 5.07021 9.84626 5.07021 9.84626C5.0702 9.84626 5.0702 9.84626 5.0702 9.84626C5.0702 9.84626 5.0702 9.84626 5.0702 9.84626C5.0702 9.84626 5.0702 9.84626 5.0702 9.84626C5.0702 9.84626 5.0702 9.84626 5.0702 9.84626H5.0702C5.0702 9.84626 5.0702 9.84626 5.0702 9.84626C5.0702 9.84626 5.0702 9.84626 5.0702 9.84626C5.0702 9.84626 5.0702 9.84626 5.0702 9.84626H5.0702C5.0702 9.84626 5.0702 9.84626 5.0702 9.84626C5.0702 9.84626 5.0702 9.84626 5.0702 9.84626C5.0702 9.84626 5.0702 9.84626 5.07019 9.84626H5.07019C5.07019 9.84626 5.07019 9.84626 5.07019 9.84626H5.07019C5.07019 9.84626 5.07019 9.84626 5.07019 9.84626C5.07019 9.84626 5.07019 9.84626 5.07019 9.84626H5.07019C5.07019 9.84626 5.07019 9.84626 5.07019 9.84626H5.07019C5.07019 9.84626 5.07019 9.84626 5.07019 9.84626H5.07019C5.07019 9.84626 5.07019 9.84626 5.07019 9.84626H5.07019C5.07019 9.84626 5.07019 9.84626 5.07019 9.84626H5.07018C5.07018 9.84626 5.07018 9.84626 5.07018 9.84626C5.07018 9.84626 5.07018 9.84626 5.07018 9.84626H5.07018C5.07018 9.84626 5.07018 9.84626 5.07018 9.84626H5.07018H5.07018C5.07018 9.84626 5.07018 9.84626 5.07018 9.84626C5.07018 9.84626 5.07018 9.84626 5.07018 9.84626H5.07018C5.07018 9.84626 5.07018 9.84626 5.07018 9.84626C5.07018 9.84626 5.07018 9.84626 5.07018 9.84626C5.07018 9.84626 5.07018 9.84626 5.07018 9.84626H5.07018H5.07018C5.07018 9.84626 5.07018 9.84626 5.07018 9.84626C5.07018 9.84626 5.07018 9.84626 5.07017 9.84626C5.07017 9.84626 5.07017 9.84626 5.07017 9.84626H5.07017H5.07017H5.07017H5.07017C5.07017 9.84626 5.07017 9.84626 5.07017 9.84626C5.07017 9.84626 5.07017 9.84626 5.07017 9.84626C5.07017 9.84626 5.07017 9.84626 5.07017 9.84626C5.07017 9.84626 5.07017 9.84626 5.07017 9.84626C5.07017 9.84626 5.07017 9.84626 5.07017 9.84626C5.07017 9.84626 5.07017 9.84626 5.07017 9.84626C5.07017 9.84626 5.07017 9.84626 5.07017 9.84626C5.07017 9.84626 5.07017 9.84626 5.07017 9.84626C5.07017 9.84626 5.07017 9.84626 5.07017 9.84626H5.07017H5.07017H5.07017C5.07017 9.84626 5.07017 9.84626 5.07017 9.84626C5.07017 9.84626 5.07017 9.84626 5.07017 9.84626C5.07017 9.84626 5.07017 9.84626 5.07017 9.84626C5.07016 9.84626 5.07016 9.84626 5.07016 9.84626H5.07016C5.07016 9.84626 5.07016 9.84626 5.07016 9.84626C5.07016 9.84626 5.07016 9.84626 5.07016 9.84626H5.07016C5.07016 9.84626 5.07016 9.84626 5.07016 9.84626C5.07016 9.84626 5.07016 9.84626 5.07016 9.84626H5.07016C5.07016 9.84626 5.07016 9.84626 5.07016 9.84626H5.07016C5.07016 9.84626 5.07016 9.84626 5.07016 9.84626C5.07016 9.84626 5.07016 9.84626 5.07016 9.84626H5.07016C5.07016 9.84626 5.07016 9.84626 5.07016 9.84626C5.07016 9.84626 5.07016 9.84626 5.07016 9.84626C5.07016 9.84626 5.07016 9.84626 5.07016 9.84626C5.07016 9.84626 5.07016 9.84626 5.07016 9.84626C5.07016 9.84626 5.07016 9.84626 5.07016 9.84626H5.07016C5.07016 9.84626 5.07016 9.84626 5.07016 9.84626H5.07016H5.07015C5.07015 9.84626 5.07015 9.84626 5.07015 9.84626C5.07015 9.84626 5.07015 9.84626 5.07015 9.84626C5.07015 9.84626 5.07015 9.84626 5.07015 9.84626H5.07015C5.07015 9.84626 5.07015 10.8463 5.07015 11.8463H5.07015H5.07015C5.07015 11.8463 5.07015 11.8463 5.07015 11.8463C5.07015 11.8463 5.07015 11.8463 5.07015 11.8463C5.07016 11.8463 5.07016 11.8463 5.07016 11.8463H5.07016C5.07016 11.8463 5.07016 11.8463 5.07016 11.8463H5.07016H5.07016C5.07016 11.8463 5.07016 11.8463 5.07016 11.8463H5.07016C5.07016 11.8463 5.07016 11.8463 5.07016 11.8463C5.07016 11.8463 5.07016 11.8463 5.07016 11.8463H5.07016H5.07016H5.07016H5.07016H5.07016H5.07016H5.07016C5.07016 11.8463 5.07016 11.8463 5.07016 11.8463C5.07016 11.8463 5.07016 11.8463 5.07016 11.8463C5.07016 11.8463 5.07016 11.8463 5.07016 11.8463C5.07016 11.8463 5.07016 11.8463 5.07016 11.8463H5.07016C5.07017 11.8463 5.07017 11.8463 5.07017 11.8463C5.07017 11.8463 5.07017 11.8463 5.07017 11.8463H5.07017C5.07017 11.8463 5.07017 11.8463 5.07017 11.8463C5.07017 11.8463 5.07017 11.8463 5.07017 11.8463H5.07017C5.07017 11.8463 5.07017 11.8463 5.07017 11.8463H5.07017C5.07017 11.8463 5.07017 11.8463 5.07017 11.8463H5.07017C5.07017 11.8463 5.07017 11.8463 5.07017 11.8463H5.07017C5.07017 11.8463 5.07017 11.8463 5.07017 11.8463H5.07017C5.07017 11.8463 5.07017 11.8463 5.07017 11.8463H5.07017C5.07017 11.8463 5.07017 11.8463 5.07017 11.8463H5.07017C5.07017 11.8463 5.07017 11.8463 5.07017 11.8463C5.07017 11.8463 5.07017 11.8463 5.07017 11.8463C5.07017 11.8463 5.07017 11.8463 5.07017 11.8463C5.07018 11.8463 5.07018 11.8463 5.07018 11.8463H5.07018C5.07018 11.8463 5.07018 11.8463 5.07018 11.8463C5.07018 11.8463 5.07018 11.8463 5.07018 11.8463H5.07018C5.07018 11.8463 5.07018 11.8463 5.07018 11.8463H5.07018C5.07018 11.8463 5.07018 11.8463 5.07018 11.8463C5.07018 11.8463 5.07018 11.8463 5.07018 11.8463H5.07018C5.07018 11.8463 5.07018 11.8463 5.07018 11.8463C5.07018 11.8463 5.07018 11.8463 5.07018 11.8463H5.07018C5.07018 11.8463 5.07018 11.8463 5.07018 11.8463C5.07018 11.8463 5.07018 11.8463 5.07018 11.8463H5.07018C5.07018 11.8463 5.07018 11.8463 5.07018 11.8463C5.07018 11.8463 5.07018 11.8463 5.07018 11.8463H5.07018H5.07018C5.07018 11.8463 5.07018 11.8463 5.07018 11.8463C5.07019 11.8463 5.07019 11.8463 5.07019 11.8463H5.07019C5.07019 11.8463 5.07019 11.8463 5.07019 11.8463C5.07019 11.8463 5.07019 11.8463 5.07019 11.8463H5.07019C5.07019 11.8463 5.07019 11.8463 5.07019 11.8463C5.07019 11.8463 5.07019 11.8463 5.07019 11.8463H5.07019H5.07019C5.07019 11.8463 5.07019 11.8463 5.07019 11.8463C5.07019 11.8463 5.07019 11.8463 5.07019 11.8463H5.07019C5.07019 11.8463 5.07019 11.8463 5.07019 11.8463C5.07019 11.8463 5.07019 11.8463 5.07019 11.8463H5.07019C5.07019 11.8463 5.07019 11.8463 5.07019 11.8463C5.07019 11.8463 5.07019 11.8463 5.07019 11.8463C5.07019 11.8463 5.07019 11.8463 5.07019 11.8463H5.07019C5.07019 11.8463 5.07019 11.8463 5.07019 11.8463C5.07019 11.8463 5.07019 11.8463 5.07019 11.8463H5.0702C5.0702 11.8463 5.0702 11.8463 5.0702 11.8463C5.0702 11.8463 5.0702 11.8463 5.0702 11.8463H5.0702C5.0702 11.8463 5.0702 11.8463 5.0702 11.8463C5.0702 11.8463 5.0702 11.8463 5.0702 11.8463H5.0702C5.0702 11.8463 5.0702 11.8463 5.0702 11.8463C5.0702 11.8463 5.0702 11.8463 5.0702 11.8463H5.0702C5.0702 11.8463 5.0702 11.8463 5.0702 11.8463C5.0702 11.8463 5.0702 11.8463 5.0702 11.8463H5.0702C5.0702 11.8463 5.0702 11.8463 5.0702 11.8463C5.0702 11.8463 5.0702 11.8463 5.0702 11.8463H5.0702C5.0702 11.8463 5.0702 11.8463 5.0702 11.8463C5.0702 11.8463 5.0702 11.8463 5.0702 11.8463H5.0702C5.0702 11.8463 5.0702 11.8463 5.0702 11.8463H5.0702C5.0702 11.8463 5.0702 11.8463 5.07021 11.8463C5.07021 11.8463 5.07021 11.8463 5.07021 11.8463H5.07021C5.07021 11.8463 5.07021 11.8463 5.07021 11.8463H5.07021C5.07021 11.8463 5.07021 11.8463 5.07021 11.8463H5.07021C5.07021 11.8463 5.07021 11.8463 5.07021 11.8463C5.07021 11.8463 5.07021 11.8463 5.07021 11.8463C5.07021 11.8463 5.07021 11.8463 5.07021 11.8463C5.07021 11.8463 5.07021 11.8463 5.07021 11.8463C5.07021 11.8463 5.07021 11.8463 5.07021 11.8463H5.07021C5.07021 11.8463 5.07021 11.8463 5.07021 11.8463H5.07021C5.07021 11.8463 5.07021 11.8463 5.07021 11.8463H5.07021C5.07021 11.8463 5.07021 11.8463 5.07021 11.8463C5.07021 11.8463 5.07021 11.8463 5.07021 11.8463H5.07021C5.07021 11.8463 5.07021 11.8463 5.07021 11.8463C5.07021 11.8463 5.07021 11.8463 5.07022 11.8463C5.07022 11.8463 5.07022 11.8463 5.07022 11.8463H5.07022C5.07022 11.8463 5.07022 11.8463 5.07022 11.8463C5.07022 11.8463 5.07022 11.8463 5.07022 11.8463C5.07022 11.8463 5.07022 11.8463 5.07022 11.8463C5.07022 11.8463 5.07022 11.8463 5.07022 11.8463C5.07022 11.8463 5.07022 11.8463 5.07022 11.8463H5.07022C5.07022 11.8463 5.07022 11.8463 5.07022 11.8463C5.07022 11.8463 5.07022 11.8463 5.07022 11.8463C5.07022 11.8463 5.07022 11.8463 5.07022 11.8463C5.07022 11.8463 5.07022 11.8463 5.07022 11.8463H5.07022C5.07022 11.8463 5.07022 11.8463 5.07022 11.8463C5.07022 11.8463 5.07022 11.8463 5.07022 11.8463C5.07022 11.8463 5.07022 11.8463 5.07022 11.8463H5.07022C5.07022 11.8463 5.07022 11.8463 5.07022 11.8463H5.07022C5.07022 11.8463 5.07022 11.8463 5.07022 11.8463H5.07023H5.07023H5.07023H5.07023C5.07023 11.8463 5.07023 10.8463 5.07023 9.84626C5.07023 9.84626 5.07023 9.84626 5.07023 9.84626H5.07023C5.07023 9.84626 5.07023 9.84626 5.07023 9.84626C5.07023 9.84626 5.07023 9.84626 5.07022 9.84626C5.07022 9.84626 5.07022 9.84626 5.07022 9.84626C5.07022 9.84626 5.07022 9.84626 5.07022 9.84626C5.07022 9.84626 5.07022 9.84626 5.07022 9.84626C5.07022 9.84626 5.07022 9.84626 5.07022 9.84626H5.07022H5.07022H5.07022H5.07022C5.07022 9.84626 5.07022 9.84626 5.07022 9.84626C5.07022 9.84626 5.07022 9.84626 5.07022 9.84626H5.07022C5.07022 9.84626 5.07022 9.84626 5.07022 9.84626C5.07022 9.84626 5.07022 9.84626 5.07022 9.84626C5.07022 9.84626 5.07022 9.84626 5.07022 9.84626C5.07022 9.84626 5.07022 9.84626 5.07022 9.84626C5.07022 9.84626 5.07022 9.84626 5.07022 9.84626H5.07022C5.07022 9.84626 5.07022 9.84626 5.07022 9.84626C5.07022 9.84626 5.07022 9.84626 5.07022 9.84626H5.07022C5.07022 9.84626 5.07022 9.84626 5.07021 9.84626C5.07021 9.84626 5.07021 9.84626 5.07021 9.84626C5.07021 9.84626 5.07021 9.84626 5.07021 9.84626H5.07021H5.07021H5.07021C5.07021 9.84626 5.07021 9.84626 5.07021 9.84626C5.07021 9.84626 5.07021 9.84626 5.07021 9.84626C5.07021 9.84626 5.07021 9.84626 5.07021 9.84626C5.07021 9.84626 5.07021 9.84626 5.07021 9.84626C5.07021 9.84626 5.07021 9.84626 5.07021 9.84626V11.8463C5.07021 11.8463 5.07021 11.8463 5.07021 11.8463C5.07021 11.8463 5.07021 11.8463 5.07021 11.8463C5.07021 11.8463 5.07021 11.8463 5.07021 11.8463C5.07021 11.8463 5.07021 11.8463 5.07021 11.8463C5.07021 11.8463 5.07021 11.8463 5.07021 11.8463H5.07021H5.07021H5.07021C5.07021 11.8463 5.07021 11.8463 5.07021 11.8463C5.07021 11.8463 5.07021 11.8463 5.07021 11.8463C5.07022 11.8463 5.07022 11.8463 5.07022 11.8463H5.07022C5.07022 11.8463 5.07022 11.8463 5.07022 11.8463C5.07022 11.8463 5.07022 11.8463 5.07022 11.8463H5.07022C5.07022 11.8463 5.07022 11.8463 5.07022 11.8463C5.07022 11.8463 5.07022 11.8463 5.07022 11.8463C5.07022 11.8463 5.07022 11.8463 5.07022 11.8463C5.07022 11.8463 5.07022 11.8463 5.07022 11.8463C5.07022 11.8463 5.07022 11.8463 5.07022 11.8463H5.07022C5.07022 11.8463 5.07022 11.8463 5.07022 11.8463C5.07022 11.8463 5.07022 11.8463 5.07022 11.8463H5.07022H5.07022H5.07022H5.07022C5.07022 11.8463 5.07022 11.8463 5.07022 11.8463C5.07022 11.8463 5.07022 11.8463 5.07022 11.8463C5.07022 11.8463 5.07022 11.8463 5.07022 11.8463C5.07022 11.8463 5.07022 11.8463 5.07022 11.8463C5.07023 11.8463 5.07023 11.8463 5.07023 11.8463C5.07023 11.8463 5.07023 11.8463 5.07023 11.8463H5.07023C5.07023 11.8463 5.07023 11.8463 5.07023 11.8463C5.07023 10.8463 5.07023 9.84626 5.07023 9.84626H5.07023H5.07023H5.07023H5.07022C5.07022 9.84626 5.07022 9.84626 5.07022 9.84626H5.07022C5.07022 9.84626 5.07022 9.84626 5.07022 9.84626H5.07022C5.07022 9.84626 5.07022 9.84626 5.07022 9.84626C5.07022 9.84626 5.07022 9.84626 5.07022 9.84626C5.07022 9.84626 5.07022 9.84626 5.07022 9.84626H5.07022C5.07022 9.84626 5.07022 9.84626 5.07022 9.84626C5.07022 9.84626 5.07022 9.84626 5.07022 9.84626C5.07022 9.84626 5.07022 9.84626 5.07022 9.84626C5.07022 9.84626 5.07022 9.84626 5.07022 9.84626H5.07022C5.07022 9.84626 5.07022 9.84626 5.07022 9.84626C5.07022 9.84626 5.07022 9.84626 5.07022 9.84626C5.07022 9.84626 5.07022 9.84626 5.07022 9.84626C5.07022 9.84626 5.07022 9.84626 5.07022 9.84626C5.07022 9.84626 5.07022 9.84626 5.07022 9.84626H5.07022C5.07022 9.84626 5.07022 9.84626 5.07022 9.84626C5.07021 9.84626 5.07021 9.84626 5.07021 9.84626C5.07021 9.84626 5.07021 9.84626 5.07021 9.84626H5.07021C5.07021 9.84626 5.07021 9.84626 5.07021 9.84626C5.07021 9.84626 5.07021 9.84626 5.07021 9.84626H5.07021C5.07021 9.84626 5.07021 9.84626 5.07021 9.84626H5.07021C5.07021 9.84626 5.07021 9.84626 5.07021 9.84626H5.07021C5.07021 9.84626 5.07021 9.84626 5.07021 9.84626C5.07021 9.84626 5.07021 9.84626 5.07021 9.84626C5.07021 9.84626 5.07021 9.84626 5.07021 9.84626C5.07021 9.84626 5.07021 9.84626 5.07021 9.84626C5.07021 9.84626 5.07021 9.84626 5.07021 9.84626H5.07021C5.07021 9.84626 5.07021 9.84626 5.07021 9.84626H5.07021C5.07021 9.84626 5.07021 9.84626 5.07021 9.84626H5.07021C5.07021 9.84626 5.07021 9.84626 5.07021 9.84626C5.0702 9.84626 5.0702 9.84626 5.0702 9.84626H5.0702C5.0702 9.84626 5.0702 9.84626 5.0702 9.84626H5.0702C5.0702 9.84626 5.0702 9.84626 5.0702 9.84626C5.0702 9.84626 5.0702 9.84626 5.0702 9.84626H5.0702C5.0702 9.84626 5.0702 9.84626 5.0702 9.84626C5.0702 9.84626 5.0702 9.84626 5.0702 9.84626H5.0702C5.0702 9.84626 5.0702 9.84626 5.0702 9.84626C5.0702 9.84626 5.0702 9.84626 5.0702 9.84626H5.0702C5.0702 9.84626 5.0702 9.84626 5.0702 9.84626C5.0702 9.84626 5.0702 9.84626 5.0702 9.84626H5.0702C5.0702 9.84626 5.0702 9.84626 5.0702 9.84626C5.0702 9.84626 5.0702 9.84626 5.0702 9.84626H5.0702C5.0702 9.84626 5.0702 9.84626 5.0702 9.84626C5.0702 9.84626 5.0702 9.84626 5.0702 9.84626H5.07019C5.07019 9.84626 5.07019 9.84626 5.07019 9.84626C5.07019 9.84626 5.07019 9.84626 5.07019 9.84626H5.07019C5.07019 9.84626 5.07019 9.84626 5.07019 9.84626C5.07019 9.84626 5.07019 9.84626 5.07019 9.84626C5.07019 9.84626 5.07019 9.84626 5.07019 9.84626H5.07019C5.07019 9.84626 5.07019 9.84626 5.07019 9.84626C5.07019 9.84626 5.07019 9.84626 5.07019 9.84626H5.07019C5.07019 9.84626 5.07019 9.84626 5.07019 9.84626C5.07019 9.84626 5.07019 9.84626 5.07019 9.84626H5.07019H5.07019C5.07019 9.84626 5.07019 9.84626 5.07019 9.84626C5.07019 9.84626 5.07019 9.84626 5.07019 9.84626H5.07019C5.07019 9.84626 5.07019 9.84626 5.07019 9.84626C5.07019 9.84626 5.07019 9.84626 5.07019 9.84626H5.07019C5.07019 9.84626 5.07019 9.84626 5.07018 9.84626C5.07018 9.84626 5.07018 9.84626 5.07018 9.84626H5.07018H5.07018C5.07018 9.84626 5.07018 9.84626 5.07018 9.84626C5.07018 9.84626 5.07018 9.84626 5.07018 9.84626H5.07018C5.07018 9.84626 5.07018 9.84626 5.07018 9.84626C5.07018 9.84626 5.07018 9.84626 5.07018 9.84626H5.07018C5.07018 9.84626 5.07018 9.84626 5.07018 9.84626C5.07018 9.84626 5.07018 9.84626 5.07018 9.84626H5.07018C5.07018 9.84626 5.07018 9.84626 5.07018 9.84626C5.07018 9.84626 5.07018 9.84626 5.07018 9.84626H5.07018C5.07018 9.84626 5.07018 9.84626 5.07018 9.84626H5.07018C5.07018 9.84626 5.07018 9.84626 5.07018 9.84626C5.07018 9.84626 5.07018 9.84626 5.07018 9.84626H5.07018C5.07018 9.84626 5.07018 9.84626 5.07017 9.84626C5.07017 9.84626 5.07017 9.84626 5.07017 9.84626C5.07017 9.84626 5.07017 9.84626 5.07017 9.84626C5.07017 9.84626 5.07017 9.84626 5.07017 9.84626H5.07017C5.07017 9.84626 5.07017 9.84626 5.07017 9.84626H5.07017C5.07017 9.84626 5.07017 9.84626 5.07017 9.84626H5.07017C5.07017 9.84626 5.07017 9.84626 5.07017 9.84626H5.07017C5.07017 9.84626 5.07017 9.84626 5.07017 9.84626H5.07017C5.07017 9.84626 5.07017 9.84626 5.07017 9.84626H5.07017C5.07017 9.84626 5.07017 9.84626 5.07017 9.84626H5.07017C5.07017 9.84626 5.07017 9.84626 5.07017 9.84626C5.07017 9.84626 5.07017 9.84626 5.07017 9.84626H5.07017C5.07017 9.84626 5.07017 9.84626 5.07017 9.84626C5.07017 9.84626 5.07017 9.84626 5.07016 9.84626H5.07016C5.07016 9.84626 5.07016 9.84626 5.07016 9.84626C5.07016 9.84626 5.07016 9.84626 5.07016 9.84626C5.07016 9.84626 5.07016 9.84626 5.07016 9.84626C5.07016 9.84626 5.07016 9.84626 5.07016 9.84626H5.07016H5.07016H5.07016H5.07016H5.07016H5.07016H5.07016C5.07016 9.84626 5.07016 9.84626 5.07016 9.84626C5.07016 9.84626 5.07016 9.84626 5.07016 9.84626H5.07016C5.07016 9.84626 5.07016 9.84626 5.07016 9.84626H5.07016H5.07016C5.07016 9.84626 5.07016 9.84626 5.07016 9.84626H5.07016C5.07016 9.84626 5.07016 9.84626 5.07015 9.84626C5.07015 9.84626 5.07015 9.84626 5.07015 9.84626C5.07015 9.84626 5.07015 9.84626 5.07015 9.84626H5.07015H5.07015C5.07015 10.8463 5.07015 11.8463 5.07015 11.8463H5.07015C5.07015 11.8463 5.07015 11.8463 5.07015 11.8463C5.07015 11.8463 5.07015 11.8463 5.07015 11.8463C5.07015 11.8463 5.07015 11.8463 5.07015 11.8463H5.07016H5.07016C5.07016 11.8463 5.07016 11.8463 5.07016 11.8463H5.07016C5.07016 11.8463 5.07016 11.8463 5.07016 11.8463C5.07016 11.8463 5.07016 11.8463 5.07016 11.8463C5.07016 11.8463 5.07016 11.8463 5.07016 11.8463C5.07016 11.8463 5.07016 11.8463 5.07016 11.8463C5.07016 11.8463 5.07016 11.8463 5.07016 11.8463H5.07016C5.07016 11.8463 5.07016 11.8463 5.07016 11.8463C5.07016 11.8463 5.07016 11.8463 5.07016 11.8463H5.07016C5.07016 11.8463 5.07016 11.8463 5.07016 11.8463H5.07016C5.07016 11.8463 5.07016 11.8463 5.07016 11.8463C5.07016 11.8463 5.07016 11.8463 5.07016 11.8463H5.07016C5.07016 11.8463 5.07016 11.8463 5.07016 11.8463C5.07016 11.8463 5.07016 11.8463 5.07016 11.8463H5.07016C5.07016 11.8463 5.07016 11.8463 5.07017 11.8463C5.07017 11.8463 5.07017 11.8463 5.07017 11.8463C5.07017 11.8463 5.07017 11.8463 5.07017 11.8463C5.07017 11.8463 5.07017 11.8463 5.07017 11.8463H5.07017H5.07017H5.07017C5.07017 11.8463 5.07017 11.8463 5.07017 11.8463C5.07017 11.8463 5.07017 11.8463 5.07017 11.8463C5.07017 11.8463 5.07017 11.8463 5.07017 11.8463C5.07017 11.8463 5.07017 11.8463 5.07017 11.8463C5.07017 11.8463 5.07017 11.8463 5.07017 11.8463C5.07017 11.8463 5.07017 11.8463 5.07017 11.8463C5.07017 11.8463 5.07017 11.8463 5.07017 11.8463C5.07017 11.8463 5.07017 11.8463 5.07017 11.8463C5.07017 11.8463 5.07017 11.8463 5.07017 11.8463H5.07017H5.07017H5.07017H5.07017C5.07017 11.8463 5.07017 11.8463 5.07017 11.8463C5.07018 11.8463 5.07018 11.8463 5.07018 11.8463C5.07018 11.8463 5.07018 11.8463 5.07018 11.8463H5.07018H5.07018C5.07018 11.8463 5.07018 11.8463 5.07018 11.8463C5.07018 11.8463 5.07018 11.8463 5.07018 11.8463C5.07018 11.8463 5.07018 11.8463 5.07018 11.8463H5.07018C5.07018 11.8463 5.07018 11.8463 5.07018 11.8463C5.07018 11.8463 5.07018 11.8463 5.07018 11.8463H5.07018H5.07018C5.07018 11.8463 5.07018 11.8463 5.07018 11.8463H5.07018C5.07018 11.8463 5.07018 11.8463 5.07018 11.8463C5.07018 11.8463 5.07018 11.8463 5.07018 11.8463H5.07019C5.07019 11.8463 5.07019 11.8463 5.07019 11.8463H5.07019C5.07019 11.8463 5.07019 11.8463 5.07019 11.8463H5.07019C5.07019 11.8463 5.07019 11.8463 5.07019 11.8463H5.07019C5.07019 11.8463 5.07019 11.8463 5.07019 11.8463H5.07019C5.07019 11.8463 5.07019 11.8463 5.07019 11.8463C5.07019 11.8463 5.07019 11.8463 5.07019 11.8463H5.07019C5.07019 11.8463 5.07019 11.8463 5.07019 11.8463H5.07019C5.0702 11.8463 5.0702 11.8463 5.0702 11.8463C5.0702 11.8463 5.0702 11.8463 5.0702 11.8463C5.0702 11.8463 5.0702 11.8463 5.0702 11.8463H5.0702C5.0702 11.8463 5.0702 11.8463 5.0702 11.8463C5.0702 11.8463 5.0702 11.8463 5.0702 11.8463C5.0702 11.8463 5.0702 11.8463 5.0702 11.8463H5.0702C5.0702 11.8463 5.0702 11.8463 5.0702 11.8463C5.0702 11.8463 5.0702 11.8463 5.0702 11.8463C5.0702 11.8463 5.0702 11.8463 5.0702 11.8463C5.0702 11.8463 5.0702 11.8463 5.07021 11.8463C5.07021 11.8463 5.07021 11.8463 5.07021 11.8463C5.07021 11.8463 5.07021 11.8463 5.07021 11.8463C5.07021 11.8463 5.07021 11.8463 5.07021 11.8463C5.07021 11.8463 5.07021 11.8463 5.07021 11.8463C5.07021 11.8463 5.07021 11.8463 5.07021 11.8463V9.84626ZM5.07021 9.84626H5.06803V11.8463H5.07021V9.84626ZM5.06843 9.84626C4.40215 9.846 3.74588 9.67122 3.16105 9.33748L2.16976 11.0745C3.05369 11.579 4.05095 11.8459 5.06763 11.8463L5.06843 9.84626ZM2.4008 9.24165L-0.264606 9.973L0.264606 11.9017L2.93001 11.1704L2.4008 9.24165ZM2.26201 10.1039L2.41471 10.1985L3.46837 8.49857L3.31567 8.40393L2.26201 10.1039ZM2.41399 10.1981C3.21264 10.694 4.13048 10.9575 5.06803 10.958L5.06916 8.95802C4.50659 8.9577 3.95342 8.79979 3.46909 8.49902L2.41399 10.1981ZM5.06859 10.958H5.07021V8.95802H5.06859V10.958ZM5.07021 10.958C7.96799 10.958 10.248 8.50599 10.2491 5.5868L8.24915 5.586C8.24838 7.48763 6.77898 8.95802 5.07021 8.95802V10.958ZM10.2491 5.58675C10.2496 4.16776 9.7207 2.82001 8.74951 1.80299L7.30308 3.18424C7.90993 3.81972 8.24946 4.66881 8.24915 5.58606L10.2491 5.58675ZM8.74947 1.80295C7.77683 0.784512 6.46874 0.212207 5.0722 0.211572L5.07129 2.21157C5.90738 2.21195 6.69757 2.55022 7.30312 3.18428L8.74947 1.80295ZM5.07175 0.211572C2.17246 0.211572 -0.107813 2.66299 -0.10889 5.58248L1.89111 5.58322C1.89181 3.68207 3.36077 2.21157 5.07175 2.21157V0.211572ZM-0.10889 5.58246C-0.109283 6.58676 0.159254 7.56984 0.672932 8.42444L2.38711 7.3941C2.06399 6.85654 1.89086 6.23093 1.89111 5.58324L-0.10889 5.58246ZM0.672901 8.42439L0.772327 8.58983L2.48656 7.55959L2.38714 7.39415L0.672901 8.42439ZM0.662043 7.82146L0.239768 9.43454L2.17457 9.94104L2.59685 8.32795L0.662043 7.82146ZM1.47172 10.6522L3.05339 10.2183L2.52429 8.28953L0.942621 8.72342L1.47172 10.6522Z" fill="#F67B10" mask="url(#path-3-inside-1_341_17755)"/>
<path fill-rule="evenodd" clip-rule="evenodd" d="M3.81389 3.38354C3.7198 3.16466 3.6207 3.16026 3.53113 3.15645C3.4579 3.15315 3.37407 3.15332 3.29041 3.15332C3.20667 3.15332 3.07054 3.18631 2.95544 3.31783C2.84025 3.44935 2.51562 3.76736 2.51562 4.41414C2.51562 5.06099 2.96587 5.68595 3.02867 5.77374C3.09148 5.86145 3.89779 7.23111 5.17471 7.75804C6.23597 8.19599 6.45188 8.10887 6.68225 8.08696C6.91263 8.06506 7.42551 7.76895 7.53019 7.46201C7.63495 7.15508 7.63495 6.89204 7.60351 6.83698C7.57206 6.78225 7.48832 6.74935 7.3627 6.68364C7.23709 6.61792 6.61944 6.29982 6.50426 6.25601C6.38907 6.21211 6.30533 6.19029 6.22158 6.32189C6.13776 6.45333 5.8972 6.74935 5.82388 6.83698C5.75057 6.92485 5.67725 6.93585 5.55164 6.87005C5.42602 6.80416 5.02137 6.66545 4.54138 6.21761C4.16794 5.86923 3.91574 5.43889 3.84242 5.30729C3.76919 5.17585 3.84121 5.1109 3.89763 5.03909C3.99924 4.90977 4.16971 4.67726 4.21159 4.58964C4.25346 4.50184 4.23252 4.42513 4.20116 4.35933C4.16971 4.29361 3.92552 3.64354 3.81389 3.38354Z" fill="#F67B10"/>
</svg>
